<svg width="341" height="319" viewBox="0 0 341 319" fill="none" xmlns="http://www.w3.org/2000/svg">
<path d="M0 155C0 69.3959 69.3959 0 155 0H186C271.604 0 341 69.3959 341 155V164C341 249.604 271.604 319 186 319H155C69.3959 319 0 249.604 0 164V155Z" fill="white"/>
<path d="M43.6423 181.058C45.2423 197.458 61.1423 203.058 67.6423 203.058L80.1423 201.558L106.142 197.558C95.9756 196.558 74.0423 194.058 67.6423 192.058C61.2423 190.058 59.3089 184.558 59.1423 182.058C59.9756 163.391 61.7423 125.058 62.1423 121.058C62.5423 117.058 65.9756 116.058 67.6423 116.058C75.6423 116.058 99.1423 117.058 111.642 116.058C134.142 114.258 138.746 95.5578 138.642 88.0578C138.476 76.0578 138.042 50.8578 137.642 46.0578C137.242 41.2578 141.476 40.0578 143.642 40.0578C158.976 38.8911 191.942 36.4578 201.142 36.0578C210.342 35.6578 211.642 40.0578 213.142 43.0578C214.265 45.304 215.864 55.0578 218.142 75.5578C218.491 78.7008 222.642 58.0578 222.642 44.5578C222.642 28.5528 205.142 22.4847 201.642 22.0578C196.642 21.4481 157.142 18.5578 141.142 19.0578C122.642 19.6359 113.617 38.8911 113.617 46.0578C113.284 58.2245 113.642 82.37 113.642 86.0578C113.642 90.0578 110.976 91.2245 109.142 91.5578C106.142 91.5578 67.6423 91.2637 65.1423 91.5578C49.1422 93.4402 38.6422 111.058 40.1423 118.558C40.6423 132.558 42.0423 164.658 43.6423 181.058Z" fill="#002941" stroke="#002941" stroke-width="0.5"/>
<path d="M297.142 138.058C295.623 121.65 287.142 114.558 277.142 115.058L263.642 116.558L256.642 117.558C266.804 118.607 274.25 119.526 280.64 121.558C287.03 123.589 286.862 135.563 286.642 140.058C285.642 160.558 283.642 187.058 283.142 193.558C282.834 197.566 278.642 201.558 275.115 201.315C267.134 200.767 245.147 199.119 232.642 200.058C210.134 201.748 204.575 221.057 204.642 228.558C204.75 240.558 204.774 262.741 204.774 267.558C204.774 270.558 202.142 272.058 200.142 272.558C186.642 273.058 147.079 274.058 141.642 273.602C136.642 273.183 135.142 264.558 134.642 258.058C134.45 255.554 131.642 225.058 134.642 203.558C135.817 195.139 113.342 259.621 114.642 273.058C116.142 288.558 129.642 296.558 138.142 297.558C140.625 297.85 188.771 297.979 204.774 297.558C223.276 297.07 229.598 276.058 230.143 273.661C231.76 266.558 229.624 234.746 229.642 231.058C229.662 227.058 231.307 224.382 233.142 224.058C239.142 222.997 270.142 222.38 278.642 221.558C294.142 220.058 302.642 202.558 301.642 196.058C301.211 182.056 298.662 154.465 297.142 138.058Z" fill="url(#paint0_linear_20_3)" stroke="white" stroke-width="0.5"/>
<g filter="url(#filter0_d_20_3)">
<path d="M144.642 180.558C149.642 174.058 167.142 158.058 179.642 153.558C173.642 153.558 153.642 160.558 141.142 170.558C129.115 180.18 120.142 201.558 117.642 213.558C115.642 223.158 114.976 256.391 114.642 271.058C120.642 238.058 131.642 212.058 133.642 206.558C134.369 204.558 139.038 187.844 144.642 180.558Z" fill="url(#paint1_linear_20_3)"/>
</g>
<defs>
<filter id="filter0_d_20_3" x="110.642" y="153.558" width="72.9999" height="125.5" filterUnits="userSpaceOnUse" color-interpolation-filters="sRGB">
<feFlood flood-opacity="0" result="BackgroundImageFix"/>
<feColorMatrix in="SourceAlpha" type="matrix" values="0 0 0 0 0 0 0 0 0 0 0 0 0 0 0 0 0 0 127 0" result="hardAlpha"/>
<feOffset dy="4"/>
<feGaussianBlur stdDeviation="2"/>
<feComposite in2="hardAlpha" operator="out"/>
<feColorMatrix type="matrix" values="0 0 0 0 0 0 0 0 0 0 0 0 0 0 0 0 0 0 0.25 0"/>
<feBlend mode="normal" in2="BackgroundImageFix" result="effect1_dropShadow_20_3"/>
<feBlend mode="normal" in="SourceGraphic" in2="effect1_dropShadow_20_3" result="shape"/>
</filter>
<linearGradient id="paint0_linear_20_3" x1="204.5" y1="297" x2="208.741" y2="114.693" gradientUnits="userSpaceOnUse">
<stop stop-color="#007BA2"/>
<stop offset="1" stop-color="#002941"/>
</linearGradient>
<linearGradient id="paint1_linear_20_3" x1="187.858" y1="152.942" x2="147.142" y2="271.058" gradientUnits="userSpaceOnUse">
<stop offset="0.9999" stop-color="#00A3FF"/>
<stop offset="1" stop-color="#36B7FF"/>
</linearGradient>
</defs>
</svg>
