<svg width="746" height="327" viewBox="0 0 746 327" fill="none" xmlns="http://www.w3.org/2000/svg">
<g filter="url(#filter0_d_20_2)">
<path d="M4 155C4 69.3959 73.3959 0 159 0H587C672.604 0 742 69.3959 742 155V164C742 249.604 672.604 319 587 319H159C73.3959 319 4 249.604 4 164V155Z" fill="white"/>
</g>
<path d="M311.769 167L323.106 134.656H328.336L339.586 167H334.137L331.808 160.276H319.635L317.262 167H311.769ZM320.865 156.717H330.533L325.743 142.742L320.865 156.717ZM351.188 170.208C351.48 170.706 351.847 171.116 352.286 171.438C352.755 171.761 353.224 172.01 353.692 172.186C354.19 172.361 354.674 172.479 355.143 172.537C355.641 172.625 356.08 172.669 356.461 172.669C358.277 172.669 359.698 172.142 360.724 171.087C361.749 170.032 362.262 168.23 362.262 165.682V164.539V164.451L362.306 164.231C362.306 164.202 362.291 164.173 362.262 164.144C362.262 164.114 362.262 164.085 362.262 164.056C362.174 164.437 361.91 164.817 361.471 165.198C361.061 165.579 360.533 165.931 359.889 166.253C359.244 166.546 358.512 166.78 357.691 166.956C356.871 167.132 356.021 167.22 355.143 167.22C353.502 167.22 352.066 166.868 350.836 166.165C349.605 165.433 348.58 164.466 347.76 163.265C346.939 162.063 346.339 160.687 345.958 159.134C345.577 157.581 345.387 155.955 345.387 154.256C345.387 151.971 345.694 150.052 346.31 148.499C346.954 146.946 347.76 145.687 348.727 144.72C349.723 143.724 350.821 143.021 352.022 142.61C353.253 142.2 354.454 141.995 355.626 141.995C357.062 141.995 358.365 142.244 359.537 142.742C360.738 143.24 361.646 143.899 362.262 144.72L362.833 142.215H367.579L367.535 167C367.418 168.787 367.052 170.311 366.437 171.57C365.851 172.83 365.089 173.87 364.151 174.69C363.214 175.511 362.13 176.097 360.899 176.448C359.669 176.8 358.351 176.976 356.944 176.976C355.304 176.976 353.678 176.683 352.066 176.097C350.484 175.54 349.166 174.588 348.111 173.24L351.188 170.208ZM362.613 154.432C362.613 153.26 362.467 152.176 362.174 151.18C361.881 150.184 361.485 149.305 360.987 148.543C360.489 147.781 359.874 147.181 359.142 146.741C358.409 146.302 357.618 146.082 356.769 146.082C355.89 146.082 355.084 146.316 354.352 146.785C353.648 147.225 353.048 147.825 352.55 148.587C352.052 149.349 351.671 150.242 351.407 151.268C351.144 152.293 351.012 153.377 351.012 154.52C351.012 155.691 351.144 156.805 351.407 157.859C351.7 158.885 352.096 159.778 352.594 160.54C353.121 161.302 353.736 161.917 354.439 162.386C355.172 162.825 355.978 163.045 356.856 163.045C357.765 163.045 358.57 162.825 359.273 162.386C359.977 161.917 360.562 161.302 361.031 160.54C361.529 159.749 361.91 158.826 362.174 157.771C362.467 156.717 362.613 155.604 362.613 154.432ZM386.52 141.951C388.512 141.951 390.27 142.361 391.793 143.182C393.316 143.973 394.562 145.042 395.528 146.39C396.524 147.708 397.228 149.246 397.638 151.004C398.077 152.732 398.165 154.534 397.901 156.409H380.675C380.675 157.347 380.851 158.211 381.202 159.002C381.554 159.793 382.022 160.481 382.608 161.067C383.224 161.624 383.941 162.063 384.762 162.386C385.611 162.708 386.52 162.869 387.486 162.869C387.809 162.869 388.204 162.84 388.673 162.781C389.171 162.693 389.684 162.562 390.211 162.386C390.768 162.181 391.31 161.932 391.837 161.639C392.394 161.346 392.877 160.994 393.287 160.584L395.221 163.528C394.254 164.729 393.126 165.638 391.837 166.253C390.548 166.868 388.907 167.176 386.915 167.176C385.304 167.176 383.795 166.854 382.389 166.209C380.982 165.535 379.781 164.627 378.785 163.484C377.789 162.342 376.998 161.009 376.412 159.485C375.826 157.962 375.533 156.321 375.533 154.563C375.533 152.835 375.826 151.209 376.412 149.686C376.998 148.133 377.774 146.785 378.741 145.643C379.737 144.5 380.909 143.606 382.257 142.962C383.604 142.288 385.025 141.951 386.52 141.951ZM392.979 152.542C392.979 151.751 392.833 150.975 392.54 150.213C392.247 149.451 391.837 148.763 391.31 148.147C390.812 147.532 390.196 147.049 389.464 146.697C388.731 146.316 387.94 146.111 387.091 146.082C386.183 146.082 385.348 146.258 384.586 146.609C383.824 146.961 383.165 147.43 382.608 148.016C382.052 148.602 381.612 149.305 381.29 150.125C380.997 150.916 380.851 151.722 380.851 152.542H392.979ZM425.851 167H420.489V153.509C420.489 152.513 420.445 151.561 420.357 150.652C420.27 149.744 420.064 148.938 419.742 148.235C419.42 147.532 418.98 146.99 418.424 146.609C417.867 146.199 417.091 145.994 416.095 145.994C415.772 145.994 415.348 146.038 414.82 146.126C414.322 146.214 413.795 146.346 413.238 146.521C412.711 146.697 412.198 146.917 411.7 147.181C411.231 147.444 410.88 147.752 410.646 148.104V148.367V148.455V158.211V158.299V167H405.328V142.215H410.074L410.646 144.72C410.997 144.397 411.437 144.075 411.964 143.753C412.521 143.401 413.121 143.094 413.766 142.83C414.41 142.566 415.069 142.361 415.743 142.215C416.417 142.039 417.076 141.951 417.721 141.951C419.039 141.951 420.152 142.229 421.061 142.786C421.969 143.343 422.877 144.061 423.785 144.939C424.283 145.438 424.664 146.023 424.928 146.697C425.221 147.342 425.426 148.03 425.543 148.763C425.689 149.466 425.777 150.184 425.807 150.916C425.836 151.648 425.851 152.366 425.851 153.069V166.121V167ZM434.859 164.495C433.746 163.235 432.926 161.683 432.398 159.837C431.871 157.991 431.607 156.131 431.607 154.256C431.607 151.971 431.915 150.052 432.53 148.499C433.175 146.946 433.995 145.687 434.991 144.72C435.987 143.753 437.086 143.064 438.287 142.654C439.518 142.215 440.719 141.995 441.891 141.995C443.326 141.995 444.63 142.244 445.802 142.742C447.003 143.24 447.896 143.899 448.482 144.72V132.854H453.844V167H448.79C448.731 166.502 448.673 166.004 448.614 165.506C448.585 164.979 448.541 164.495 448.482 164.056C448.395 164.437 448.131 164.817 447.691 165.198C447.281 165.579 446.739 165.931 446.065 166.253C445.421 166.546 444.688 166.78 443.868 166.956C443.048 167.132 442.198 167.22 441.319 167.22C440.147 167.22 438.99 167.015 437.848 166.604C436.734 166.194 435.738 165.491 434.859 164.495ZM437.232 154.651C437.232 155.823 437.379 156.922 437.672 157.947C437.965 158.943 438.36 159.822 438.858 160.584C439.356 161.346 439.957 161.946 440.66 162.386C441.393 162.825 442.184 163.045 443.033 163.045C443.941 163.045 444.747 162.825 445.45 162.386C446.183 161.917 446.798 161.302 447.296 160.54C447.794 159.778 448.175 158.885 448.438 157.859C448.702 156.834 448.834 155.735 448.834 154.563C448.834 153.392 448.688 152.293 448.395 151.268C448.131 150.242 447.735 149.349 447.208 148.587C446.71 147.825 446.095 147.225 445.362 146.785C444.659 146.316 443.854 146.082 442.945 146.082C442.037 146.082 441.231 146.316 440.528 146.785C439.825 147.225 439.225 147.84 438.727 148.631C438.258 149.422 437.892 150.33 437.628 151.355C437.364 152.381 437.232 153.479 437.232 154.651ZM479.332 159.31V159.661C479.332 159.896 479.347 160.247 479.376 160.716C479.405 161.155 479.464 161.609 479.552 162.078C479.64 162.547 479.771 162.972 479.947 163.353C480.152 163.733 480.416 163.982 480.738 164.1L479.332 167.044C478.951 167.044 478.541 166.956 478.102 166.78C477.691 166.604 477.281 166.355 476.871 166.033C476.49 165.711 476.153 165.359 475.86 164.979C475.597 164.568 475.392 164.129 475.245 163.66C475.04 164.158 474.674 164.627 474.146 165.066C473.648 165.477 473.077 165.857 472.433 166.209C471.788 166.531 471.085 166.78 470.323 166.956C469.591 167.132 468.902 167.22 468.258 167.22C467.262 167.22 466.295 167.088 465.357 166.824C464.449 166.561 463.644 166.136 462.94 165.55C462.237 164.964 461.681 164.188 461.271 163.221C460.89 162.254 460.699 161.067 460.699 159.661C460.699 158.313 460.978 157.156 461.534 156.189C462.12 155.193 462.853 154.388 463.731 153.772C464.64 153.128 465.665 152.659 466.808 152.366C467.95 152.044 469.107 151.883 470.279 151.883H474.015C474.015 150.447 473.941 149.305 473.795 148.455C473.648 147.605 473.399 146.99 473.048 146.609C472.696 146.199 472.257 145.95 471.729 145.862C471.231 145.745 470.631 145.687 469.928 145.687C469.283 145.687 468.668 145.774 468.082 145.95C467.525 146.097 466.998 146.287 466.5 146.521C466.031 146.727 465.606 146.961 465.226 147.225C464.874 147.488 464.61 147.693 464.435 147.84L462.457 144.808C462.75 144.485 463.189 144.163 463.775 143.841C464.361 143.489 465.035 143.182 465.797 142.918C466.559 142.654 467.379 142.449 468.258 142.303C469.166 142.127 470.104 142.039 471.07 142.039C471.949 142.039 472.799 142.127 473.619 142.303C474.469 142.479 475.23 142.771 475.904 143.182C476.607 143.592 477.208 144.148 477.706 144.852C478.233 145.525 478.6 146.375 478.805 147.4C479.01 148.426 479.142 149.466 479.2 150.521C479.288 151.546 479.332 152.571 479.332 153.597V159.31ZM474.059 155.003H471.246C470.66 155.003 470.045 155.062 469.4 155.179C468.756 155.296 468.155 155.516 467.599 155.838C467.042 156.16 466.573 156.629 466.192 157.244C465.841 157.83 465.665 158.592 465.665 159.529C465.665 160.994 465.987 162.049 466.632 162.693C467.306 163.338 468.272 163.66 469.532 163.66C470.411 163.66 471.246 163.426 472.037 162.957C472.857 162.488 473.531 161.858 474.059 161.067V155.003ZM520.465 166.165V167H515.191V153.509C515.191 152.513 515.177 151.575 515.147 150.696C515.147 149.788 515.06 148.982 514.884 148.279C514.708 147.576 514.415 147.034 514.005 146.653C513.624 146.243 513.023 146.038 512.203 146.038C512.057 146.038 511.793 146.067 511.412 146.126C511.061 146.155 510.636 146.243 510.138 146.39C509.64 146.507 509.083 146.712 508.468 147.005C507.882 147.298 507.296 147.679 506.71 148.147C506.71 149.29 506.71 150.198 506.71 150.872C506.739 151.546 506.754 152.278 506.754 153.069V167H501.437V153.509C501.437 152.513 501.437 151.575 501.437 150.696C501.437 149.788 501.349 148.982 501.173 148.279C500.997 147.576 500.704 147.034 500.294 146.653C499.884 146.243 499.283 146.038 498.492 146.038C498.229 146.038 497.862 146.082 497.394 146.17C496.925 146.229 496.427 146.346 495.899 146.521C495.401 146.697 494.889 146.917 494.361 147.181C493.863 147.444 493.438 147.752 493.087 148.104V167H487.726V142.215H492.516L493.087 144.764C493.819 144.09 494.757 143.475 495.899 142.918C497.071 142.332 498.287 142.039 499.547 142.039C500.953 142.039 502.125 142.347 503.062 142.962C504 143.577 504.938 144.485 505.875 145.687C506.373 145.13 506.93 144.617 507.545 144.148C508.16 143.68 508.79 143.284 509.435 142.962C510.108 142.64 510.768 142.391 511.412 142.215C512.057 142.039 512.672 141.951 513.258 141.951C514.254 141.951 515.191 142.156 516.07 142.566C516.949 142.947 517.711 143.504 518.355 144.236C519.029 144.969 519.542 145.848 519.894 146.873C520.274 147.869 520.465 148.953 520.465 150.125V153.069V166.165ZM538.395 141.951C540.387 141.951 542.145 142.361 543.668 143.182C545.191 143.973 546.437 145.042 547.403 146.39C548.399 147.708 549.103 149.246 549.513 151.004C549.952 152.732 550.04 154.534 549.776 156.409H532.55C532.55 157.347 532.726 158.211 533.077 159.002C533.429 159.793 533.897 160.481 534.483 161.067C535.099 161.624 535.816 162.063 536.637 162.386C537.486 162.708 538.395 162.869 539.361 162.869C539.684 162.869 540.079 162.84 540.548 162.781C541.046 162.693 541.559 162.562 542.086 162.386C542.643 162.181 543.185 161.932 543.712 161.639C544.269 161.346 544.752 160.994 545.162 160.584L547.096 163.528C546.129 164.729 545.001 165.638 543.712 166.253C542.423 166.868 540.782 167.176 538.79 167.176C537.179 167.176 535.67 166.854 534.264 166.209C532.857 165.535 531.656 164.627 530.66 163.484C529.664 162.342 528.873 161.009 528.287 159.485C527.701 157.962 527.408 156.321 527.408 154.563C527.408 152.835 527.701 151.209 528.287 149.686C528.873 148.133 529.649 146.785 530.616 145.643C531.612 144.5 532.784 143.606 534.132 142.962C535.479 142.288 536.9 141.951 538.395 141.951ZM544.854 152.542C544.854 151.751 544.708 150.975 544.415 150.213C544.122 149.451 543.712 148.763 543.185 148.147C542.687 147.532 542.071 147.049 541.339 146.697C540.606 146.316 539.815 146.111 538.966 146.082C538.058 146.082 537.223 146.258 536.461 146.609C535.699 146.961 535.04 147.43 534.483 148.016C533.927 148.602 533.487 149.305 533.165 150.125C532.872 150.916 532.726 151.722 532.726 152.542H544.854ZM577.726 167H572.364V153.509C572.364 152.513 572.32 151.561 572.232 150.652C572.145 149.744 571.939 148.938 571.617 148.235C571.295 147.532 570.855 146.99 570.299 146.609C569.742 146.199 568.966 145.994 567.97 145.994C567.647 145.994 567.223 146.038 566.695 146.126C566.197 146.214 565.67 146.346 565.113 146.521C564.586 146.697 564.073 146.917 563.575 147.181C563.106 147.444 562.755 147.752 562.521 148.104V148.367V148.455V158.211V158.299V167H557.203V142.215H561.949L562.521 144.72C562.872 144.397 563.312 144.075 563.839 143.753C564.396 143.401 564.996 143.094 565.641 142.83C566.285 142.566 566.944 142.361 567.618 142.215C568.292 142.039 568.951 141.951 569.596 141.951C570.914 141.951 572.027 142.229 572.936 142.786C573.844 143.343 574.752 144.061 575.66 144.939C576.158 145.438 576.539 146.023 576.803 146.697C577.096 147.342 577.301 148.03 577.418 148.763C577.564 149.466 577.652 150.184 577.682 150.916C577.711 151.648 577.726 152.366 577.726 153.069V166.121V167ZM592.14 159.485C592.14 160.481 592.271 161.258 592.535 161.814C592.799 162.371 593.165 162.796 593.634 163.089C594.132 163.382 594.674 163.572 595.26 163.66C595.875 163.719 596.52 163.748 597.193 163.748V167C596.812 167.059 596.432 167.103 596.051 167.132C595.729 167.161 595.333 167.176 594.864 167.176C594.425 167.205 593.985 167.22 593.546 167.22C593.106 167.22 592.652 167.205 592.184 167.176C591.744 167.146 591.363 167.103 591.041 167.044C590.045 166.868 589.269 166.443 588.712 165.77C588.155 165.066 587.73 164.305 587.438 163.484C587.174 162.635 586.998 161.814 586.91 161.023C586.852 160.232 586.822 159.617 586.822 159.178V145.818H583.57V142.215H586.822V135.184H592.14V142.215H596.095V145.818H592.14V159.485ZM614.464 142.083C616.163 142.083 617.701 142.42 619.078 143.094C620.455 143.738 621.627 144.632 622.594 145.774C623.561 146.917 624.308 148.25 624.835 149.773C625.362 151.297 625.626 152.938 625.626 154.695C625.626 156.453 625.348 158.108 624.791 159.661C624.234 161.185 623.443 162.518 622.418 163.66C621.422 164.773 620.221 165.652 618.814 166.297C617.438 166.912 615.899 167.22 614.2 167.22C612.472 167.22 610.89 166.897 609.454 166.253C608.048 165.608 606.847 164.715 605.851 163.572C604.884 162.43 604.137 161.097 603.609 159.573C603.082 158.05 602.818 156.395 602.818 154.607C602.818 152.82 603.097 151.15 603.653 149.598C604.239 148.045 605.03 146.727 606.026 145.643C607.052 144.529 608.282 143.665 609.718 143.05C611.153 142.405 612.735 142.083 614.464 142.083ZM614.112 163.045C614.991 163.045 615.782 162.84 616.485 162.43C617.218 161.99 617.833 161.404 618.331 160.672C618.858 159.91 619.269 159.017 619.562 157.991C619.884 156.966 620.045 155.867 620.045 154.695C620.045 153.523 619.898 152.425 619.605 151.399C619.342 150.374 618.961 149.48 618.463 148.719C617.994 147.928 617.408 147.298 616.705 146.829C616.002 146.36 615.211 146.126 614.332 146.126C613.453 146.126 612.647 146.346 611.915 146.785C611.183 147.225 610.553 147.825 610.025 148.587C609.527 149.319 609.132 150.198 608.839 151.224C608.575 152.22 608.443 153.304 608.443 154.476C608.443 155.647 608.561 156.761 608.795 157.815C609.059 158.841 609.439 159.734 609.938 160.496C610.436 161.258 611.021 161.873 611.695 162.342C612.398 162.811 613.204 163.045 614.112 163.045Z" fill="url(#paint0_linear_20_2)"/>
<path d="M375.368 204.123C375.368 205.295 375.119 206.438 374.621 207.551C374.152 208.635 373.479 209.602 372.6 210.451C371.721 211.271 370.637 211.931 369.348 212.429C368.059 212.927 366.594 213.176 364.953 213.176C364.25 213.176 363.518 213.132 362.756 213.044C362.023 212.985 361.276 212.868 360.515 212.692C359.753 212.517 359.021 212.282 358.317 211.989C357.644 211.667 357.058 211.286 356.56 210.847L357.482 207.067C357.893 207.302 358.405 207.536 359.021 207.771C359.665 207.976 360.324 208.181 360.998 208.386C361.672 208.562 362.346 208.708 363.02 208.825C363.693 208.942 364.323 209.001 364.909 209.001C366.696 209.001 368.059 208.591 368.996 207.771C369.963 206.921 370.446 205.676 370.446 204.035C370.446 203.039 370.109 202.189 369.436 201.486C368.762 200.783 367.912 200.153 366.887 199.597C365.891 199.011 364.807 198.439 363.635 197.883C362.463 197.297 361.364 196.623 360.339 195.861C359.313 195.07 358.464 194.147 357.79 193.093C357.116 192.038 356.779 190.72 356.779 189.138C356.779 187.702 357.043 186.428 357.57 185.314C358.098 184.201 358.801 183.264 359.68 182.502C360.588 181.711 361.628 181.11 362.8 180.7C364.001 180.29 365.261 180.085 366.579 180.085C367.927 180.085 369.289 180.217 370.666 180.48C372.043 180.715 373.156 181.11 374.006 181.667C373.83 182.048 373.625 182.473 373.391 182.941C373.156 183.381 372.937 183.806 372.731 184.216C372.526 184.597 372.351 184.919 372.204 185.183C372.058 185.446 371.97 185.593 371.94 185.622C371.765 185.534 371.56 185.417 371.325 185.271C371.12 185.124 370.812 184.978 370.402 184.831C369.992 184.685 369.45 184.582 368.776 184.523C368.103 184.465 367.238 184.479 366.184 184.567C365.598 184.626 365.041 184.802 364.514 185.095C363.986 185.358 363.518 185.695 363.107 186.105C362.697 186.516 362.375 186.984 362.141 187.512C361.906 188.01 361.789 188.493 361.789 188.962C361.789 190.134 362.126 191.086 362.8 191.818C363.474 192.521 364.309 193.151 365.305 193.708C366.301 194.235 367.385 194.763 368.557 195.29C369.729 195.788 370.812 196.403 371.809 197.136C372.834 197.868 373.684 198.791 374.357 199.904C375.031 200.988 375.368 202.395 375.368 204.123ZM398.571 205.31V205.661C398.571 205.896 398.586 206.247 398.615 206.716C398.645 207.155 398.703 207.609 398.791 208.078C398.879 208.547 399.011 208.972 399.187 209.353C399.392 209.733 399.655 209.982 399.978 210.1L398.571 213.044C398.19 213.044 397.78 212.956 397.341 212.78C396.931 212.604 396.521 212.355 396.11 212.033C395.729 211.711 395.393 211.359 395.1 210.979C394.836 210.568 394.631 210.129 394.484 209.66C394.279 210.158 393.913 210.627 393.386 211.066C392.888 211.477 392.316 211.857 391.672 212.209C391.027 212.531 390.324 212.78 389.562 212.956C388.83 213.132 388.142 213.22 387.497 213.22C386.501 213.22 385.534 213.088 384.597 212.824C383.688 212.561 382.883 212.136 382.18 211.55C381.477 210.964 380.92 210.188 380.51 209.221C380.129 208.254 379.938 207.067 379.938 205.661C379.938 204.313 380.217 203.156 380.773 202.189C381.359 201.193 382.092 200.388 382.971 199.772C383.879 199.128 384.904 198.659 386.047 198.366C387.189 198.044 388.347 197.883 389.519 197.883H393.254C393.254 196.447 393.181 195.305 393.034 194.455C392.888 193.605 392.639 192.99 392.287 192.609C391.936 192.199 391.496 191.95 390.969 191.862C390.471 191.745 389.87 191.687 389.167 191.687C388.522 191.687 387.907 191.774 387.321 191.95C386.765 192.097 386.237 192.287 385.739 192.521C385.271 192.727 384.846 192.961 384.465 193.225C384.113 193.488 383.85 193.693 383.674 193.84L381.696 190.808C381.989 190.485 382.429 190.163 383.015 189.841C383.601 189.489 384.274 189.182 385.036 188.918C385.798 188.654 386.618 188.449 387.497 188.303C388.405 188.127 389.343 188.039 390.31 188.039C391.188 188.039 392.038 188.127 392.858 188.303C393.708 188.479 394.47 188.771 395.144 189.182C395.847 189.592 396.447 190.148 396.945 190.852C397.473 191.525 397.839 192.375 398.044 193.4C398.249 194.426 398.381 195.466 398.439 196.521C398.527 197.546 398.571 198.571 398.571 199.597V205.31ZM393.298 201.003H390.485C389.899 201.003 389.284 201.062 388.64 201.179C387.995 201.296 387.395 201.516 386.838 201.838C386.281 202.16 385.812 202.629 385.432 203.244C385.08 203.83 384.904 204.592 384.904 205.529C384.904 206.994 385.227 208.049 385.871 208.693C386.545 209.338 387.512 209.66 388.771 209.66C389.65 209.66 390.485 209.426 391.276 208.957C392.097 208.488 392.771 207.858 393.298 207.067V201.003ZM406.789 189.094V188.215H412.15V201.706C412.15 202.731 412.194 203.698 412.282 204.606C412.37 205.485 412.561 206.262 412.854 206.936C413.146 207.609 413.586 208.151 414.172 208.562C414.758 208.972 415.534 209.177 416.501 209.177C416.794 209.177 417.204 209.147 417.731 209.089C418.259 209.001 418.786 208.869 419.313 208.693C419.87 208.518 420.383 208.298 420.852 208.034C421.35 207.771 421.716 207.463 421.95 207.111V206.804V206.76V196.916V196.872V188.215H427.312V213H422.521L421.95 210.451C421.599 210.773 421.159 211.096 420.632 211.418C420.104 211.74 419.519 212.048 418.874 212.341C418.259 212.604 417.614 212.824 416.94 213C416.296 213.146 415.651 213.22 415.007 213.22C414.304 213.22 413.674 213.146 413.117 213C412.561 212.883 412.033 212.692 411.535 212.429C411.066 212.136 410.612 211.813 410.173 211.462C409.733 211.11 409.294 210.715 408.854 210.275C408.356 209.777 407.961 209.206 407.668 208.562C407.375 207.888 407.155 207.199 407.009 206.496C406.892 205.764 406.818 205.031 406.789 204.299C406.789 203.566 406.789 202.849 406.789 202.146V189.05V189.094ZM421.291 178.854L416.501 185.095H412.985L415.93 178.854H421.291ZM436.452 210.495C435.339 209.235 434.519 207.683 433.991 205.837C433.464 203.991 433.2 202.131 433.2 200.256C433.2 197.971 433.508 196.052 434.123 194.499C434.768 192.946 435.588 191.687 436.584 190.72C437.58 189.753 438.679 189.064 439.88 188.654C441.11 188.215 442.312 187.995 443.483 187.995C444.919 187.995 446.223 188.244 447.395 188.742C448.596 189.24 449.489 189.899 450.075 190.72V178.854H455.437V213H450.383C450.324 212.502 450.266 212.004 450.207 211.506C450.178 210.979 450.134 210.495 450.075 210.056C449.987 210.437 449.724 210.817 449.284 211.198C448.874 211.579 448.332 211.931 447.658 212.253C447.014 212.546 446.281 212.78 445.461 212.956C444.641 213.132 443.791 213.22 442.912 213.22C441.74 213.22 440.583 213.015 439.44 212.604C438.327 212.194 437.331 211.491 436.452 210.495ZM438.825 200.651C438.825 201.823 438.972 202.922 439.265 203.947C439.558 204.943 439.953 205.822 440.451 206.584C440.949 207.346 441.55 207.946 442.253 208.386C442.985 208.825 443.776 209.045 444.626 209.045C445.534 209.045 446.34 208.825 447.043 208.386C447.775 207.917 448.391 207.302 448.889 206.54C449.387 205.778 449.768 204.885 450.031 203.859C450.295 202.834 450.427 201.735 450.427 200.563C450.427 199.392 450.28 198.293 449.987 197.268C449.724 196.242 449.328 195.349 448.801 194.587C448.303 193.825 447.688 193.225 446.955 192.785C446.252 192.316 445.446 192.082 444.538 192.082C443.63 192.082 442.824 192.316 442.121 192.785C441.418 193.225 440.817 193.84 440.319 194.631C439.851 195.422 439.484 196.33 439.221 197.355C438.957 198.381 438.825 199.479 438.825 200.651ZM473.322 187.951C475.314 187.951 477.072 188.361 478.596 189.182C480.119 189.973 481.364 191.042 482.331 192.39C483.327 193.708 484.03 195.246 484.44 197.004C484.88 198.732 484.968 200.534 484.704 202.409H467.478C467.478 203.347 467.653 204.211 468.005 205.002C468.356 205.793 468.825 206.481 469.411 207.067C470.026 207.624 470.744 208.063 471.564 208.386C472.414 208.708 473.322 208.869 474.289 208.869C474.611 208.869 475.007 208.84 475.476 208.781C475.974 208.693 476.486 208.562 477.014 208.386C477.57 208.181 478.112 207.932 478.64 207.639C479.196 207.346 479.68 206.994 480.09 206.584L482.023 209.528C481.057 210.729 479.929 211.638 478.64 212.253C477.351 212.868 475.71 213.176 473.718 213.176C472.106 213.176 470.598 212.854 469.191 212.209C467.785 211.535 466.584 210.627 465.588 209.484C464.592 208.342 463.801 207.009 463.215 205.485C462.629 203.962 462.336 202.321 462.336 200.563C462.336 198.835 462.629 197.209 463.215 195.686C463.801 194.133 464.577 192.785 465.544 191.643C466.54 190.5 467.712 189.606 469.06 188.962C470.407 188.288 471.828 187.951 473.322 187.951ZM479.782 198.542C479.782 197.751 479.636 196.975 479.343 196.213C479.05 195.451 478.64 194.763 478.112 194.147C477.614 193.532 476.999 193.049 476.267 192.697C475.534 192.316 474.743 192.111 473.894 192.082C472.985 192.082 472.15 192.258 471.389 192.609C470.627 192.961 469.968 193.43 469.411 194.016C468.854 194.602 468.415 195.305 468.093 196.125C467.8 196.916 467.653 197.722 467.653 198.542H479.782ZM529.177 180.612V196.652C529.177 199.377 528.869 201.779 528.254 203.859C527.668 205.939 526.833 207.668 525.749 209.045C524.665 210.422 523.347 211.462 521.794 212.165C520.241 212.868 518.513 213.22 516.608 213.22C514.675 213.22 512.932 212.868 511.379 212.165C509.855 211.462 508.537 210.422 507.424 209.045C506.34 207.668 505.49 205.939 504.875 203.859C504.289 201.779 503.996 199.377 503.996 196.652V180.612H509.357V196.125C509.357 198.527 509.519 200.549 509.841 202.189C510.192 203.83 510.676 205.148 511.291 206.145C511.906 207.111 512.653 207.814 513.532 208.254C514.411 208.693 515.393 208.913 516.477 208.913C517.59 208.913 518.601 208.708 519.509 208.298C520.417 207.888 521.193 207.199 521.838 206.232C522.482 205.266 522.98 203.962 523.332 202.321C523.684 200.681 523.859 198.615 523.859 196.125V180.612H529.177ZM520.739 171.252L515.949 177.492H512.434L515.378 171.252H520.739ZM557.082 213H551.721V199.509C551.721 198.513 551.677 197.561 551.589 196.652C551.501 195.744 551.296 194.938 550.974 194.235C550.651 193.532 550.212 192.99 549.655 192.609C549.099 192.199 548.322 191.994 547.326 191.994C547.004 191.994 546.579 192.038 546.052 192.126C545.554 192.214 545.026 192.346 544.47 192.521C543.942 192.697 543.43 192.917 542.932 193.181C542.463 193.444 542.111 193.752 541.877 194.104V194.367V194.455V204.211V204.299V213H536.56V188.215H541.306L541.877 190.72C542.229 190.397 542.668 190.075 543.195 189.753C543.752 189.401 544.353 189.094 544.997 188.83C545.642 188.566 546.301 188.361 546.975 188.215C547.648 188.039 548.308 187.951 548.952 187.951C550.271 187.951 551.384 188.229 552.292 188.786C553.2 189.343 554.108 190.061 555.017 190.939C555.515 191.438 555.896 192.023 556.159 192.697C556.452 193.342 556.657 194.03 556.774 194.763C556.921 195.466 557.009 196.184 557.038 196.916C557.067 197.648 557.082 198.366 557.082 199.069V212.121V213ZM569.738 213H564.377V188.215H569.738V213ZM570.222 180.305C570.222 181.184 569.914 181.931 569.299 182.546C568.684 183.132 567.937 183.425 567.058 183.425C566.179 183.425 565.432 183.117 564.816 182.502C564.23 181.887 563.938 181.154 563.938 180.305C563.938 179.426 564.245 178.679 564.86 178.063C565.476 177.448 566.208 177.141 567.058 177.141C567.937 177.141 568.684 177.448 569.299 178.063C569.914 178.679 570.222 179.426 570.222 180.305ZM595.578 209.528C594.582 210.788 593.498 211.726 592.326 212.341C591.154 212.927 589.66 213.22 587.844 213.22C586.115 213.22 584.548 212.897 583.142 212.253C581.735 211.579 580.534 210.686 579.538 209.572C578.542 208.43 577.78 207.097 577.253 205.573C576.755 204.05 576.506 202.395 576.506 200.607C576.506 198.85 576.784 197.209 577.341 195.686C577.897 194.162 578.674 192.844 579.67 191.73C580.666 190.588 581.867 189.694 583.273 189.05C584.68 188.405 586.247 188.083 587.976 188.083C589.792 188.083 591.345 188.391 592.634 189.006C593.923 189.592 595.065 190.515 596.062 191.774L593.688 194.631C593.19 194.045 592.502 193.518 591.623 193.049C590.744 192.551 589.543 192.302 588.02 192.302C587.141 192.302 586.335 192.507 585.603 192.917C584.87 193.327 584.24 193.898 583.713 194.631C583.215 195.363 582.819 196.228 582.526 197.224C582.263 198.22 582.131 199.304 582.131 200.476C582.131 201.647 582.248 202.746 582.482 203.771C582.746 204.768 583.127 205.646 583.625 206.408C584.123 207.17 584.709 207.771 585.383 208.21C586.086 208.649 586.892 208.869 587.8 208.869C589.118 208.869 590.217 208.664 591.096 208.254C592.004 207.814 592.839 207.287 593.601 206.672L595.578 209.528ZM613.947 188.083C615.646 188.083 617.185 188.42 618.562 189.094C619.938 189.738 621.11 190.632 622.077 191.774C623.044 192.917 623.791 194.25 624.318 195.773C624.846 197.297 625.109 198.938 625.109 200.695C625.109 202.453 624.831 204.108 624.274 205.661C623.718 207.185 622.927 208.518 621.901 209.66C620.905 210.773 619.704 211.652 618.298 212.297C616.921 212.912 615.383 213.22 613.684 213.22C611.955 213.22 610.373 212.897 608.938 212.253C607.531 211.608 606.33 210.715 605.334 209.572C604.367 208.43 603.62 207.097 603.093 205.573C602.565 204.05 602.302 202.395 602.302 200.607C602.302 198.82 602.58 197.15 603.137 195.598C603.723 194.045 604.514 192.727 605.51 191.643C606.535 190.529 607.766 189.665 609.201 189.05C610.637 188.405 612.219 188.083 613.947 188.083ZM613.596 209.045C614.475 209.045 615.266 208.84 615.969 208.43C616.701 207.99 617.316 207.404 617.814 206.672C618.342 205.91 618.752 205.017 619.045 203.991C619.367 202.966 619.528 201.867 619.528 200.695C619.528 199.523 619.382 198.425 619.089 197.399C618.825 196.374 618.444 195.48 617.946 194.719C617.478 193.928 616.892 193.298 616.188 192.829C615.485 192.36 614.694 192.126 613.815 192.126C612.937 192.126 612.131 192.346 611.398 192.785C610.666 193.225 610.036 193.825 609.509 194.587C609.011 195.319 608.615 196.198 608.322 197.224C608.059 198.22 607.927 199.304 607.927 200.476C607.927 201.647 608.044 202.761 608.278 203.815C608.542 204.841 608.923 205.734 609.421 206.496C609.919 207.258 610.505 207.873 611.179 208.342C611.882 208.811 612.688 209.045 613.596 209.045Z" fill="url(#paint1_linear_20_2)"/>
<path d="M318.027 198.608C317.409 197.909 316.953 197.046 316.66 196.021C316.367 194.995 316.221 193.962 316.221 192.92C316.221 191.65 316.392 190.584 316.733 189.722C317.091 188.859 317.547 188.159 318.101 187.622C318.654 187.085 319.264 186.702 319.932 186.475C320.615 186.23 321.283 186.108 321.934 186.108C322.731 186.108 323.455 186.247 324.106 186.523C324.774 186.8 325.27 187.166 325.596 187.622V181.03H328.574V200H325.767C325.734 199.723 325.701 199.447 325.669 199.17C325.653 198.877 325.628 198.608 325.596 198.364C325.547 198.576 325.4 198.787 325.156 198.999C324.928 199.211 324.627 199.406 324.253 199.585C323.895 199.748 323.488 199.878 323.032 199.976C322.576 200.073 322.104 200.122 321.616 200.122C320.965 200.122 320.322 200.008 319.688 199.78C319.069 199.552 318.516 199.162 318.027 198.608ZM319.346 193.14C319.346 193.791 319.427 194.401 319.59 194.971C319.753 195.524 319.972 196.012 320.249 196.436C320.526 196.859 320.859 197.192 321.25 197.437C321.657 197.681 322.096 197.803 322.568 197.803C323.073 197.803 323.521 197.681 323.911 197.437C324.318 197.176 324.66 196.834 324.937 196.411C325.213 195.988 325.425 195.492 325.571 194.922C325.718 194.352 325.791 193.742 325.791 193.091C325.791 192.44 325.71 191.829 325.547 191.26C325.4 190.69 325.181 190.194 324.888 189.771C324.611 189.347 324.269 189.014 323.862 188.77C323.472 188.509 323.024 188.379 322.52 188.379C322.015 188.379 321.567 188.509 321.177 188.77C320.786 189.014 320.452 189.355 320.176 189.795C319.915 190.234 319.712 190.739 319.565 191.309C319.419 191.878 319.346 192.489 319.346 193.14ZM338.511 186.084C339.618 186.084 340.594 186.312 341.44 186.768C342.287 187.207 342.979 187.801 343.516 188.55C344.069 189.282 344.46 190.137 344.688 191.113C344.932 192.074 344.98 193.075 344.834 194.116H335.264C335.264 194.637 335.361 195.117 335.557 195.557C335.752 195.996 336.012 196.379 336.338 196.704C336.68 197.013 337.078 197.257 337.534 197.437C338.006 197.616 338.511 197.705 339.048 197.705C339.227 197.705 339.447 197.689 339.707 197.656C339.984 197.607 340.269 197.534 340.562 197.437C340.871 197.323 341.172 197.184 341.465 197.021C341.774 196.859 342.043 196.663 342.271 196.436L343.345 198.071C342.808 198.739 342.181 199.243 341.465 199.585C340.749 199.927 339.837 200.098 338.73 200.098C337.835 200.098 336.997 199.919 336.216 199.561C335.435 199.186 334.767 198.682 334.214 198.047C333.66 197.412 333.221 196.672 332.896 195.825C332.57 194.979 332.407 194.067 332.407 193.091C332.407 192.131 332.57 191.227 332.896 190.381C333.221 189.518 333.652 188.77 334.189 188.135C334.743 187.5 335.394 187.004 336.143 186.646C336.891 186.271 337.681 186.084 338.511 186.084ZM342.1 191.968C342.1 191.528 342.018 191.097 341.855 190.674C341.693 190.251 341.465 189.868 341.172 189.526C340.895 189.185 340.553 188.916 340.146 188.721C339.74 188.509 339.3 188.395 338.828 188.379C338.324 188.379 337.86 188.477 337.437 188.672C337.013 188.867 336.647 189.128 336.338 189.453C336.029 189.779 335.785 190.169 335.605 190.625C335.443 191.064 335.361 191.512 335.361 191.968H342.1Z" fill="#0087E9"/>
<path d="M50.6423 178.058C52.2423 194.458 68.1423 200.058 74.6423 200.058L87.1423 198.558L113.142 194.558C102.976 193.558 81.0423 191.058 74.6423 189.058C68.2423 187.058 66.3089 181.558 66.1423 179.058C66.9756 160.391 68.7423 122.058 69.1423 118.058C69.5423 114.058 72.9756 113.058 74.6423 113.058C82.6423 113.058 106.142 114.058 118.642 113.058C141.142 111.258 145.746 92.5578 145.642 85.0578C145.476 73.0578 145.042 47.8578 144.642 43.0578C144.242 38.2578 148.476 37.0578 150.642 37.0578C165.976 35.8911 198.942 33.4578 208.142 33.0578C217.342 32.6578 218.642 37.0578 220.142 40.0578C221.265 42.304 222.864 52.0578 225.142 72.5578C225.491 75.7008 229.642 55.0578 229.642 41.5578C229.642 25.5528 212.142 19.4847 208.642 19.0578C203.642 18.4481 164.142 15.5578 148.142 16.0578C129.642 16.6359 120.617 35.8911 120.617 43.0578C120.284 55.2245 120.642 79.37 120.642 83.0578C120.642 87.0578 117.976 88.2245 116.142 88.5578C113.142 88.5578 74.6423 88.2637 72.1423 88.5578C56.1422 90.4402 45.6422 108.058 47.1423 115.558C47.6423 129.558 49.0423 161.658 50.6423 178.058Z" fill="#002941" stroke="#002941" stroke-width="0.5"/>
<path d="M304.142 135.058C302.623 118.65 294.142 111.558 284.142 112.058L270.642 113.558L263.642 114.558C273.804 115.607 281.25 116.526 287.64 118.558C294.03 120.589 293.862 132.563 293.642 137.058C292.642 157.558 290.642 184.058 290.142 190.558C289.834 194.566 285.642 198.558 282.115 198.315C274.134 197.767 252.147 196.119 239.642 197.058C217.134 198.748 211.575 218.057 211.642 225.558C211.75 237.558 211.774 259.741 211.774 264.558C211.774 267.558 209.142 269.058 207.142 269.558C193.642 270.058 154.079 271.058 148.642 270.602C143.642 270.183 142.142 261.558 141.642 255.058C141.45 252.554 138.642 222.058 141.642 200.558C142.817 192.139 120.342 256.621 121.642 270.058C123.142 285.558 136.642 293.558 145.142 294.558C147.625 294.85 195.771 294.979 211.774 294.558C230.276 294.07 236.598 273.058 237.143 270.661C238.76 263.558 236.624 231.746 236.642 228.058C236.662 224.058 238.307 221.382 240.142 221.058C246.142 219.997 277.142 219.38 285.642 218.558C301.142 217.058 309.642 199.558 308.642 193.058C308.211 179.056 305.662 151.465 304.142 135.058Z" fill="url(#paint2_linear_20_2)" stroke="white" stroke-width="0.5"/>
<g filter="url(#filter1_d_20_2)">
<path d="M151.642 177.558C156.642 171.058 174.142 155.058 186.642 150.558C180.642 150.558 160.642 157.558 148.142 167.558C136.115 177.18 127.142 198.558 124.642 210.558C122.642 220.158 121.976 253.391 121.642 268.058C127.642 235.058 138.642 209.058 140.642 203.558C141.369 201.558 146.038 184.844 151.642 177.558Z" fill="url(#paint3_linear_20_2)"/>
</g>
<defs>
<filter id="filter0_d_20_2" x="0" y="0" width="746" height="327" filterUnits="userSpaceOnUse" color-interpolation-filters="sRGB">
<feFlood flood-opacity="0" result="BackgroundImageFix"/>
<feColorMatrix in="SourceAlpha" type="matrix" values="0 0 0 0 0 0 0 0 0 0 0 0 0 0 0 0 0 0 127 0" result="hardAlpha"/>
<feOffset dy="4"/>
<feGaussianBlur stdDeviation="2"/>
<feComposite in2="hardAlpha" operator="out"/>
<feColorMatrix type="matrix" values="0 0 0 0 0 0 0 0 0 0 0 0 0 0 0 0 0 0 0.25 0"/>
<feBlend mode="normal" in2="BackgroundImageFix" result="effect1_dropShadow_20_2"/>
<feBlend mode="normal" in="SourceGraphic" in2="effect1_dropShadow_20_2" result="shape"/>
</filter>
<filter id="filter1_d_20_2" x="117.642" y="150.558" width="73" height="125.5" filterUnits="userSpaceOnUse" color-interpolation-filters="sRGB">
<feFlood flood-opacity="0" result="BackgroundImageFix"/>
<feColorMatrix in="SourceAlpha" type="matrix" values="0 0 0 0 0 0 0 0 0 0 0 0 0 0 0 0 0 0 127 0" result="hardAlpha"/>
<feOffset dy="4"/>
<feGaussianBlur stdDeviation="2"/>
<feComposite in2="hardAlpha" operator="out"/>
<feColorMatrix type="matrix" values="0 0 0 0 0 0 0 0 0 0 0 0 0 0 0 0 0 0 0.25 0"/>
<feBlend mode="normal" in2="BackgroundImageFix" result="effect1_dropShadow_20_2"/>
<feBlend mode="normal" in="SourceGraphic" in2="effect1_dropShadow_20_2" result="shape"/>
</filter>
<linearGradient id="paint0_linear_20_2" x1="473.5" y1="120" x2="473.5" y2="159" gradientUnits="userSpaceOnUse">
<stop/>
<stop offset="1" stop-color="#002941"/>
</linearGradient>
<linearGradient id="paint1_linear_20_2" x1="494" y1="166" x2="494" y2="205" gradientUnits="userSpaceOnUse">
<stop/>
<stop offset="1" stop-color="#002941"/>
</linearGradient>
<linearGradient id="paint2_linear_20_2" x1="211.5" y1="294" x2="215.741" y2="111.693" gradientUnits="userSpaceOnUse">
<stop stop-color="#007BA2"/>
<stop offset="1" stop-color="#002941"/>
</linearGradient>
<linearGradient id="paint3_linear_20_2" x1="194.858" y1="149.942" x2="154.142" y2="268.058" gradientUnits="userSpaceOnUse">
<stop offset="0.9999" stop-color="#00A3FF"/>
<stop offset="1" stop-color="#36B7FF"/>
</linearGradient>
</defs>
</svg>
