<svg width="29" height="32" viewBox="0 0 29 32" fill="none" xmlns="http://www.w3.org/2000/svg">
<path d="M7.09239 16.3986V23.7714C7.09239 28.3086 10.9105 32 15.6033 32C20.2961 32 24.1141 28.3086 24.1141 23.7714V17.7413C26.5312 17.3097 28.3696 15.2603 28.3696 12.8C28.3696 10.0274 26.0362 7.77143 23.1685 7.77143C20.3008 7.77143 17.9674 10.0274 17.9674 12.8C17.9674 15.2603 19.8057 17.3097 22.2228 17.7413V23.7714C22.2228 27.3006 19.2535 30.1714 15.6033 30.1714C11.953 30.1714 8.9837 27.3006 8.9837 23.7714V16.3986C12.971 15.9438 16.0761 12.661 16.0761 8.68571V0H10.4022V1.82857H14.1848V8.68571C14.1848 11.9625 11.4273 14.6286 8.03804 14.6286C4.64883 14.6286 1.8913 11.9625 1.8913 8.68571V1.82857H5.67391V0H0V8.68571C0 12.661 3.10505 15.9438 7.09239 16.3986ZM19.8587 12.8C19.8587 11.0354 21.3434 9.6 23.1685 9.6C24.9936 9.6 26.4783 11.0354 26.4783 12.8C26.4783 14.5646 24.9936 16 23.1685 16C21.3434 16 19.8587 14.5646 19.8587 12.8Z" fill="#AFB4B8"/>
</svg>
