<svg width="25" height="29" viewBox="0 0 25 29" fill="none" xmlns="http://www.w3.org/2000/svg">
<path fill-rule="evenodd" clip-rule="evenodd" d="M23.5 12.0455C23.5 20.6364 12.25 28 12.25 28C12.25 28 1 20.6364 1 12.0455C1 9.11602 2.18526 6.30656 4.29505 4.23514C6.40483 2.16371 9.26631 1 12.25 1C15.2337 1 18.0952 2.16371 20.205 4.23514C22.3147 6.30656 23.5 9.11602 23.5 12.0455Z" stroke="#AFB4B8" stroke-width="2" stroke-linecap="round" stroke-linejoin="round"/>
<path d="M12.25 15.7272C14.3211 15.7272 16 14.0788 16 12.0453C16 10.0119 14.3211 8.36353 12.25 8.36353C10.1789 8.36353 8.5 10.0119 8.5 12.0453C8.5 14.0788 10.1789 15.7272 12.25 15.7272Z" stroke="#AFB4B8" stroke-width="2" stroke-linecap="round" stroke-linejoin="round"/>
</svg>
