<svg width="29" height="32" viewBox="0 0 29 32" fill="none" xmlns="http://www.w3.org/2000/svg">
<path d="M3.76205 22.9565H8.01749V27.7565C8.01749 30.1217 9.68266 32 11.7795 32H16.59C18.6869 32 20.3521 30.1217 20.3521 27.7565V22.9565H24.6075C26.7044 22.9565 28.3696 21.0783 28.3696 18.713V13.287C28.3696 10.9217 26.7044 9.04348 24.6075 9.04348H20.3521V4.24348C20.3521 1.87826 18.6869 0 16.59 0H11.7795C9.68266 0 8.01749 1.87826 8.01749 4.24348V9.04348H3.76205C1.66517 9.04348 0 10.9217 0 13.287V18.713C0 21.0783 1.66517 22.9565 3.76205 22.9565ZM2.46692 13.287C2.46692 12.4522 3.02198 11.8261 3.76205 11.8261H9.25095C9.92935 11.8261 10.4844 11.2 10.4844 10.4348V4.24348C10.4844 3.4087 11.0395 2.78261 11.7795 2.78261H16.59C17.3301 2.78261 17.8852 3.4087 17.8852 4.24348V10.4348C17.8852 11.2 18.4402 11.8261 19.1186 11.8261H24.6075C25.3476 11.8261 25.9026 12.4522 25.9026 13.287V18.713C25.9026 19.5478 25.3476 20.1739 24.6075 20.1739H19.1186C18.4402 20.1739 17.8852 20.8 17.8852 21.5652V27.7565C17.8852 28.5913 17.3301 29.2174 16.59 29.2174H11.7795C11.0395 29.2174 10.4844 28.5913 10.4844 27.7565V21.5652C10.4844 20.8 9.92935 20.1739 9.25095 20.1739H3.76205C3.02198 20.1739 2.46692 19.5478 2.46692 18.713V13.287Z" fill="#AFB4B8"/>
</svg>
