<svg xmlns="http://www.w3.org/2000/svg" viewBox="0 0 500 500"><g id="freepik--background-complete--inject-5"><path d="M404.79,65.69l13.13-.28,6.66-.12c2.22,0,4.46,0,6.69-.05h.45v.45l0,11.19v.5h-.5L418,77.31c-4.41,0-8.82-.11-13.24-.16h-.27v-.26c0-1.9.09-3.79.13-5.66Zm0,0,.14,5.65c.05,1.86.12,3.7.14,5.54l-.28-.28c4.42,0,8.83-.16,13.24-.16l13.24-.06-.5.5.06-11.19.44.44c-2.18,0-4.35,0-6.54,0L418.15,66Z" style="fill:#ebebeb"></path><path d="M419.56,51.58l13.13-.28,6.66-.12c2.23,0,4.46,0,6.69,0h.45v.45l.05,11.19v.5H446L432.8,63.2c-4.41,0-8.82-.11-13.24-.16h-.27v-.27c0-1.9.09-3.79.13-5.66Zm0,0,.15,5.65c0,1.86.11,3.7.13,5.54l-.28-.28c4.42-.05,8.83-.16,13.24-.16L446,62.27l-.49.5.05-11.19L446,52c-2.18,0-4.35,0-6.54-.05l-6.58-.12Z" style="fill:#ebebeb"></path><path d="M390,51.58l13.13-.28,6.66-.12c2.22,0,4.46,0,6.69,0h.44v.45L417,62.77v.5h-.5l-13.24-.06c-4.41,0-8.83-.11-13.24-.16h-.27v-.27c0-1.9.08-3.79.13-5.66Zm0,0,.14,5.65c0,1.86.11,3.7.13,5.54l-.27-.28c4.41-.05,8.83-.16,13.24-.16l13.24-.06-.5.5.06-11.19.44.44c-2.18,0-4.36,0-6.54-.05l-6.58-.12Z" style="fill:#ebebeb"></path><path d="M68.73,51.58l13.12-.28,6.66-.12c2.23,0,4.47,0,6.7,0h.44v.45l.06,11.19v.5h-.5L82,63.2c-4.42,0-8.83-.11-13.24-.16h-.28v-.27c0-1.9.09-3.79.13-5.66Zm0,0,.14,5.65c0,1.86.11,3.7.13,5.54l-.27-.28c4.41-.05,8.82-.16,13.24-.16l13.24-.06-.5.5.05-11.19.45.44C93,52,90.85,52,88.66,52l-6.58-.12Z" style="fill:#ebebeb"></path><path d="M68.73,350.75l13.12-.28,6.66-.11c2.23-.05,4.47,0,6.7-.06h.44v.45l.06,11.19v.5h-.5L82,362.37c-4.42,0-8.83-.11-13.24-.16h-.28v-.27c0-1.9.09-3.79.13-5.66Zm0,0,.14,5.65c0,1.86.11,3.71.13,5.54l-.27-.28c4.41-.05,8.82-.15,13.24-.16l13.24-.06-.5.5.05-11.19.45.44c-2.18,0-4.36,0-6.55-.05L82.08,351Z" style="fill:#ebebeb"></path><path d="M54,336.64l13.12-.28,6.66-.11c2.23-.05,4.46,0,6.7-.06h.44v.45l.06,11.19v.5h-.5l-13.24-.07c-4.42,0-8.83-.11-13.24-.16h-.28v-.27c0-1.9.09-3.79.13-5.66Zm0,0,.14,5.65c0,1.86.11,3.71.13,5.54l-.27-.28c4.41-.05,8.82-.15,13.24-.16l13.24-.06-.5.5,0-11.19.45.44c-2.19,0-4.36,0-6.55-.05l-6.58-.11Z" style="fill:#ebebeb"></path><path d="M419.56,350.74l13.13-.28,6.66-.12c2.23,0,4.46,0,6.69,0h.45v.45l.05,11.19v.5H446l-13.24-.06c-4.41,0-8.82-.11-13.24-.16h-.27v-.27c0-1.9.09-3.79.13-5.66Zm0,0,.15,5.65c0,1.86.11,3.7.13,5.54l-.28-.28c4.42,0,8.83-.16,13.24-.16l13.24-.06-.49.5.05-11.19.44.44c-2.18,0-4.35,0-6.54-.05l-6.58-.12Z" style="fill:#ebebeb"></path><path d="M341,171.66l-13.12.28-6.66.12c-2.23,0-4.47,0-6.7.05h-.44v-.45L314,160.47V160h.5l13.24.06c4.41,0,8.83.11,13.24.16h.28v.26c0,1.9-.08,3.79-.13,5.66Zm0,0-.14-5.65c-.05-1.86-.11-3.7-.13-5.54l.27.28c-4.41.05-8.83.16-13.24.16l-13.24.06.5-.5,0,11.19-.45-.44c2.18,0,4.36,0,6.55.05l6.58.12Z" style="fill:#ebebeb"></path><path d="M148.15,250.25l-13.13.27-6.66.12c-2.22,0-4.46,0-6.69.05h-.45v-.45l0-11.18v-.51h.51l13.24.06c4.41,0,8.82.11,13.24.16h.27v.27c0,1.89-.09,3.78-.13,5.65Zm0,0-.14-5.66c0-1.86-.12-3.7-.14-5.53l.28.27c-4.42,0-8.83.16-13.24.16l-13.24.06.5-.49-.06,11.18-.44-.44c2.18,0,4.35,0,6.54,0l6.58.12Z" style="fill:#ebebeb"></path><path d="M326.24,185.77l-13.13.28-6.66.12c-2.22,0-4.46,0-6.69.05h-.44v-.45l-.05-11.19v-.5h.5l13.24.06c4.41,0,8.83.11,13.24.16h.27v.27c0,1.9-.08,3.79-.13,5.66Zm0,0-.14-5.65c-.05-1.86-.12-3.7-.13-5.54l.27.28c-4.41,0-8.83.16-13.24.16l-13.24.06.5-.5-.06,11.19-.44-.44c2.18,0,4.36,0,6.54,0l6.58.12Z" style="fill:#ebebeb"></path><rect x="376.06" y="62.16" width="55.45" height="67.26" style="fill:#ebebeb"></rect><rect x="382.39" y="68.3" width="42.78" height="54.98" style="fill:#fff"></rect><rect x="382.39" y="68.3" width="1.67" height="54.98" style="fill:#c7c7c7"></rect><rect x="431.51" y="62.16" width="1.67" height="67.26" style="fill:#c7c7c7"></rect><rect x="404.74" y="81.01" width="10.09" height="30.05" transform="translate(819.56 192.07) rotate(180)" style="fill:#ebebeb"></rect><path d="M419.72,91.1H391.83V75.38h27.89Zm-26.89-1h25.89V76.38H392.83Z" style="fill:#ebebeb"></path><rect x="376.06" y="227.9" width="55.45" height="67.26" style="fill:#ebebeb"></rect><rect x="382.39" y="234.04" width="42.78" height="54.98" style="fill:#fff"></rect><rect x="382.39" y="234.04" width="1.67" height="54.98" style="fill:#c7c7c7"></rect><rect x="431.51" y="227.9" width="1.67" height="67.26" style="fill:#c7c7c7"></rect><rect x="396.73" y="246.75" width="10.09" height="30.05" style="fill:#ebebeb"></rect><path d="M419.72,256.84H391.83V241.12h27.89Zm-26.89-1h25.89V242.12H392.83Z" style="fill:#ebebeb"></path><rect x="376.06" y="145.33" width="55.45" height="67.26" style="fill:#ebebeb"></rect><rect x="382.39" y="151.47" width="42.78" height="54.98" style="fill:#fff"></rect><rect x="382.39" y="151.47" width="1.67" height="54.98" style="fill:#c7c7c7"></rect><rect x="431.51" y="145.33" width="1.67" height="67.26" style="fill:#c7c7c7"></rect><rect x="399.64" y="165.68" width="8.64" height="21.85" style="fill:#ebebeb"></rect><path d="M417.88,194.52H393.67V178.46h24.21Zm-23.21-1h22.21V179.46H394.67Z" style="fill:#dbdbdb"></path><rect x="77.48" width="1" height="101.82" style="fill:#c7c7c7"></rect><polygon points="111.62 134.24 108.91 140.19 47.05 140.19 44.35 134.24 70.69 116.01 85.28 116.01 111.62 134.24" style="fill:#ebebeb"></polygon><polygon points="87.11 98.45 85.28 116.01 70.69 116.01 68.86 98.45 87.11 98.45" style="fill:#dbdbdb"></polygon><polygon points="111.61 134.24 108.91 140.19 47.05 140.19 44.35 134.24 111.61 134.24" style="fill:#dbdbdb"></polygon><rect x="149.52" width="1" height="57.57" style="fill:#c7c7c7"></rect><polygon points="183.65 89.98 180.94 95.93 119.08 95.93 116.39 89.98 142.72 71.76 157.31 71.76 183.65 89.98" style="fill:#ebebeb"></polygon><polygon points="159.14 54.19 157.31 71.76 142.72 71.76 140.89 54.19 159.14 54.19" style="fill:#dbdbdb"></polygon><polygon points="183.65 89.99 180.94 95.94 119.08 95.94 116.38 89.99 183.65 89.99" style="fill:#dbdbdb"></polygon></g><g id="freepik--Device--inject-5"><path d="M276.82,70.69H107.76a17.26,17.26,0,0,0-17.1,17.42v348a17.27,17.27,0,0,0,17.1,17.42H276.82a17.29,17.29,0,0,0,17.12-17.42v-348A17.28,17.28,0,0,0,276.82,70.69Zm6.42,354.67c0,9.16-6.86,16.57-15.32,16.57H116.68c-8.48,0-15.34-7.41-15.34-16.57V101.3c0-18.66,6.86-19.57,15.34-19.57H147c1.76,0,3.2,2,3.2,4.48v1.07c0,5.81,3.18,5.83,7.08,5.83h70.06c3.94,0,7.1,0,7.1-5.83V86.21c0-2.48,1.42-4.48,3.21-4.48h30.29c8.46,0,15.32,2.48,15.32,19.57Z" style="fill:#37474f"></path><path d="M283.25,101.58V425.64c0,9.16-6.86,16.57-15.32,16.57H116.69c-8.48,0-15.34-7.41-15.34-16.57V101.58c0-18.66,6.86-19.57,15.34-19.57H147c1.76,0,3.2,2,3.2,4.48v1.07c0,5.81,3.18,5.83,7.08,5.83h70.06c3.94,0,7.1,0,7.1-5.83V86.49c0-2.48,1.42-4.48,3.21-4.48h30.29C276.39,82,283.25,84.49,283.25,101.58Z" style="fill:#fff"></path><path d="M283.25,142.93V425.64c0,9.16-6.86,16.57-15.32,16.57H116.69c-8.48,0-15.34-7.41-15.34-16.57V213.54c39.82-5.11,79.81,53,116.85,35.9,33.92-15.7,32.39-65.36,45-88A42.92,42.92,0,0,1,283.25,142.93Z" style="fill:#4C81F6;opacity:0.1"></path><path d="M283.25,329.08v96.56c0,9.16-6.86,16.57-15.32,16.57H116.69c-8.48,0-15.34-7.41-15.34-16.57V299.4c21.6,37.74,45.76,48.61,67.78,43,25.12-6.37,61.07-38.9,94.9-27.6A39.14,39.14,0,0,1,283.25,329.08Z" style="fill:#4C81F6;opacity:0.2"></path><path d="M201.85,85.85H182.74a1.18,1.18,0,0,1-1.18-1.18h0a1.18,1.18,0,0,1,1.18-1.18h19.11A1.18,1.18,0,0,1,203,84.67h0A1.18,1.18,0,0,1,201.85,85.85Z" style="fill:#263238"></path><g id="freepik--u5Zjqx--inject-5"><path d="M141.75,89l-.3.29-.16.16a4,4,0,0,0-5.65,0l-.15-.17c-.1-.1-.2-.19-.29-.29h0l0,0,.37-.33a4.46,4.46,0,0,1,.86-.54,4.18,4.18,0,0,1,1.13-.38,5.58,5.58,0,0,1,.57-.08h.49l.39,0a4.64,4.64,0,0,1,1,.25,4.58,4.58,0,0,1,.71.33,5.06,5.06,0,0,1,.67.47l.31.28Z" style="fill:#263238"></path><path d="M136.57,90.38l-.46-.46A3.31,3.31,0,0,1,138,89a3.26,3.26,0,0,1,2.83.94l-.46.46a2.61,2.61,0,0,0-1.89-.78A2.65,2.65,0,0,0,136.57,90.38Z" style="fill:#263238"></path><path d="M139.9,90.84l-.46.46a1.4,1.4,0,0,0-1-.4,1.36,1.36,0,0,0-1,.41l-.46-.46A2,2,0,0,1,139.9,90.84Z" style="fill:#263238"></path><path d="M138.88,91.72a.41.41,0,0,1-.41.42.42.42,0,0,1-.42-.42.41.41,0,0,1,.42-.41A.41.41,0,0,1,138.88,91.72Z" style="fill:#263238"></path></g><path d="M113.2,89.89a1.21,1.21,0,1,1,1.21,1.21A1.2,1.2,0,0,1,113.2,89.89Z" style="fill:#263238"></path><path d="M117,89.89a1.21,1.21,0,1,1,1.21,1.21A1.2,1.2,0,0,1,117,89.89Z" style="fill:#263238"></path><path d="M120.8,89.89A1.21,1.21,0,1,1,122,91.1,1.2,1.2,0,0,1,120.8,89.89Z" style="fill:#263238"></path><path d="M124.59,89.89a1.21,1.21,0,1,1,1.21,1.21A1.2,1.2,0,0,1,124.59,89.89Z" style="fill:#263238"></path><path d="M128.39,89.89a1.21,1.21,0,1,1,1.21,1.21A1.2,1.2,0,0,1,128.39,89.89Z" style="fill:#263238"></path><path d="M269.6,92.52h-9.82V88h9.82Zm-9.32-.5h8.82V88.48h-8.82Z" style="fill:#263238"></path><rect x="260.6" y="88.75" width="6.33" height="3" style="fill:#263238"></rect><rect x="269.6" y="89.03" width="0.87" height="2.43" style="fill:#263238"></rect><path d="M163.08,165v2.42H149.81V165h5.56V148.2a4.48,4.48,0,0,1-1.08,1,15,15,0,0,1-1.68,1,13.08,13.08,0,0,1-1.9.78,5.65,5.65,0,0,1-1.72.31v-2.58a4.69,4.69,0,0,0,2-.51,15.07,15.07,0,0,0,2-1.17,18.39,18.39,0,0,0,1.63-1.26,3.35,3.35,0,0,0,.74-.78h2.74V165Z" style="fill:#263238"></path><path d="M185.73,155.91a14.74,14.74,0,0,1-.74,4.75,11.86,11.86,0,0,1-2.06,3.76,9.13,9.13,0,0,1-3.11,2.46,9.13,9.13,0,0,1-7.82,0,9.13,9.13,0,0,1-3.11-2.46,11.86,11.86,0,0,1-2.06-3.76,15.65,15.65,0,0,1,0-9.51,11.91,11.91,0,0,1,2.06-3.75,9.46,9.46,0,0,1,3.11-2.49,8.94,8.94,0,0,1,7.82,0,9.46,9.46,0,0,1,3.11,2.49,11.91,11.91,0,0,1,2.06,3.75A14.8,14.8,0,0,1,185.73,155.91Zm-2.7,0a12.83,12.83,0,0,0-.53-3.84,9.46,9.46,0,0,0-1.46-2.95,6.87,6.87,0,0,0-2.25-1.92,6.5,6.5,0,0,0-5.79,0,6.67,6.67,0,0,0-2.25,1.92,9.27,9.27,0,0,0-1.47,2.95,14.14,14.14,0,0,0,0,7.67,9.22,9.22,0,0,0,1.47,3,6.37,6.37,0,0,0,2.25,1.89,6.59,6.59,0,0,0,5.79,0A6.55,6.55,0,0,0,181,162.7a9.41,9.41,0,0,0,1.46-3A12.71,12.71,0,0,0,183,155.91Z" style="fill:#263238"></path><path d="M190.43,150.94v-3.83h2.27v3.83Zm0,16.43v-3.83h2.27v3.83Z" style="fill:#263238"></path><path d="M208.66,158.14a6.49,6.49,0,0,1,4.13,2.35,7.27,7.27,0,0,1,1.54,4.73,8,8,0,0,1-.64,3.23,7,7,0,0,1-1.84,2.5,8.58,8.58,0,0,1-2.86,1.61,11.34,11.34,0,0,1-3.69.56,10.83,10.83,0,0,1-5.21-1.19,7.89,7.89,0,0,1-3.36-3.31l1.84-1.68a6.29,6.29,0,0,0,2.5,2.74,8,8,0,0,0,4.23,1,6.91,6.91,0,0,0,4.61-1.43,5.06,5.06,0,0,0,1.68-4.09,5.38,5.38,0,0,0-1.76-4.26,7.38,7.38,0,0,0-5.08-1.57h-1v-2.27h1.06a6.83,6.83,0,0,0,4.61-1.39,4.55,4.55,0,0,0,1.61-3.62,4.84,4.84,0,0,0-.43-2.07,4.32,4.32,0,0,0-1.2-1.51,5.47,5.47,0,0,0-1.8-.92,8,8,0,0,0-2.25-.31,7.61,7.61,0,0,0-3.93,1,6.32,6.32,0,0,0-2.56,2.76l-1.72-1.65a6.16,6.16,0,0,1,1.33-1.85,8.45,8.45,0,0,1,1.95-1.43,10.47,10.47,0,0,1,2.43-.92,11.36,11.36,0,0,1,2.74-.33,10.48,10.48,0,0,1,3.3.5,8,8,0,0,1,2.61,1.43,6.55,6.55,0,0,1,1.7,2.21,6.72,6.72,0,0,1,.6,2.86,7.06,7.06,0,0,1-.35,2.25,5.9,5.9,0,0,1-1,1.92,5.81,5.81,0,0,1-1.62,1.41A5.68,5.68,0,0,1,208.66,158.14Z" style="fill:#263238"></path><path d="M230.06,172.34v-7H217V163l13.89-18h1.8V163h3.45v2.43h-3.45v7ZM219.85,163h10.49V149.22Z" style="fill:#263238"></path><path d="M158.92,179.36H156v7.38h-.8v-7.38h-2.88v-.7h6.56Z" style="fill:#263238"></path><path d="M160.6,186.85a1.68,1.68,0,0,1-1.44-.64,3.27,3.27,0,0,1-.47-1.92v-3.48h.77v3.35q0,2,1.38,2a2.19,2.19,0,0,0,.67-.11,2.4,2.4,0,0,0,.61-.33,2.74,2.74,0,0,0,.5-.52,2.39,2.39,0,0,0,.36-.67v-3.73h.77v4.93c0,.21.1.32.28.32v.68a1,1,0,0,1-.22,0h-.12a.6.6,0,0,1-.45-.19.69.69,0,0,1-.17-.49v-.68a2.82,2.82,0,0,1-2.47,1.45Z" style="fill:#263238"></path><path d="M168.07,186.85a2.91,2.91,0,0,1-1.19-.24,3,3,0,0,1-.94-.67,3.07,3.07,0,0,1-.62-1,3.15,3.15,0,0,1-.22-1.19,3.1,3.1,0,0,1,.22-1.18,3.13,3.13,0,0,1,.61-1,3.32,3.32,0,0,1,.94-.66,2.94,2.94,0,0,1,1.19-.24,2.91,2.91,0,0,1,1.19.24,2.84,2.84,0,0,1,.92.67,3.13,3.13,0,0,1,.61,1,3.19,3.19,0,0,1,.21,1.16v.18a.35.35,0,0,1,0,.12h-5.07a2.38,2.38,0,0,0,.22.89,2.29,2.29,0,0,0,.48.7,2.27,2.27,0,0,0,.68.46,2,2,0,0,0,.81.16,1.87,1.87,0,0,0,.57-.08,2.25,2.25,0,0,0,.53-.21,2,2,0,0,0,.43-.34,1.25,1.25,0,0,0,.29-.44l.68.18a1.94,1.94,0,0,1-.39.6,2.65,2.65,0,0,1-.58.47,3.21,3.21,0,0,1-.73.31A3.25,3.25,0,0,1,168.07,186.85Zm2.18-3.39a2.23,2.23,0,0,0-.22-.87,2.2,2.2,0,0,0-.48-.68,2.05,2.05,0,0,0-.67-.44,2,2,0,0,0-.81-.16,2.07,2.07,0,0,0-.82.16,2.21,2.21,0,0,0-.68.44,2.28,2.28,0,0,0-.47.69,2.93,2.93,0,0,0-.21.86Z" style="fill:#263238"></path><path d="M174.16,186.85a4.21,4.21,0,0,1-1.36-.22,3.4,3.4,0,0,1-1.13-.66l.35-.53a3.67,3.67,0,0,0,1,.62,3.08,3.08,0,0,0,1.11.2,1.93,1.93,0,0,0,1.14-.29.93.93,0,0,0,.43-.82.7.7,0,0,0-.12-.42.86.86,0,0,0-.33-.29,2.72,2.72,0,0,0-.56-.22c-.22-.07-.48-.13-.78-.2s-.64-.17-.89-.25a2.56,2.56,0,0,1-.62-.29,1,1,0,0,1-.36-.39,1.25,1.25,0,0,1-.12-.58,1.67,1.67,0,0,1,.18-.79,1.43,1.43,0,0,1,.47-.56,2.23,2.23,0,0,1,.71-.34,3.37,3.37,0,0,1,.86-.11,3.3,3.3,0,0,1,1.24.22,2.43,2.43,0,0,1,.9.59l-.38.45a2,2,0,0,0-.8-.51,2.7,2.7,0,0,0-1-.17,2.49,2.49,0,0,0-.57.06,1.29,1.29,0,0,0-.46.2,1,1,0,0,0-.32.35,1.07,1.07,0,0,0-.11.49.87.87,0,0,0,.08.39.63.63,0,0,0,.26.25,2,2,0,0,0,.46.2l.68.18c.38.09.71.18,1,.27a3,3,0,0,1,.72.32,1.23,1.23,0,0,1,.44.44,1.29,1.29,0,0,1,.15.64,1.56,1.56,0,0,1-.63,1.3A2.75,2.75,0,0,1,174.16,186.85Z" style="fill:#263238"></path><path d="M180.17,186.85a2.57,2.57,0,0,1-1.14-.25,2.89,2.89,0,0,1-.9-.68,3.3,3.3,0,0,1-.8-2.13,3.39,3.39,0,0,1,.21-1.19,3.25,3.25,0,0,1,.56-1A2.81,2.81,0,0,1,179,181a2.44,2.44,0,0,1,1.08-.24,2.37,2.37,0,0,1,1.34.39,3,3,0,0,1,.91,1v-3.62h.77v7.31c0,.21.09.32.27.32v.68l-.27,0a.71.71,0,0,1-.48-.17.57.57,0,0,1-.2-.43v-.58a2.57,2.57,0,0,1-1,.92A2.48,2.48,0,0,1,180.17,186.85Zm.17-.68a2,2,0,0,0,.61-.11,2.37,2.37,0,0,0,.61-.32,1.91,1.91,0,0,0,.48-.46,1.3,1.3,0,0,0,.25-.58v-1.83a2,2,0,0,0-.33-.57,2.84,2.84,0,0,0-.5-.48,2.66,2.66,0,0,0-.6-.32,2,2,0,0,0-.62-.11,1.81,1.81,0,0,0-.87.21,1.92,1.92,0,0,0-.66.54,2.38,2.38,0,0,0-.43.76,2.73,2.73,0,0,0-.15.89,2.48,2.48,0,0,0,.64,1.67,2.24,2.24,0,0,0,.7.52A2,2,0,0,0,180.34,186.17Z" style="fill:#263238"></path><path d="M186.3,186.85a1.92,1.92,0,0,1-.77-.14,1.86,1.86,0,0,1-.63-.39,1.77,1.77,0,0,1-.42-.59,1.89,1.89,0,0,1-.14-.72,1.48,1.48,0,0,1,.18-.72,1.72,1.72,0,0,1,.51-.57,2.51,2.51,0,0,1,.79-.37,3.85,3.85,0,0,1,1-.13,5.82,5.82,0,0,1,.92.08,4.32,4.32,0,0,1,.83.23V183a1.75,1.75,0,0,0-.44-1.25,1.63,1.63,0,0,0-1.23-.46,2.65,2.65,0,0,0-.94.18,4.53,4.53,0,0,0-1,.52l-.28-.51a4.05,4.05,0,0,1,2.23-.77,2.44,2.44,0,0,1,1.76.62,2.34,2.34,0,0,1,.63,1.73v2.68c0,.21.1.32.29.32v.68l-.3,0a.67.67,0,0,1-.46-.14.53.53,0,0,1-.17-.41l0-.47a2.59,2.59,0,0,1-1,.82A3.16,3.16,0,0,1,186.3,186.85Zm.19-.59a2.57,2.57,0,0,0,1.11-.23,1.89,1.89,0,0,0,.77-.6,1.07,1.07,0,0,0,.15-.22.63.63,0,0,0,0-.22v-1a5.61,5.61,0,0,0-.8-.23,4.8,4.8,0,0,0-.85-.08,2.4,2.4,0,0,0-1.33.34,1,1,0,0,0-.51.9,1.27,1.27,0,0,0,.1.52,1.49,1.49,0,0,0,.3.41,1.28,1.28,0,0,0,.45.28A1.47,1.47,0,0,0,186.49,186.26Z" style="fill:#263238"></path><path d="M191.21,188.56l.18,0h.16a.76.76,0,0,0,.33-.05.63.63,0,0,0,.23-.25,4.44,4.44,0,0,0,.26-.56c.09-.24.23-.57.4-1l-2.58-5.93H191l2.2,5.21,2-5.21H196l-3.08,7.65a1.34,1.34,0,0,1-.41.57,1.15,1.15,0,0,1-.79.25h-.22l-.25,0Z" style="fill:#263238"></path><path d="M196.62,187.66l.19-.95h-.26v-1.09h.75v1.09l-.28.95Z" style="fill:#263238"></path><path d="M207.47,184.08a2.78,2.78,0,0,1-.22,1.08,2.93,2.93,0,0,1-.61.89,3.1,3.1,0,0,1-.91.59,3,3,0,0,1-1.13.21,2.78,2.78,0,0,1-1.17-.23,2.46,2.46,0,0,1-.92-.67,3.19,3.19,0,0,1-.6-1.06,4.46,4.46,0,0,1-.21-1.42,9.63,9.63,0,0,1,.21-2.14,5.14,5.14,0,0,1,.61-1.53,2.59,2.59,0,0,1,.94-.9,2.48,2.48,0,0,1,1.22-.3,2.6,2.6,0,0,1,1.44.4,2.53,2.53,0,0,1,1,1.1l-.5.46a2,2,0,0,0-1.91-1.28,1.74,1.74,0,0,0-.91.24,2,2,0,0,0-.7.69,3.53,3.53,0,0,0-.46,1.11,6.19,6.19,0,0,0-.16,1.49,2.14,2.14,0,0,1,.86-1.07,2.48,2.48,0,0,1,1.38-.4,2.66,2.66,0,0,1,1.09.22,2.75,2.75,0,0,1,.88.58,2.53,2.53,0,0,1,.59.87A2.73,2.73,0,0,1,207.47,184.08Zm-2.85,2.09a2.07,2.07,0,0,0,.82-.16,2.32,2.32,0,0,0,.67-.45,2.19,2.19,0,0,0,.45-.67,2,2,0,0,0,.17-.81,2.08,2.08,0,0,0-.17-.82,2.37,2.37,0,0,0-.46-.66,2.24,2.24,0,0,0-.68-.45,2,2,0,0,0-1.62,0,2.24,2.24,0,0,0-.68.45,2.15,2.15,0,0,0-.45.66,2.08,2.08,0,0,0-.17.82,1.8,1.8,0,0,0,.18.8,2,2,0,0,0,.46.67,2.1,2.1,0,0,0,.67.46A2,2,0,0,0,204.62,186.17Z" style="fill:#263238"></path><path d="M219,186.74V180.1l-2.95,5.14h-.46l-2.95-5.14v6.64h-.8v-8.08h.82l3.16,5.53,3.17-5.53h.81v8.08Z" style="fill:#263238"></path><path d="M223.14,186.85a2,2,0,0,1-.78-.14,1.72,1.72,0,0,1-.62-.39,1.77,1.77,0,0,1-.42-.59,1.72,1.72,0,0,1-.15-.72,1.48,1.48,0,0,1,.18-.72,1.88,1.88,0,0,1,.52-.57,2.56,2.56,0,0,1,.78-.37,4,4,0,0,1,1-.13,5.84,5.84,0,0,1,.93.08,4.53,4.53,0,0,1,.83.23V183a1.71,1.71,0,0,0-.45-1.25,1.6,1.6,0,0,0-1.23-.46,2.64,2.64,0,0,0-.93.18,4.85,4.85,0,0,0-1,.52l-.27-.51a4.05,4.05,0,0,1,2.23-.77,2.41,2.41,0,0,1,1.75.62,2.31,2.31,0,0,1,.64,1.73v2.68c0,.21.1.32.29.32v.68l-.3,0a.65.65,0,0,1-.46-.14.58.58,0,0,1-.18-.41l0-.47a2.67,2.67,0,0,1-1,.82A3.16,3.16,0,0,1,223.14,186.85Zm.18-.59a2.51,2.51,0,0,0,1.11-.23,1.76,1.76,0,0,0,.77-.6.82.82,0,0,0,.16-.22.63.63,0,0,0,0-.22v-1a5.39,5.39,0,0,0-.81-.23,4.69,4.69,0,0,0-.84-.08,2.46,2.46,0,0,0-1.34.34,1,1,0,0,0-.51.9,1.27,1.27,0,0,0,.11.52,1.31,1.31,0,0,0,.3.41,1.28,1.28,0,0,0,.45.28A1.45,1.45,0,0,0,223.32,186.26Z" style="fill:#263238"></path><path d="M228.05,188.56l.17,0h.17a.72.72,0,0,0,.32-.05.64.64,0,0,0,.24-.25,4.64,4.64,0,0,0,.25-.56c.1-.24.23-.57.41-1L227,180.81h.8L230,186l2-5.21h.74l-3.08,7.65a1.34,1.34,0,0,1-.41.57,1.17,1.17,0,0,1-.79.25h-.22l-.25,0Z" style="fill:#263238"></path><path d="M259.59,425.39h0A10.88,10.88,0,0,1,248.7,414.5h0a10.89,10.89,0,0,1,10.89-10.89h0a10.9,10.9,0,0,1,10.89,10.89h0A10.89,10.89,0,0,1,259.59,425.39Z" style="fill:#263238"></path><rect x="252.95" y="411.22" width="13.28" height="8.11" style="fill:#fff"></rect><polygon points="262.89 411.22 256.29 411.22 256.94 409.67 262.23 409.67 262.89 411.22" style="fill:#fff"></polygon><path d="M262.67,415.28a3.08,3.08,0,1,1-3.08-3.08A3.08,3.08,0,0,1,262.67,415.28Z" style="fill:#a6a6a6"></path><path d="M262,415.28a2.39,2.39,0,1,1-2.39-2.39A2.39,2.39,0,0,1,262,415.28Z" style="fill:#fff"></path><rect x="264.17" y="411.91" width="1.28" height="0.73" style="fill:#a6a6a6"></rect><rect x="253.4" y="410.62" width="1.26" height="0.37" style="fill:#fff"></rect><path d="M124.09,425.39h0A10.89,10.89,0,0,1,113.2,414.5h0a10.9,10.9,0,0,1,10.89-10.89h0A10.9,10.9,0,0,1,135,414.5h0A10.89,10.89,0,0,1,124.09,425.39Z" style="fill:#263238"></path><rect x="121.36" y="412.94" width="5.34" height="8.92" style="fill:#fff"></rect><polygon points="128.17 408.81 128.17 410.87 126.81 412.48 121.25 412.48 119.9 410.87 119.9 408.81 128.17 408.81" style="fill:#fff"></polygon><rect x="119.9" y="407.14" width="8.27" height="1.18" style="fill:#fff"></rect></g><g id="freepik--Notifications--inject-5"><rect x="107.82" y="205.43" width="158.31" height="45.12" style="fill:#fff"></rect><path d="M266.13,250.55l-158.31.21h-.22v-.21l0-45.12v-.25h.25l158.31.14h.11v.11Zm0,0L266,205.43l.11.11-158.31.14.25-.25,0,45.12-.21-.21Z" style="fill:#263238"></path><rect x="115.41" y="212.24" width="31.29" height="31.29" style="fill:#4C81F6"></rect><ellipse cx="131.06" cy="227.22" rx="10.23" ry="8.87" style="fill:#fff"></ellipse><polygon points="123.64 232.25 121.8 237.4 128.31 235.38 123.64 232.25" style="fill:#fff"></polygon><rect x="155.48" y="213.22" width="73.44" height="1.39" style="fill:#c7c7c7"></rect><rect x="155.48" y="224.05" width="94.2" height="1.39" style="fill:#ebebeb"></rect><rect x="155.48" y="228.49" width="94.2" height="1.39" style="fill:#ebebeb"></rect><rect x="260.8" y="199.16" width="10.65" height="10.65" style="fill:#4C81F6"></rect><rect x="265.5" y="200.78" width="1.25" height="7.41" transform="translate(-66.64 248.09) rotate(-45)" style="fill:#fff"></rect><rect x="265.5" y="200.78" width="1.25" height="7.41" transform="translate(309.7 537.26) rotate(-135)" style="fill:#fff"></rect><rect x="113.14" y="257.92" width="158.31" height="45.12" style="fill:#fff"></rect><path d="M271.46,303l-158.32.22h-.21V303l0-45.12v-.25h.25l158.32.14h.1v.11Zm0,0-.11-45.12.11.11-158.32.14.25-.25,0,45.12-.21-.21Z" style="fill:#263238"></path><rect x="120.74" y="264.73" width="31.29" height="31.29" style="fill:#455a64"></rect><path d="M145.91,282.23a1.49,1.49,0,0,1-.73-1.39c0-.16,0-.31,0-.47s0-.31,0-.47a1.49,1.49,0,0,1,.73-1.38l1.68-1-3.15-5.47-1.68,1a1.52,1.52,0,0,1-1.58-.06,8.13,8.13,0,0,0-.81-.47,1.5,1.5,0,0,1-.83-1.33v-1.94h-6.32v1.94a1.5,1.5,0,0,1-.83,1.33,8.13,8.13,0,0,0-.81.47,1.51,1.51,0,0,1-1.57.06l-1.68-1-3.16,5.47,1.69,1a1.49,1.49,0,0,1,.73,1.39c0,.15,0,.31,0,.46s0,.31,0,.47a1.48,1.48,0,0,1-.74,1.39l-1.68,1,3.16,5.47,1.67-1a1.52,1.52,0,0,1,1.58.05,8.21,8.21,0,0,0,.81.48,1.47,1.47,0,0,1,.83,1.33v1.93h6.32v-1.93a1.49,1.49,0,0,1,.83-1.33,8.37,8.37,0,0,0,.82-.48,1.5,1.5,0,0,1,1.57-.05l1.68,1,3.15-5.47Zm-9.53,3.32a5.18,5.18,0,1,1,5.17-5.18A5.18,5.18,0,0,1,136.38,285.55Z" style="fill:#fff"></path><path d="M140,280.37a3.59,3.59,0,1,1-3.59-3.59A3.58,3.58,0,0,1,140,280.37Z" style="fill:#fff"></path><rect x="160.8" y="265.71" width="73.44" height="1.39" style="fill:#c7c7c7"></rect><rect x="160.8" y="276.55" width="94.2" height="1.39" style="fill:#ebebeb"></rect><rect x="160.8" y="280.99" width="94.2" height="1.39" style="fill:#ebebeb"></rect><rect x="113.14" y="310.42" width="158.31" height="45.12" style="fill:#fff"></rect><path d="M271.46,355.54l-158.32.21h-.21v-.21l0-45.12v-.25h.25l158.32.14h.1v.11Zm0,0-.11-45.12.11.11-158.32.14.25-.25,0,45.12-.21-.21Z" style="fill:#263238"></path><rect x="120.74" y="317.22" width="31.29" height="31.29" style="fill:#4C81F6"></rect><rect x="125.43" y="325.92" width="21.9" height="13.89" style="fill:#fff"></rect><path d="M147.33,325.92c-.88.85-1.78,1.66-2.67,2.49L142,330.85c-.94.84-1.89,1.67-2.84,2.5l-.08.08-2.52,2.19-.13.1-.12-.1-2.52-2.2-.09-.07c-1-.83-1.9-1.66-2.84-2.51s-1.8-1.61-2.7-2.43-1.79-1.64-2.68-2.49c.94.73,1.87,1.49,2.8,2.23s1.85,1.51,2.77,2.28,2.06,1.72,3.08,2.59h0l2.3,2,2.3-2h0c1-.87,2-1.74,3.07-2.59s1.85-1.53,2.77-2.28S146.39,326.65,147.33,325.92Z" style="fill:#4C81F6"></path><path d="M134.11,333.34l0,0-.34.29c-.55.47-1.11.91-1.68,1.34s-1.42,1-2.13,1.55-1.45,1-2.19,1.46-1.48.94-2.26,1.37c.67-.59,1.36-1.13,2.06-1.66s1.41-1,2.12-1.55,1.45-1,2.19-1.46,1.19-.75,1.8-1.1c.14-.09.28-.16.43-.24Z" style="fill:#4C81F6"></path><path d="M147.28,339.37c-.77-.43-1.52-.89-2.26-1.37s-1.46-1-2.19-1.46-1.43-1-2.12-1.55-1.14-.87-1.68-1.33l-.35-.3,0,0h0l.42.25c.62.35,1.21.72,1.8,1.1.74.47,1.47,1,2.19,1.46s1.43,1,2.12,1.55S146.62,338.78,147.28,339.37Z" style="fill:#4C81F6"></path><rect x="160.8" y="318.21" width="73.44" height="1.39" style="fill:#c7c7c7"></rect><rect x="160.8" y="329.04" width="94.2" height="1.39" style="fill:#ebebeb"></rect><rect x="160.8" y="333.48" width="94.2" height="1.39" style="fill:#ebebeb"></rect></g><g id="freepik--Character--inject-5"><path d="M415.58,453l-144.36.62c-35.09-27.55-38.71-68.37-13.68-93.11,15.15-15,34.39-11.95,52.71-14.33h.05a54,54,0,0,0,18.58-5.45c18.86-10,29.5-33.43,45.36-53.17q3-3.72,6.22-7.21c13.05-13.93,39-14.38,52.6,5.21C467.58,335.33,451.77,409.41,415.58,453Z" style="fill:#4C81F6"></path><path d="M418.78,339.13c-3.78,59.22-72.18,81.33-114.9,63.59-37.14-15.43-25-50.64,6.37-56.53h.05a54,54,0,0,0,18.58-5.45c18.86-10,29.5-33.43,45.36-53.17C397.88,275.28,421.56,295.76,418.78,339.13Z" style="opacity:0.1"></path><path d="M285.62,462.34c2.23-.82,52.54-41,53.49-43.77.36-1-5.06-8.71-11.89-17.79-1.47-2-3-4-4.57-6-10.17-13.25-21.27-27.07-21.27-27.07l-33.73,26.8,22.2,26.33,4.86,5.78s-12.37,24-13.09,27.13S283.39,463.15,285.62,462.34Z" style="fill: rgb(255, 196, 192);"></path><path d="M285.63,462.33c2.22-.81,52.52-41,53.48-43.76.3-.85-3.24-6.09-8.24-12.89-7.32,8.74-32.82,34.78-39.79,38.26-4.42,2.21-3.54-2.13-1.89-6.45-3.4,6.79-7.18,14.56-7.57,16.25C280.91,456.86,283.39,463.15,285.63,462.33Z" style="fill:#263238"></path><path d="M233.58,343c2.32,17.52,45.5,68.11,50.49,73.92l1.14,1.32,35.73-27.46-.42-.53L289.06,349s52,30.36,78.06,16.58c11.68-6.19,20.35-17.19,20.35-17.19l-34-18.11s-9.4,3-15.41,2.16c-20.71-3-67.11-20.65-78.12-20.2C245.76,312.85,231.46,326.89,233.58,343Z" style="fill:#263238"></path><path d="M276.89,367.37c-1.59,3.34-1.89,8.79,2.3,10.33,3.8,1.41,7.59-1.16,9.87-4s4-6.55,7-9a10.14,10.14,0,0,1,3.52-1.9l.16.21a7.89,7.89,0,0,0-2,.81c-6.24,3.6-7.64,13.58-15.63,14.47a5.64,5.64,0,0,1-6.42-4.35,11.16,11.16,0,0,1,2.17-8.75c3.84-5.31,10.26-7.59,16.29-9.46l.16.22a45.88,45.88,0,0,0-10,4A18,18,0,0,0,276.89,367.37ZM283,402.46c-3.9,0-8.26,1-11.85-1.08l.36.45a11.46,11.46,0,0,0,4,1c3.86.35,7.74-.61,11.56.28,4.06.95,6.79,4.22,5.72,8.48a9.15,9.15,0,0,1-.33,1.05l.37-.28a7,7,0,0,0-1.23-7.12C289.45,403,286,402.46,283,402.46Zm25.17-28.39a16.3,16.3,0,0,1-2.9,5.38,21.31,21.31,0,0,1-9.49,6.67,22.43,22.43,0,0,1-11.91.7c-3.79-.72-7.93-2-11.7-.55a7.78,7.78,0,0,0-4.71,5.34,10.05,10.05,0,0,0-.05,5.11l.39.5c-1.32-4,.29-9.14,4.44-10.71s8.73.13,12.91.79a21.63,21.63,0,0,0,10.38-.83c5.49-1.86,11.12-6.35,12.85-12.12Zm5.35,21.63c-.74-2.08-1.79-4.26-3.83-5.34a6,6,0,0,0-7.06,1.33,11.12,11.12,0,0,0-3.24,8.35,30.8,30.8,0,0,0,1.13,6.39l.21-.16a24.7,24.7,0,0,1-1.08-7.13c.1-3.5,2.22-7.65,5.69-8.88,3.1-1.11,5.81.93,7.14,3.61a21.25,21.25,0,0,1,1,2.57l.2-.15C313.68,396.09,313.61,395.89,313.54,395.7Zm-64.39-64.58c-.88,2.72-1.43,6.28.43,8.73s5.2,2.4,7.61.91c3.1-1.91,4.2-5.85,4.65-9.23A29.46,29.46,0,0,0,260.62,319c-.65-2.14-1.37-4.4-1-6.66h-.22a9.17,9.17,0,0,0,0,3.18c.34,2,1.12,3.91,1.6,5.89a27.57,27.57,0,0,1,.77,7.07c-.08,4.06-.84,9.43-4.48,11.92a6,6,0,0,1-5.89.7,5.48,5.48,0,0,1-2.78-4.74c-.3-4,2-7.48,2.53-11.37a7.76,7.76,0,0,0-4-7.95,5.68,5.68,0,0,0-.55-.28l-.25.17a8.29,8.29,0,0,1,2.4,1.61C252.53,322.09,250.5,326.94,249.15,331.12ZM244.61,361a9.09,9.09,0,0,0-3.59-1.14c.06.11.13.22.2.33a8.3,8.3,0,0,1,4.25,1.7c3.41,2.73,3.45,7.16,4.23,11.24l.38.53C249,369,249.18,363.64,244.61,361Zm16.24-2.36a32.39,32.39,0,0,0-10.11-4.74c-4.08-1.21-8.34-2-12.17-3.87a16.85,16.85,0,0,1-3.8-2.58l.24.63c5.54,4.54,13.38,4.86,19.83,7.54a23,23,0,0,1,9.78,7.09,14.08,14.08,0,0,1,2.69,11,9.41,9.41,0,0,1-6.7,7.26,8.58,8.58,0,0,1-5.38-.15l.32.44a9.84,9.84,0,0,0,11-4.7C269.94,370.16,266.19,362.62,260.85,358.67Zm33.62-34.85c-4.34,6.91-3.81,15.65-7.5,22.85-1.7,3.3-4.33,6.27-8,7.32-3.1.89-6.93.51-9.24-1.95-2.87-3.05-2.11-7.56-.2-10.9,2-3.54,5.43-5.88,8.61-8.31,2.94-2.24,5.72-4.69,7.44-8a17.18,17.18,0,0,0,1.83-6.14l-.23-.07c-.05.54-.13,1.07-.23,1.6a18.66,18.66,0,0,1-6.41,10.41c-3,2.59-6.49,4.63-9.16,7.58a13.72,13.72,0,0,0-3.82,8.73,7.44,7.44,0,0,0,4.18,6.89,10.64,10.64,0,0,0,8.25.13,14,14,0,0,0,6.88-6.53c4-7.17,3.41-15.94,7.56-23a16.16,16.16,0,0,1,2.19-2.94l-.24-.08A15,15,0,0,0,294.47,323.82Zm21,3.25-.25-.07a24.81,24.81,0,0,1-1.34,14.67,19.13,19.13,0,0,1-7.68,9.25,34.81,34.81,0,0,1-7.31,3.29l.32.16a38.78,38.78,0,0,0,5.64-2.39,19.5,19.5,0,0,0,7.82-7.3,25.68,25.68,0,0,0,3.23-10.27A22.64,22.64,0,0,0,315.5,327.07Zm15.81,34.36a9.43,9.43,0,0,0-8.52-1,9.75,9.75,0,0,0-3.67,2.38l.21.08a9.56,9.56,0,0,1,8.67-2.64c3.75.77,5.77,3.77,6.85,7.13l.26.05A11.12,11.12,0,0,0,331.31,361.43ZM355.23,369l.67-.07a5.77,5.77,0,0,1,2.2-.49,4.78,4.78,0,0,1,.76,0,7,7,0,0,0,.69-.14A6.59,6.59,0,0,0,355.23,369ZM333,331.55l-.25-.05c.13,2.09.39,4.18.59,6.26.35,3.59.84,7.4-1.06,10.66-.82,1.4-2.18,2.74-3.94,2.5-2.36-.32-3.43-2.84-4-4.86-1.27-4.44-.67-9.15.42-13.57.22-.89.47-1.78.74-2.68l-.26-.07a42.48,42.48,0,0,0-1.84,9.41c-.2,3.4.09,7.89,2.43,10.61,1.83,2.13,4.53,1.69,6.13-.41,1.85-2.43,2.06-5.45,1.89-8.39C333.69,337.81,333.23,334.69,333,331.55Zm22.42-.2-.24-.13c-.11.41-.21.81-.28,1.18a47.33,47.33,0,0,0-.56,11.22c.19,4.24.4,9.13-3,12.29a6,6,0,0,1-5.67,1.65,6.8,6.8,0,0,1-4.14-4.19c-1.71-4.4.43-9.46,1.68-13.71.67-2.27,1.33-4.54,2-6.82.06-.21.13-.42.19-.64l-.3.05c-.06.18-.11.36-.16.53-1.3,4.44-2.86,8.89-3.85,13.42-.74,3.37-.72,7.11,1.72,9.82a5.8,5.8,0,0,0,7.85.81c2.9-2,3.87-5.51,4-8.89.17-4.07-.37-8.12,0-12.19A31.52,31.52,0,0,1,355.45,331.35Zm28.48,15.18c-3.68,3.85-6.19,9.07-11.72,10.48-3.29.85-7.25,0-8.14-3.74-1.05-4.4,2-9.09,4.07-12.73.35-.61.71-1.24,1-1.87l-.22-.12c-1.34,2.46-2.85,4.83-3.95,7.41-1.24,2.92-2.35,6.9-.09,9.64,1.61,2,4.35,2.27,6.7,1.82,6-1.17,8.61-6.74,12.54-10.77Z" style="fill:#455a64"></path><path d="M277.77,333.72a41,41,0,0,1,3.24,4.16c1.11,1.46,2.24,2.9,3.35,4.36l0,0c-.2-.43-.39-.85-.6-1.28-.7-1.45-1.26-2.95-2.09-4.34,0-.08.08-.16.13-.08.85,1.38,1.84,2.69,2.57,4.14.34.68.67,1.37,1,2.08.17.38.34.76.49,1.16.06.17.15.36.2.56.5.67,1,1.35,1.47,2.05,1.06,1.53,2,3.15,3.06,4.67.06.09-.07.16-.13.08-1.08-1.43-2.3-2.76-3.4-4.18s-2.19-2.93-3.24-4.43-2-2.94-3.06-4.4a44.54,44.54,0,0,1-3.09-4.52A.06.06,0,0,1,277.77,333.72Z" style="fill:#37474f"></path><path d="M313.78,384.51c-2,1.82-4.07,3.5-6.14,5.2s-4.17,3.39-6.26,5.07c-4.2,3.35-8.37,6.74-12.61,10-2.33,1.81-4.68,3.6-7.11,5.29-.1.08-.23-.1-.13-.18,4-3.62,8.21-6.92,12.4-10.27s8.41-6.7,12.66-10c2.32-1.8,4.64-3.66,7.07-5.31C313.76,384.28,313.87,384.43,313.78,384.51Z" style="fill:#37474f"></path><path d="M339.85,290.33a.46.46,0,0,0,.38.47l1.87.07c1.54-4.39,3.25-7.89,2.81-6.53a22.28,22.28,0,0,0-1,6.59l3.68.08c1.23-7.69,2.93-13.41,2.87-11.66-.27,7.07.21,9.33.76,11.74,8.89.17,20.54.26,29,.15.85-4.26,1.58-8.86,1.73-8.54,1.22,2.36,1.62,5.81,1.72,8.48,2.68-.05,4.83-.15,6.13-.27,0,0,.53-3.57.58-4.74a24.33,24.33,0,0,0-1.18-8.88,44.6,44.6,0,0,0-4.12-8.16l0-.06v0a25.52,25.52,0,0,1-2.4-5.45s0,0,0,0a23.55,23.55,0,0,1-.81-4.22c-.54-5.21-3.6-9.64-8.55-10.89-9.51-8.47-18.69-4.55-21.31,2.22-.25.66-.49,1.42-.72,2.24v0c-.86,3-1.61,7-2.31,10a0,0,0,0,1,0,0,0,0,0,0,1,0,0h0a28,28,0,0,1-1,3.53C345.69,272.06,340.42,275.3,339.85,290.33Z" style="fill:#263238"></path><path d="M375.42,249.83a9.85,9.85,0,0,1,5.91,7.79,25.48,25.48,0,0,0,1.47,6.45,23.18,23.18,0,0,0,3.87,5.61c2.35,2.75,4,5.51,4.47,9.24a28.67,28.67,0,0,1-.77,11.86s0,0,0,0a30.52,30.52,0,0,0,.08-12.34c-.82-4.12-3.23-6.66-5.71-9.73a17.39,17.39,0,0,1-3.76-8.35c-.29-1.87-.31-3.83-1.12-5.59-1-2.09-2.81-3.39-4.63-4.54A.22.22,0,0,1,375.42,249.83Z" style="fill:#263238"></path><path d="M342.64,272.53c2.19-3,4.49-5.6,5.71-9.31,1.12-3.38,1.72-6.94,2.86-10.31,0-.06.1,0,.08,0-1.73,6-1.94,12-5.63,17.08-2,2.77-4,5.34-5.3,8.63a29,29,0,0,0-1.86,10.79c0,.13-.17.13-.19,0A24,24,0,0,1,342.64,272.53Z" style="fill:#263238"></path><path d="M372.12,247.5c.15,1.25,6.3,3.89,10.38.42s1.89-9.73-3.92-8.73C374.92,239.82,371.8,244.85,372.12,247.5Z" style="fill:#263238"></path><path d="M384.3,242.11a7.33,7.33,0,0,0-3.48-3.41,4.45,4.45,0,0,0-4.44.28,8.87,8.87,0,0,0-3.06,3.69,13.72,13.72,0,0,0-.88,2.34,7,7,0,0,0-.32,2.49,5.91,5.91,0,0,1-.13-2.58,11.15,11.15,0,0,1,.65-2.54,8.75,8.75,0,0,1,3.23-4.19,4.92,4.92,0,0,1,5.28-.14A6.51,6.51,0,0,1,384.3,242.11Z" style="fill:#263238"></path><path d="M369.52,296.1c-7.63,18.07-31.41,36.11-39.14,36.6-9,.56-32-10.41-40.63-23.16-2.05-3,17.39-16.61,20.55-14.32,6.49,4.71,18.78,11.2,19.85,11.31,2.12.22,17-7.83,28.52-15.43C373,281.65,372.56,288.9,369.52,296.1Z" style="fill: rgb(255, 196, 192);"></path><path d="M292.4,312.93s-8-8.74-8.66-16.78c-.45-5.56.53-20.25,14.14-29.85,3.23-2.27,9.44-3.22,5.52,2.41-2.79,4-5.77,5.69-7,8.31,0,0,8.05-.27,10.2,3.05a74.09,74.09,0,0,1,5,9.09,15.9,15.9,0,0,1-1.62,1.09s1.72,3.29.31,8.77Z" style="fill: rgb(255, 196, 192);"></path><path d="M313.53,261l8.35,29.3c.34.86-.07,1.57-.93,1.6l-15.23.47a2.47,2.47,0,0,1-2.16-1.51l-8.34-29.29c-.35-.86.07-1.58.92-1.6l15.23-.47A2.46,2.46,0,0,1,313.53,261Z" style="fill:#455a64"></path><path d="M311.72,261.06l8.35,29.3c.34.86-.07,1.57-.93,1.6l-15.23.47a2.47,2.47,0,0,1-2.16-1.51l-8.34-29.29a1.06,1.06,0,0,1,.92-1.61l15.23-.46A2.46,2.46,0,0,1,311.72,261.06Z" style="fill:#37474f"></path><path d="M307.59,262.54a1.3,1.3,0,1,0,1.22-1.36A1.3,1.3,0,0,0,307.59,262.54Z" style="fill:#263238"></path><path d="M284.76,288.29c1.74-2.35,5.51-7.27,10-10.23,5-3.28,15.45-8.25,17.84-4.55,1.74,2.71-2.09,5-2.09,5s4.76-1.14,5.81,1.65c.95,2.55-2.12,4.12-2.12,4.12s3-.2,3.45,2.43c.53,3.17-5.86,3.06-8.09,6.73C309.06,294.23,284.76,288.29,284.76,288.29Z" style="fill: rgb(255, 196, 192);"></path><path d="M297.34,283.9a23.81,23.81,0,0,1,13.06-5.49c.12,0,.19.09.08.12a58.38,58.38,0,0,0-13.1,5.42S297.32,283.92,297.34,283.9Z" style="fill:#263238"></path><path d="M300.8,288.83a26.74,26.74,0,0,1,13.36-4.7c.12,0,.19.09.08.12a63.25,63.25,0,0,0-13.41,4.63S300.78,288.85,300.8,288.83Z" style="fill:#263238"></path><path d="M310.63,292.14c-.08,1.76-.14,3.48-.35,5.18-.1.85-.26,1.69-.44,2.53a22,22,0,0,1-.76,2.48,9.27,9.27,0,0,0,2-4.91,14,14,0,0,0,.06-2.67A10.92,10.92,0,0,0,310.63,292.14Z" style="fill:#263238"></path><path d="M359.34,314.74l-13.62-16.08s11.44-9.26,19.63-12.66,9.19,1.85,5.41,9.62S359.34,314.74,359.34,314.74Z" style="fill:#455a64"></path><path d="M349.34,302.92l10,11.82s7.65-11.34,11.43-19.12c2.83-5.84,3-10.26-.62-10.65Z" style="fill:#263238"></path><path d="M349.81,296.39a133.93,133.93,0,0,1,11.79,13.46s-.08.12-.11.1c-3.43-3.48-9.74-10.92-11.84-13.42C349.61,296.48,349.76,296.35,349.81,296.39Z" style="fill:#263238"></path><path d="M403.78,356.34c-2,.64-58.79-15.79-58.79-15.79l6.7-19.72s-3.31-6.34-1.77-12.44c2.05-8.15,17.14-21.55,18.32-22.33,4.76-3.16,9.22-3.11,13.16-1C397.82,293.77,403.78,356.34,403.78,356.34Z" style="fill:#455a64"></path><path d="M369.91,319.41a49.57,49.57,0,0,0-7.4-.82c-1.23,0-2.46,0-3.69.06l-1.84,0a8.22,8.22,0,0,1-1.92-.17,0,0,0,1,0,0,.08,12,12,0,0,0,1.76.46,12.94,12.94,0,0,0,1.76.16c1.25,0,2.51,0,3.76,0,2.52.05,5.05.11,7.57.34A.1.1,0,0,0,369.91,319.41Z" style="fill:#263238"></path><path d="M375.21,323.17a52.41,52.41,0,0,0-5.83-1.94c-1-.27-2-.47-3-.65-.48-.09-1-.17-1.45-.24s-1.08-.08-1.61-.17c-.05,0-.08.08,0,.09.5.09,1,.27,1.48.4l1.48.37c1,.25,2,.52,3,.76q3,.72,5.94,1.54C375.27,323.36,375.31,323.21,375.21,323.17Z" style="fill:#263238"></path><path d="M375.62,285.39c-.1,1.05-4.1,8.29-8.78,8.68-1.53.13-2.58-8.17-2.58-8.17l-.21-.59L361,277l10.58-8.82S375.66,285,375.62,285.39Z" style="fill: rgb(255, 196, 192);"></path><path d="M361,277l3,8.33A17.84,17.84,0,0,0,373,273.9c-.7-2.91-1.28-5.33-1.36-5.69a.1.1,0,0,1,0,0l-1.35,1Z" style="fill:#263238"></path><path d="M348.12,263.51c-1,15.52,8.18,17.87,11.53,18.09,3,.19,13.41.46,16-14.87s-4.3-20.71-11.22-21.52S349.13,248,348.12,263.51Z" style="fill: rgb(255, 196, 192);"></path><path d="M350.4,261.63a9.86,9.86,0,0,0,1.05-.23,1.76,1.76,0,0,0,1-.43.57.57,0,0,0,0-.68,1.38,1.38,0,0,0-1.35-.31,2,2,0,0,0-1.26.72A.59.59,0,0,0,350.4,261.63Z" style="fill:#263238"></path><path d="M361.06,262.8a8.88,8.88,0,0,1-1.05-.22,1.77,1.77,0,0,1-1-.43.55.55,0,0,1,0-.67,1.38,1.38,0,0,1,1.35-.33,2,2,0,0,1,1.27.71A.59.59,0,0,1,361.06,262.8Z" style="fill:#263238"></path><path d="M358.87,265.14s.08.05.08.09c-.06,1.06.06,2.28,1,2.65a0,0,0,0,1,0,.06C358.79,267.75,358.65,266.13,358.87,265.14Z" style="fill:#263238"></path><path d="M359.83,264.05c1.71-.1,1.78,3.32.2,3.41S358.4,264.13,359.83,264.05Z" style="fill:#263238"></path><path d="M360.51,264.21c.3.19.6.53,1,.55s.72-.33,1-.68c0,0,.06,0,.06,0,0,.66-.22,1.33-.92,1.44s-1.11-.46-1.28-1.12C360.28,264.32,360.39,264.14,360.51,264.21Z" style="fill:#263238"></path><path d="M352.62,265s-.09.05-.08.09c.06,1.06,0,2.28-1,2.66,0,0,0,.07,0,.06C352.72,267.61,352.85,266,352.62,265Z" style="fill:#263238"></path><path d="M351.64,263.92c-1.71-.08-1.74,3.34-.16,3.41S353.07,264,351.64,263.92Z" style="fill:#263238"></path><path d="M350.92,264.14c-.27.18-.54.5-.86.52s-.65-.35-.88-.71c0,0-.06,0-.06,0,0,.65.19,1.33.81,1.47s1-.44,1.16-1.09C351.12,264.25,351,264.07,350.92,264.14Z" style="fill:#263238"></path><path d="M359.31,274.1c-.22.27-.44.63-.82.7a2.86,2.86,0,0,1-1.16-.15s-.07,0,0,.05a1.42,1.42,0,0,0,1.39.45,1.12,1.12,0,0,0,.74-1C359.43,274.08,359.35,274.06,359.31,274.1Z" style="fill:#263238"></path><path d="M354.66,270.11s-.16,1.59-.14,2.34c0,.06.19.09.44.1h0a3.55,3.55,0,0,0,3.39-1.46c.05-.07-.05-.14-.11-.1a5.33,5.33,0,0,1-3.2,1.05c-.06-.2.36-2.71.24-2.71a6.44,6.44,0,0,0-1.68.44c.24-3.32,1-6.57,1.19-9.88a.1.1,0,0,0-.2,0,54.16,54.16,0,0,0-1.73,10.59C352.85,270.87,354.36,270.25,354.66,270.11Z" style="fill:#263238"></path><path d="M355,272.25a4.35,4.35,0,0,0,1.65,1.45,2,2,0,0,0,1.18.14c.87-.17.94-.95.82-1.64a4.46,4.46,0,0,0-.32-1.05A5.58,5.58,0,0,1,355,272.25Z" style="fill:#263238"></path><path d="M356.64,273.7a2,2,0,0,0,1.18.14c.87-.17.94-.95.82-1.64A2,2,0,0,0,356.64,273.7Z" style="fill:#ff9cbd"></path><path d="M374.8,268c-1.69-.24-5.76-5.26-5.26-13.48,0,0,.06,7.41.53,8.54s-2.27-2.83-2-9.47a26.82,26.82,0,0,1-7.07,3c-3.2.64-5.11.46-5.32.22s4.51-1.34,5.87-2.68c0,0-8.62,3.23-12.48,3.22-.45,0-.28-9.16,5.95-12.58s15.31,1.49,17.65,4.13c0,0,2.93.65,5.82,5.28S376.63,268.29,374.8,268Z" style="fill:#263238"></path><path d="M356.37,266.89a5.14,5.14,0,0,0,4.2,4.13,4.59,4.59,0,0,0,1.28.06,5.16,5.16,0,1,0-5.5-6A5.29,5.29,0,0,0,356.37,266.89Zm.66-1.7a4.48,4.48,0,0,1,4.05-3.7,4.53,4.53,0,0,1,1.1.05,4.47,4.47,0,1,1-5.15,3.65Z" style="fill:#4C81F6"></path><path d="M356.37,266.89a5.14,5.14,0,0,0,4.2,4.13,4.59,4.59,0,0,0,1.28.06,5.16,5.16,0,1,0-5.5-6A5.29,5.29,0,0,0,356.37,266.89Zm.66-1.7a4.48,4.48,0,0,1,4.05-3.7,4.53,4.53,0,0,1,1.1.05,4.47,4.47,0,1,1-5.15,3.65Z" style="fill:#4C81F6"></path><path d="M349.69,270.59a1.85,1.85,0,0,0,.33,0c2-.15,3.59-2.31,3.7-5a6.21,6.21,0,0,0-1-3.64,3.36,3.36,0,0,0-2.69-1.65,3.42,3.42,0,0,0-2.8,1.45A6.2,6.2,0,0,0,346,265.3C345.93,268.14,347.57,270.51,349.69,270.59Zm-3-5.27a5.57,5.57,0,0,1,1.07-3.16,2.81,2.81,0,0,1,2-1.17l.26,0a2.75,2.75,0,0,1,2.14,1.36,5.38,5.38,0,0,1,.84,3.22c-.09,2.46-1.57,4.42-3.31,4.35S346.64,267.79,346.73,265.32Z" style="fill:#4C81F6"></path><path d="M349.69,270.59a1.85,1.85,0,0,0,.33,0c2-.15,3.59-2.31,3.7-5a6.21,6.21,0,0,0-1-3.64,3.36,3.36,0,0,0-2.69-1.65,3.42,3.42,0,0,0-2.8,1.45A6.2,6.2,0,0,0,346,265.3C345.93,268.14,347.57,270.51,349.69,270.59Zm-3-5.27a5.57,5.57,0,0,1,1.07-3.16,2.81,2.81,0,0,1,2-1.17l.26,0a2.75,2.75,0,0,1,2.14,1.36,5.38,5.38,0,0,1,.84,3.22c-.09,2.46-1.57,4.42-3.31,4.35S346.64,267.79,346.73,265.32Z" style="fill:#4C81F6"></path><path d="M353.13,264.83l.48.49c1.17-1.17,2.82.3,2.89.36l.46-.52C356.21,264.48,354.43,263.53,353.13,264.83Z" style="fill:#4C81F6"></path><path d="M353.13,264.83l.48.49c1.17-1.17,2.82.3,2.89.36l.46-.52C356.21,264.48,354.43,263.53,353.13,264.83Z" style="fill:#4C81F6"></path><path d="M366.08,265.36c2.65-.16,9.8-.5,10.9-.29s2.1,2.08,2.42,2.78l.63-.29c-.14-.3-1.38-2.85-2.91-3.16s-10.69.24-11.08.27Z" style="fill:#4C81F6"></path><path d="M366.08,265.36c2.65-.16,9.8-.5,10.9-.29s2.1,2.08,2.42,2.78l.63-.29c-.14-.3-1.38-2.85-2.91-3.16s-10.69.24-11.08.27Z" style="fill:#4C81F6"></path><path d="M373.11,267.76s3.29-4.93,5.52-3.76-.17,8.25-2.73,9.27a2.63,2.63,0,0,1-3.56-1.34Z" style="fill: rgb(255, 196, 192);"></path><path d="M377.89,266a0,0,0,0,1,0,.07c-1.8.77-2.72,2.48-3.35,4.23a1.46,1.46,0,0,1,2.17-.44s0,.11-.05.1a1.6,1.6,0,0,0-1.77.6,8,8,0,0,0-.82,1.46c-.08.16-.38.08-.32-.11l0,0C373.69,269.57,375.42,266.3,377.89,266Z" style="fill:#263238"></path><path d="M385.1,298.77c-3.89,23.8-14.83,41.2-19.37,41.94-12.21,2-32.86-17.95-39-22.64-2.49-1.89,17.82-18.89,20.22-16.56,5.67,5.48,13.17,12.82,13.57,12.82.87,0,3.78-5.92,14.41-19.89C383.8,282.76,386.69,289,385.1,298.77Z" style="fill: rgb(255, 196, 192);"></path><path d="M315.41,278.56c-1.69,2.57,5,6.19,5,6.19a5.68,5.68,0,0,0-3.62,1.34c-1.71,1.59,0,5,0,5a7,7,0,0,0-3.6,2c-1.49,1.69-.22,5.36-.22,5.36a6.4,6.4,0,0,0-2,3.76c-.78,6.5,13.43,15.81,18,17.6L347.62,303s-6.91-15.45-12.54-19.44C332,281.33,318,274.63,315.41,278.56Z" style="fill: rgb(255, 196, 192);"></path><path d="M320.51,284.72a51,51,0,0,1,11.28,5.5c.08,0,0,.17-.08.12-3.51-2.16-7.69-3.43-11.28-5.44A.1.1,0,0,1,320.51,284.72Z" style="fill:#263238"></path><path d="M317.08,290.86a11.13,11.13,0,0,1,2.48,1.42c.84.56,1.67,1.14,2.49,1.73,1.64,1.18,3.26,2.4,4.84,3.66.07.06,0,.18-.07.12-1.64-1.17-3.3-2.32-5-3.42l-2.55-1.64a12.39,12.39,0,0,1-2.34-1.63A.14.14,0,0,1,317.08,290.86Z" style="fill:#263238"></path><path d="M313.07,298.48a7.61,7.61,0,0,1,2.17,1.4l2.22,1.65c1.49,1.09,3,2.17,4.5,3.21.08.05,0,.18-.07.12-1.56-1-3.13-2.07-4.67-3.13-.76-.52-1.52-1-2.27-1.57a7.14,7.14,0,0,1-1.93-1.6A.05.05,0,0,1,313.07,298.48Z" style="fill:#263238"></path><path d="M311.69,300.08a5.05,5.05,0,0,0-.88,3.43,7.14,7.14,0,0,0,1.35,3.36,31.24,31.24,0,0,0,4.77,5.37,45.53,45.53,0,0,0,5.66,4.39,38.69,38.69,0,0,0,6.32,3.37l-.06,0c1.4,1.15,10.6,9.1,12.07,9.7-1.3-1.26-10.44-8.81-11.78-10l0,0,0,0A48.24,48.24,0,0,1,323,316a54.33,54.33,0,0,1-5.56-4.35,36.52,36.52,0,0,1-4.84-5.11,7.21,7.21,0,0,1-1.46-3.1A5.16,5.16,0,0,1,311.69,300.08Z" style="fill:#263238"></path><path d="M382,318.8l-18.37-10.3s7.47-12.68,14-18.72,9.26-1.48,8.44,7.12S382,318.8,382,318.8Z" style="fill:#455a64"></path><path d="M366.72,305a131.47,131.47,0,0,1,15.75,8.49s0,.14-.07.13c-4.43-2.06-12.94-6.82-15.78-8.44C366.57,305.1,366.66,304.92,366.72,305Z" style="fill:#263238"></path><path d="M380.2,317.8c.63.27,1.24.58,1.86.87l-.23.1c.43-2.84.95-5.65,1.56-8.45.3-1.39.62-2.79,1-4.18s.72-2.77,1.15-4.15c-.16,1.43-.38,2.84-.63,4.25s-.49,2.83-.78,4.23q-.86,4.21-2,8.37l-.06.21-.17-.11C381.33,318.56,380.76,318.2,380.2,317.8Z" style="fill:#263238"></path><path d="M384.48,307.33a13.21,13.21,0,0,1,.72-1.63,12.69,12.69,0,0,1,.95-1.51,13.14,13.14,0,0,1-1.67,3.14Z" style="fill:#263238"></path><path d="M364.31,309c-.28-.11-.53-.25-.79-.38l-.12-.06.07-.15a44.56,44.56,0,0,1,3.47-6.08,34.35,34.35,0,0,1,4.4-5.44l-3.79,5.84c-1.26,1.95-2.51,3.9-3.8,5.83l-.05-.2C363.91,308.58,364.12,308.78,364.31,309Z" style="fill:#263238"></path><path d="M368,301.16a12.41,12.41,0,0,1,.53-1.7,13.08,13.08,0,0,1,.76-1.61,12,12,0,0,1-.53,1.7A11.83,11.83,0,0,1,368,301.16Z" style="fill:#263238"></path><path d="M155.2,416.77c.83,2.22,41.19,52.4,43.94,53.34,1,.37,8.69-5.09,17.75-11.94,2-1.48,4-3,6-4.59,13.22-10.21,27-21.35,27-21.35L223,398.58l-26.25,22.28L191,425.74s-24.05-12.3-27.17-13S154.38,414.54,155.2,416.77Z" style="fill: rgb(255, 196, 192);"></path><path d="M155.2,416.77c.83,2.22,41.19,52.4,43.94,53.35.91.32,6.87-3.82,14.42-9.44-7.7-5.6-36.94-31.94-40.87-39.07-2.06-3.75,1-3.72,4.64-2.69-6-3-12.08-5.85-13.54-6.18C160.67,412,154.38,414.55,155.2,416.77Z" style="fill:#263238"></path><path d="M198.13,415.78l28,37.78L320.62,388l9.11-6.33s2.58,1.74,6.46,3.89c5.4,3,13.3,6.75,20.29,7.78,11.73,1.74,31.32,1.55,41.2-11.67C406,370.54,401.49,356,401.49,356l-12.88-5.53s-30.48-25.4-50.22-26.16c-8.39-.34-20.6,6-31.91,12.66S198.13,415.78,198.13,415.78Z" style="fill:#263238"></path><path d="M201.63,413.18c-.19,2.18-.38,4.35-.59,6.52l-.29-.38c0-.3.05-.59.08-.89.15-1.66.29-3.32.44-5Zm14.94-7.35c-1.36,4.2-3.65,8.12-5.68,12a82,82,0,0,0-4.3,9.36l.19.25a107.16,107.16,0,0,1,5.8-12.18c1.79-3.43,3.76-7,4.69-10.76a17.77,17.77,0,0,0,.51-3.29l-.33.24A18.72,18.72,0,0,1,216.57,405.83ZM230,431.9c.46-3.3,1.08-7.21-.43-10.33a4.94,4.94,0,0,0-6.75-2.39,8.76,8.76,0,0,0-4.86,6.5c-1,7,4.61,13.62,2.78,20.55l.2.28a12.64,12.64,0,0,0,.43-2.64c.24-3.77-1.19-7.26-2.22-10.81-1.17-4-1.8-8.46,1.3-11.79A6.82,6.82,0,0,1,225,418.9a4.78,4.78,0,0,1,4.55,3.38c1.44,3.83.32,8.43-.25,12.33-.51,3.6-1,7.46.24,11a10.21,10.21,0,0,0,2.49,3.9l.2-.14a10.65,10.65,0,0,1-2.83-5.15C228.45,440.16,229.39,435.92,230,431.9Zm11-11.06c-3.39-1.75-7.11-3.13-10-5.73-3.23-2.94-4.64-7.32-5.19-11.54a16.8,16.8,0,0,1,1-9.05,3.92,3.92,0,0,0-.32.25,13.9,13.9,0,0,0-.94,3.62A23.93,23.93,0,0,0,226.91,409a15.38,15.38,0,0,0,6.4,8.08c3.12,2,6.67,3.24,9.82,5.19a21.76,21.76,0,0,1,8,8.47,16.14,16.14,0,0,1,1.52,4.43l.27-.19C251.53,428.68,246.65,423.74,241,420.84Zm17.6-24.45c-3.29-6.08-10.07-8.38-16-11.05-.68-.3-1.36-.62-2-1l-.24.18c4.72,2.35,9.9,3.86,14,7.21,5.94,4.81,8.44,14.8,2.74,20.8-2.55,2.67-6.85,4.19-9.81,1.23s-2.53-7.26-2.23-10.89c.29-3.46.55-7.32-1.75-10.21a10.28,10.28,0,0,0-6.48-3.6,11.18,11.18,0,0,0-2.52-.11l-.37.27a10.26,10.26,0,0,1,2.35,0,9.93,9.93,0,0,1,7.45,4.48c2.22,3.75.91,8.35.87,12.43,0,3,.63,6.5,3.19,8.39,2.32,1.72,5.29,1.3,7.6-.23C261.29,410.43,261.75,402.2,258.61,396.39Zm8-19.81a12.26,12.26,0,0,0-.15-11.16l-.17.12a13.4,13.4,0,0,1,1.05,8.19,9.41,9.41,0,0,1-6.7,7.26,7.74,7.74,0,0,1-8.91-3,8.54,8.54,0,0,1-.67-1.27l-.24.17a8.72,8.72,0,0,0,1.9,2.74C256.82,383.57,264.11,381.3,266.58,376.58Zm-4.51,46.13a10.11,10.11,0,0,0-2.53,7.67l.27-.19a9.8,9.8,0,0,1,1.94-6.71c2.89-3.76,7.56-3.55,11.79-3l.16,0,.32-.22c-.77-.1-1.55-.21-2.33-.29C268.21,419.66,264.56,420,262.07,422.71Zm10.19-36.2c4.17-1.58,8.73.13,12.91.79a21.63,21.63,0,0,0,10.38-.83c6.4-2.17,13-7.92,13.37-15.1a8.75,8.75,0,0,0-4-8c-2.95-1.74-6.34-.71-8.84,1.33-3,2.45-4.62,6-7,9s-6.07,5.42-9.87,4c-4.19-1.54-3.89-7-2.3-10.33a18,18,0,0,1,7.48-7.44c6.4-3.73,14-4.48,20.51-7.95a19.5,19.5,0,0,0,7.82-7.3,25.68,25.68,0,0,0,3.23-10.27,20.88,20.88,0,0,0,.11-2.76l-.21.11a26.7,26.7,0,0,1-1.92,9.91,19.13,19.13,0,0,1-7.68,9.25,45.23,45.23,0,0,1-10.88,4.43c-6.36,2-13.38,4.17-17.47,9.83a11.16,11.16,0,0,0-2.17,8.75,5.64,5.64,0,0,0,6.42,4.35c8-.89,9.39-10.87,15.63-14.47a7,7,0,0,1,10.11,3.28c2,4.17.13,9-2.58,12.36a21.31,21.31,0,0,1-9.49,6.67,22.43,22.43,0,0,1-11.91.7c-3.79-.72-7.93-2-11.7-.55a7.78,7.78,0,0,0-4.71,5.34,9.7,9.7,0,0,0,.78,7.2c1.49,2.65,4.3,3.79,7.22,4,3.86.35,7.74-.61,11.56.28a7.56,7.56,0,0,1,5.52,4.34l.26-.18a6.11,6.11,0,0,0-1.25-2c-2.12-2.3-5.57-2.8-8.55-2.8-4,0-8.41,1-12-1.18C265.59,398.06,266.4,388.73,272.26,386.51Zm37.45,3.85a6,6,0,0,0-7.06,1.33,11.12,11.12,0,0,0-3.24,8.35,20.61,20.61,0,0,0,.27,2.49l.21-.15a18.45,18.45,0,0,1-.22-3.24c.1-3.5,2.22-7.65,5.69-8.88,3-1.09,5.69.84,7.05,3.44l.21-.15A7.08,7.08,0,0,0,309.71,390.36Zm26.23-19.14c-.55-3.52-1.59-7.57-4.63-9.79a9.43,9.43,0,0,0-8.52-1,10.36,10.36,0,0,0-6.15,6.45c-2.62,7.45,2.57,13.63,6.91,19.13l.17-.12c-2.45-3.08-5.1-6.11-6.58-9.8a12.76,12.76,0,0,1,.72-11.34,9.65,9.65,0,0,1,10.14-4.5c4.41.91,6.42,4.89,7.34,8.93,1.21,5.36.74,11.07,1.17,16.6l.31.16c-.05-.65-.09-1.31-.12-1.95C336.48,379.7,336.59,375.43,335.94,371.22ZM361.57,369a6.67,6.67,0,0,0-7.72,1c-2.11,2-2.87,5.18-2.84,8,0,4.25,1.84,8.25,2.17,12.47a12.56,12.56,0,0,1,0,2.21l.25.06c.38-5.53-2.85-11.36-2-17,.53-3.52,2.72-7.24,6.69-7.36s7.29,3.25,8.49,6.72c2.12,6.16-.34,12.66-.15,19h.24a35.66,35.66,0,0,1,.27-5.39C367.71,381.89,369.06,372.69,361.57,369Zm-28.65-39.77a25.64,25.64,0,0,1,.26-4.38l-.26.05c-.06.41-.11.83-.14,1.24-.34,3.88.22,7.78.59,11.64.35,3.59.84,7.4-1.06,10.66-.82,1.4-2.18,2.74-3.94,2.5-2.36-.32-3.43-2.84-4-4.86-1.27-4.44-.67-9.15.42-13.57.46-1.86,1-3.73,1.63-5.62l-.33.12a52.34,52.34,0,0,0-2.66,12.16c-.2,3.4.09,7.89,2.43,10.61,1.83,2.13,4.53,1.69,6.13-.41,1.85-2.43,2.06-5.45,1.89-8.39C333.64,337,333,333.14,332.92,329.21Zm23.08.18-.18-.09a20.2,20.2,0,0,0-.89,3.1,47.33,47.33,0,0,0-.56,11.22c.19,4.24.4,9.13-3,12.29a6,6,0,0,1-5.67,1.65,6.8,6.8,0,0,1-4.14-4.19c-1.71-4.4.43-9.46,1.68-13.71.67-2.27,1.33-4.54,2-6.82a59.36,59.36,0,0,0,1.76-6.66c0-.09,0-.17,0-.26l-.21-.07a58.41,58.41,0,0,1-1.86,6.93c-1.3,4.44-2.86,8.89-3.85,13.42-.74,3.37-.72,7.11,1.72,9.82a5.8,5.8,0,0,0,7.85.81c2.9-2,3.87-5.51,4-8.89.17-4.07-.37-8.12,0-12.19A28.69,28.69,0,0,1,356,329.39Zm28,17.45-.2-.15c-3.6,3.83-6.12,8.93-11.57,10.32-3.29.85-7.25,0-8.14-3.74-1.05-4.4,2-9.09,4.07-12.73.64-1.11,1.27-2.24,1.85-3.41a1.5,1.5,0,0,0-.23-.15c-1.49,3-3.42,5.86-4.75,9-1.24,2.92-2.35,6.9-.09,9.64,1.61,2,4.35,2.27,6.7,1.82C377.56,356.27,380.15,350.85,384,346.84Zm10.33,18.79a12.62,12.62,0,0,0-9.24-3.77,9.58,9.58,0,0,0-7.82,4.68,8.17,8.17,0,0,0,.09,8.39c1.63,2.83,4.32,4.86,6.57,7.17a17.28,17.28,0,0,1,4.41,7.42,1,1,0,0,0,.23-.12,17.94,17.94,0,0,0-5-8c-2.47-2.43-5.51-4.76-6.72-8.12-1.39-3.87.62-8,4.09-10,3.75-2.14,8.47-1.16,11.81,1.3,2.72,2,4.29,5.52,7.41,7a5.43,5.43,0,0,0,1.87.5.65.65,0,0,0,0-.2C398.57,371.59,396.56,367.85,394.31,365.63Z" style="fill:#455a64"></path><path d="M329.73,381.67s2.58,1.74,6.46,3.89c6.87-8.22,21.4-23.15,21.84-23.68Z" style="fill:#37474f"></path><path d="M377.44,342c1.82,1.26,3.59,2.6,5.38,3.9s3.6,2.48,5.28,3.88,3.33,2.93,4.94,4.46c.77.73,1.54,1.48,2.29,2.24a21.47,21.47,0,0,1,2.2,2.38c.06.08-.06.18-.14.13a24.36,24.36,0,0,1-2.44-2c-.85-.71-1.69-1.44-2.54-2.17-1.64-1.39-3.31-2.74-5-4.14s-3.12-2.9-4.73-4.31-3.54-2.9-5.32-4.33A0,0,0,1,1,377.44,342Z" style="fill:#37474f"></path><path d="M207.73,411.93c1.69,2.07,3.24,4.28,4.81,6.45s3.13,4.36,4.68,6.56c3.09,4.39,6.22,8.76,9.25,13.2,1.67,2.43,3.31,4.88,4.85,7.41.07.11-.11.22-.19.12-3.37-4.18-6.4-8.62-9.49-13s-6.18-8.81-9.21-13.25c-1.66-2.43-3.37-4.85-4.88-7.38C207.49,411.94,207.65,411.84,207.73,411.93Z" style="fill:#37474f"></path><path d="M282.25,414.81c4.7-3.7,9.57-7.2,14.45-10.68s9.69-6.92,14.62-10.27c1.41-1,2.84-1.91,4.26-2.86s2.9-1.81,4.29-2.79c.08-.06.16.07.08.13-1.28.92-2.49,2-3.75,2.9s-2.39,1.82-3.6,2.72c-2.36,1.75-4.74,3.46-7.12,5.18q-7.25,5.24-14.6,10.31c-2.79,1.91-5.57,3.83-8.42,5.65C282.29,415.21,282.09,414.94,282.25,414.81Z" style="fill:#37474f"></path><path d="M252,375.83c4.35-3.6,9-6.84,13.56-10.16s9.18-6.77,13.81-10.11l13.76-9.95c4.45-3.21,8.87-6.48,13.57-9.33,2.57-1.55,5.2-3,7.91-4.3a51.81,51.81,0,0,1,8.18-3.34.08.08,0,0,1,.06.14c-2.32,1.29-4.75,2.38-7.09,3.63s-4.6,2.53-6.84,3.89c-4.66,2.83-9.06,6-13.49,9.22-9.18,6.6-18.35,13.24-27.6,19.75-5.17,3.65-10.24,7.49-15.62,10.84C252.07,376.22,251.88,376,252,375.83Z" style="fill:#37474f"></path></g></svg>