<svg xmlns="http://www.w3.org/2000/svg" viewBox="0 0 500 500"><g id="freepik--Floor--inject-49"><path id="freepik--floor--inject-49" d="M81.82,445.22c-92.88-53.63-92.88-140.58,0-194.2s243.48-53.63,336.36,0,92.88,140.57,0,194.2S174.7,498.84,81.82,445.22Z" style="fill:#f0f0f0"></path></g><g id="freepik--Clipboard--inject-49"><g id="freepik--clip-board--inject-49"><g id="freepik--Board--inject-49"><path d="M62.52,373l-3.2-1.85A4,4,0,0,1,57.49,368V111.15A4.07,4.07,0,0,1,59.32,108L206.71,22.89a4,4,0,0,1,3.66,0l3.21,1.85a4,4,0,0,1,1.83,3.17V284.78a4.07,4.07,0,0,1-1.83,3.17L66.18,373A4,4,0,0,1,62.52,373Z" style="fill:#3393E4"></path><path d="M62.52,373l-3.2-1.85A4,4,0,0,1,57.49,368V111.15A4.07,4.07,0,0,1,59.32,108L206.71,22.89a4,4,0,0,1,3.66,0l3.21,1.85a4,4,0,0,1,1.83,3.17V284.78a4.07,4.07,0,0,1-1.83,3.17L66.18,373A4,4,0,0,1,62.52,373Z" style="opacity:0.30000000000000004"></path><path d="M215.38,27.61c-.12-.94-.89-1.29-1.8-.76L66.18,112a3.76,3.76,0,0,0-1.29,1.36l-6.87-4A3.88,3.88,0,0,1,59.31,108L206.7,22.89a4,4,0,0,1,3.66,0l3.22,1.85A4.05,4.05,0,0,1,215.38,27.61Z" style="fill:#fff;opacity:0.4"></path><path d="M65.86,373.19l-.11,0-.18.07-.08,0a3.37,3.37,0,0,1-.34.09h0a4.21,4.21,0,0,1-2.18-.18,3,3,0,0,1-.41-.19l-3.21-1.85A4.07,4.07,0,0,1,57.49,368V111.15a3.73,3.73,0,0,1,.53-1.8l6.87,4a3.65,3.65,0,0,0-.54,1.81V372a1.5,1.5,0,0,0,.28,1,.94.94,0,0,0,1,.31A1.17,1.17,0,0,0,65.86,373.19Z" style="opacity:0.15"></path></g><g id="freepik--Clip--inject-49"><path d="M169.37,59.82l-.27-.16-3-1.75a11.56,11.56,0,0,0-3.55-1.26c-.52-.11-1-.25-1.41-.38a12.73,12.73,0,0,1-1.34-.55l.23-.28h0l-3.44-2h0a3.39,3.39,0,0,0-.91-.36c-1.29-.31-3.23.44-5.16.22A4.87,4.87,0,0,1,147,51.22c-1.17-1.58-1.88-4.35-2.92-6.64l.9-1.34a2,2,0,0,0-.29-.16l-3.15-1.82a3.38,3.38,0,0,0-1.76-.48,6.66,6.66,0,0,0-3.3,1.08c-7.55,4.36-7.8,14.71-10.52,21.51s-6.57,8.94-8.66,11.88-2.24,5.09-6.88,11.49-4.83,8-4.83,9.17v9.53l3.43,2,61.77-35.67ZM112.73,96.56c-.81.46-1.47-.16-1.47-1.4a3.85,3.85,0,0,1,1.47-3.09c.8-.47,1.45.16,1.45,1.41A3.85,3.85,0,0,1,112.73,96.56Zm27.13-26.75a3.11,3.11,0,0,1-4.76-1.45c-2.39.46-4.17-1.85-4.17-5.82,0-4.69,2.47-9.9,5.51-11.66a3.11,3.11,0,0,1,4.75,1.46c2.4-.48,4.17,1.83,4.17,5.82C145.36,62.84,142.91,68.06,139.86,69.81ZM160.37,69c-.8.47-1.45-.16-1.45-1.39a3.87,3.87,0,0,1,1.45-3.09c.82-.46,1.47.17,1.47,1.41A3.79,3.79,0,0,1,160.37,69Z" style="fill:#455a64"></path><path d="M112.41,98.27l-6.64-3.84a4.54,4.54,0,0,0-.22,1.48v9.53l3.43,2,3.43-2Z" style="fill:#37474f;opacity:0.5"></path><path d="M119.28,86.38l3.43-7.93-5.45-3.2h0c-1.61,2.21-2.07,4-4.22,7.52Z" style="fill:#37474f;opacity:0.5"></path><path d="M133,70.52l.45-2.31c-1.52-.64-2.53-2.69-2.53-5.67a15.77,15.77,0,0,1,4.18-10.63l-4.76-2.75c-2,4.62-2.78,10.07-4.43,14.21a24.94,24.94,0,0,1-1.11,2.42Z" style="fill:#37474f;opacity:0.5"></path><path d="M169.37,59.82l-.27-.16a13.77,13.77,0,0,0-3.17-1,9.93,9.93,0,0,1-4.84-2.36,6.82,6.82,0,0,0-1.11-.83,3.17,3.17,0,0,0-.92-.37c-2.08-.5-5.87,1.76-8.59-1.76l-.09-.11c-1.9-2.56-2.59-8.28-5.44-10a2,2,0,0,0-.29-.16c-1.17-.55-2.7-.45-4.79.75-7.54,4.36-7.8,14.72-10.52,21.52s-6.57,8.94-8.66,11.88-2.23,5.09-6.88,11.49-4.82,8-4.82,9.17v9.53l61.77-35.67V62.22A2.4,2.4,0,0,0,169.37,59.82ZM116.15,98.54c-.8.46-1.46-.16-1.46-1.4a3.9,3.9,0,0,1,1.46-3.1c.81-.46,1.45.17,1.45,1.41A3.84,3.84,0,0,1,116.15,98.54Zm23.71-28.73a3.11,3.11,0,0,1-4.76-1.45,8.82,8.82,0,0,1-.75-3.85c0-4.68,2.47-9.89,5.51-11.65a4.46,4.46,0,0,1,1.33-.52c2.4-.48,4.17,1.83,4.17,5.82C145.36,62.84,142.91,68.06,139.86,69.81ZM163.81,71c-.82.47-1.47-.16-1.47-1.39a3.83,3.83,0,0,1,1.47-3.09c.8-.46,1.45.16,1.45,1.41A3.83,3.83,0,0,1,163.81,71Z" style="fill:#37474f"></path><path d="M145.36,58.16c0,4.68-2.45,9.9-5.5,11.65a3.11,3.11,0,0,1-4.76-1.45,4.08,4.08,0,0,0,1.34-.52c3-1.76,5.5-7,5.5-11.66a8.8,8.8,0,0,0-.75-3.84C143.59,51.86,145.36,54.17,145.36,58.16Z" style="fill:#263238"></path><path d="M116.15,98.54c-.8.46-1.46-.16-1.46-1.4a3.86,3.86,0,0,1,1.46-3.09c.81-.47,1.46.17,1.46,1.4a3.85,3.85,0,0,1-1.46,3.09" style="fill:#263238"></path><path d="M163.8,71c-.8.46-1.46-.16-1.46-1.4a3.86,3.86,0,0,1,1.46-3.09c.81-.47,1.46.17,1.46,1.41A3.84,3.84,0,0,1,163.8,71" style="fill:#263238"></path></g><g id="freepik--Papet--inject-49"><path d="M75.75,127.36,204,53.31a2.42,2.42,0,0,1,2.19,0l1.24.72a2.44,2.44,0,0,1,1.1,1.9V277.69a2.44,2.44,0,0,1-1.1,1.9L79.18,353.64a2.42,2.42,0,0,1-2.19,0l-1.24-.71a2.42,2.42,0,0,1-1.1-1.9V129.27A2.43,2.43,0,0,1,75.75,127.36Z" style="fill:#f5f5f5"></path><path d="M208.5,55.6c-.14-.45-.56-.59-1.06-.31L79.18,129.34a2.37,2.37,0,0,0-.78.82l-3.43-2a2.21,2.21,0,0,1,.78-.82L204,53.32a2.36,2.36,0,0,1,2.19,0l1.24.71A2.4,2.4,0,0,1,208.5,55.6Z" style="fill:#fafafa"></path><path d="M78.92,353.76a2.45,2.45,0,0,1-.41.11l-.21,0a2.92,2.92,0,0,1-.66,0,2.45,2.45,0,0,1-.41-.11l-.25-.12-1.23-.71a2.42,2.42,0,0,1-1.1-1.9V129.27a2.15,2.15,0,0,1,.32-1.08l3.43,2a2.39,2.39,0,0,0-.32,1.09V353C78.08,353.61,78.44,353.9,78.92,353.76Z" style="fill:#e0e0e0"></path></g><g id="freepik--clip--inject-49"><path d="M179.64,81l-3.41-2a3.72,3.72,0,0,0-3.43.1c-4,1.76-5.72,2.55-7.78,3.42l-1.48.6c-.81.32-2.42,0-1.92-2.77l5.3-14.27-.08,0-3.36-2a1.43,1.43,0,0,0-.55-.19,2.11,2.11,0,0,0-.38,0c-2.17,0-2.78-14-2.8-14.47h0l-.15-.09-3.32-1.91a3.75,3.75,0,0,0-1.9-.48,6.94,6.94,0,0,0-3.14.89C146,50.58,140.76,58.69,139.47,66c-.81,4.59-5.43,11.67-8.1,14.27S128.51,85,128.51,85l-2.08,11.79-.66,3.76c-.49,2.82-3.38,5.54-3.38,5.54l-10.75,8.06c-6.74,5.6-8.64,11.24-9.94,18.23v.05c0,.25,0,.42.11.48a.11.11,0,0,0,.12,0h0l1.38-.78,74-42.69a1.61,1.61,0,0,0,.68-1s0,0,0,0,0,0,0,0c.42-2.55,1.65-7.33,1.65-7.33ZM158.24,59.4c-.79,4.48-4,9.48-7.23,11.16-2.21,1.15-3.83.44-4.37-1.6a2.53,2.53,0,0,1-2.42-.31c-1-.81,8.4-17,9.16-16.64a2.71,2.71,0,0,1,1.42,1.93C157.45,53.14,159,55.38,158.24,59.4Z" style="fill:#455a64"></path><path d="M112.41,122.05,107,118.94c-3.13,4.12-4.39,8.45-5.32,13.47v.05c0,.25,0,.42.11.48a.11.11,0,0,0,.12,0h0l4.25-3.37Z" style="fill:#37474f;opacity:0.5"></path><path d="M125.41,101.81l7.6,4.39,3.43-19.83-6.85-4A6.39,6.39,0,0,0,128.51,85l-2.08,11.79-.66,3.76A6.66,6.66,0,0,1,125.41,101.81Z" style="fill:#37474f;opacity:0.5"></path><path d="M143.08,56.51A29.61,29.61,0,0,0,139.47,66a23.43,23.43,0,0,1-2.68,6.72l6.52,3.76L146.55,69a2.5,2.5,0,0,1-2.33-.33c-.54-.42,1.7-4.9,4.1-9.11Z" style="fill:#37474f;opacity:0.5"></path><path d="M179.69,81.05l-.05,0a3.71,3.71,0,0,0-3.41.11c-4.89,2.15-6.37,2.86-9.27,4-.78.32-2.34.06-1.94-2.58a1.13,1.13,0,0,1,0-.18l.67-3.77,1.85-10.27s.42-1.61-.65-2.22l-.08,0a2,2,0,0,0-.85-.19,4.16,4.16,0,0,1-3.06-2,7.73,7.73,0,0,1-1.15-5.88c.77-4.4-.08-7.48-2-8.63l-.15-.1c-1.26-.66-2.95-.55-4.93.49-5.21,2.73-10.48,10.85-11.76,18.13-.82,4.6-5.44,11.67-8.11,14.28S131.94,87,131.94,87L129.86,98.8l-.66,3.77c-.49,2.82-3.38,5.54-3.38,5.54l-10.75,8.06a25.86,25.86,0,0,0-8.85,13.39s-4,3.13-4.29,3.38h0s0,0,0,0h0l1.38-.78,74.23-42.67s.85-.47,1-.59S181.77,86,181.77,86C181.65,83.53,180.94,81.8,179.69,81.05ZM158.24,59.4c-.79,4.48-4,9.48-7.23,11.16-2.21,1.15-3.83.44-4.37-1.6a8.52,8.52,0,0,1,0-3.47c.8-4.48,4-9.48,7.25-11.15a5.46,5.46,0,0,1,.92-.4C157.45,53.14,159,55.38,158.24,59.4Z" style="fill:#37474f"></path><path d="M158.24,59.4c-.79,4.48-4,9.48-7.23,11.16-2.21,1.15-3.83.44-4.37-1.6a5.53,5.53,0,0,0,.94-.39c3.21-1.68,6.45-6.68,7.23-11.16a8.18,8.18,0,0,0,0-3.47C157.45,53.14,159,55.38,158.24,59.4Z" style="fill:#263238"></path><path d="M155.15,54.13h0a1.76,1.76,0,0,1,1.54.75c1.34,1.89.06,6.71-.49,8.25-.77,2.15-5.74,7.18-7.12,7.18a3.36,3.36,0,0,1-2.24-1.44,8.35,8.35,0,0,1,0-3.35c.78-4.42,4-9.35,7.13-11a5.31,5.31,0,0,1,.88-.38l.3,0m0-.21-.35,0a5.46,5.46,0,0,0-.92.4c-3.22,1.67-6.45,6.67-7.25,11.15a8.52,8.52,0,0,0,0,3.47,3.59,3.59,0,0,0,2.43,1.56h0c1.49,0,6.5-5.07,7.3-7.32s2.53-9.28-1.25-9.28Z" style="fill:#263238"></path><path d="M101.94,133l75.61-43.46,1-.58c.19-.11,3.18-3,3.18-3l-75.55,43.61S101.64,133.11,101.94,133Z" style="fill:#263238"></path></g><polygon points="91.15 304.43 111.29 292.64 111.28 316.05 91.15 327.84 91.15 304.43" style="fill:#fafafa"></polygon><path d="M92,304.91v21.48l18.46-10.81V294.09Zm-.84,23.76a.77.77,0,0,1-.41-.11.83.83,0,0,1-.42-.72V304.43a.84.84,0,0,1,.41-.72l20.14-11.79a.84.84,0,0,1,1.25.72v23.41a.83.83,0,0,1-.42.72L91.57,328.56A.88.88,0,0,1,91.15,328.67Z" style="fill:#455a64"></path><path d="M121.42,287.61v1.69c0,.92.65,1.3,1.44.84l71.46-41.25a3.18,3.18,0,0,0,1.44-2.5v-1.7c0-.92-.64-1.29-1.44-.83l-71.46,41.26A3.19,3.19,0,0,0,121.42,287.61Z" style="fill:#e0e0e0"></path><path d="M121.42,297.84v1.69c0,.92.65,1.29,1.44.83l71.46-41.25a3.16,3.16,0,0,0,1.44-2.49v-1.7c0-.92-.64-1.29-1.44-.83l-71.46,41.25A3.21,3.21,0,0,0,121.42,297.84Z" style="fill:#e0e0e0"></path><path d="M121.42,308v1.69c0,.92.65,1.29,1.44.83l71.46-41.25a3.18,3.18,0,0,0,1.44-2.49v-1.7c0-.92-.64-1.29-1.44-.84l-71.46,41.26A3.21,3.21,0,0,0,121.42,308Z" style="fill:#e0e0e0"></path><polygon points="101.56 316.4 96.88 311.89 98.89 307.62 101.56 310.19 112.65 286.71 114.66 288.65 101.56 316.4" style="fill:#3393E4"></polygon><polygon points="91.15 263.91 111.29 252.12 111.28 275.53 91.15 287.32 91.15 263.91" style="fill:#fafafa"></polygon><path d="M92,264.39v21.48l18.46-10.81V253.57Zm-.84,23.76a.77.77,0,0,1-.41-.11.82.82,0,0,1-.42-.72V263.91a.85.85,0,0,1,.41-.72l20.14-11.79a.84.84,0,0,1,1.25.72v23.41a.83.83,0,0,1-.42.72L91.57,288A.78.78,0,0,1,91.15,288.15Z" style="fill:#455a64"></path><path d="M121.42,247.09v1.7c0,.91.65,1.29,1.44.83l71.46-41.25a3.18,3.18,0,0,0,1.44-2.5v-1.7c0-.92-.64-1.29-1.44-.83L122.86,244.6A3.19,3.19,0,0,0,121.42,247.09Z" style="fill:#e0e0e0"></path><path d="M121.42,257.32V259c0,.92.65,1.29,1.44.83l71.46-41.25a3.16,3.16,0,0,0,1.44-2.49v-1.7c0-.92-.64-1.29-1.44-.83l-71.46,41.25A3.21,3.21,0,0,0,121.42,257.32Z" style="fill:#e0e0e0"></path><path d="M121.42,267.49v1.69c0,.92.65,1.29,1.44.83l71.46-41.25a3.16,3.16,0,0,0,1.44-2.49v-1.7c0-.92-.64-1.29-1.44-.83L122.86,265A3.21,3.21,0,0,0,121.42,267.49Z" style="fill:#e0e0e0"></path><polygon points="101.56 275.88 96.88 271.37 98.89 267.1 101.56 269.67 112.65 246.19 114.66 248.14 101.56 275.88" style="fill:#3393E4"></polygon><polygon points="91.15 223.39 111.29 211.6 111.28 235.01 91.15 246.8 91.15 223.39" style="fill:#fafafa"></polygon><path d="M92,223.87v21.48l18.46-10.81V213.05Zm-.84,23.77a.87.87,0,0,1-.41-.11.84.84,0,0,1-.42-.73V223.39a.82.82,0,0,1,.41-.71l20.14-11.79a.82.82,0,0,1,.83,0,.84.84,0,0,1,.42.72V235a.82.82,0,0,1-.42.71L91.57,247.52A.79.79,0,0,1,91.15,247.64Z" style="fill:#455a64"></path><path d="M121.42,206.57v1.7c0,.92.65,1.29,1.44.83l71.46-41.25a3.18,3.18,0,0,0,1.44-2.5v-1.7c0-.91-.64-1.29-1.44-.83l-71.46,41.26A3.2,3.2,0,0,0,121.42,206.57Z" style="fill:#e0e0e0"></path><path d="M121.42,216.8v1.69c0,.92.65,1.29,1.44.83l71.46-41.25a3.15,3.15,0,0,0,1.44-2.49v-1.7c0-.92-.64-1.29-1.44-.83L122.86,214.3A3.21,3.21,0,0,0,121.42,216.8Z" style="fill:#e0e0e0"></path><path d="M121.42,227v1.69c0,.92.65,1.29,1.44.83l71.46-41.25a3.16,3.16,0,0,0,1.44-2.49v-1.7c0-.92-.64-1.29-1.44-.83l-71.46,41.25A3.21,3.21,0,0,0,121.42,227Z" style="fill:#e0e0e0"></path><polygon points="101.56 235.36 96.88 230.85 98.89 226.59 101.56 229.15 112.65 205.68 114.66 207.62 101.56 235.36" style="fill:#3393E4"></polygon><path d="M90.32,159.4V202c0,2.54,1.79,3.57,4,2.3L131.16,183a8.8,8.8,0,0,0,4-6.9V133.53c0-2.54-1.78-3.57-4-2.3L94.3,152.51A8.78,8.78,0,0,0,90.32,159.4Z" style="fill:#3393E4"></path><path d="M90.32,159.4V202c0,2.54,1.79,3.57,4,2.3L131.16,183a8.8,8.8,0,0,0,4-6.9V133.53c0-2.54-1.78-3.57-4-2.3L94.3,152.51A8.78,8.78,0,0,0,90.32,159.4Z" style="fill:#fff;opacity:0.7000000000000001"></path><path d="M112.73,148.17c4.25-2.45,7.69-.46,7.69,4.44a17,17,0,0,1-7.69,13.31c-4.24,2.45-7.68.47-7.68-4.43A17,17,0,0,1,112.73,148.17Z" style="fill:#fafafa"></path><path d="M126.07,166.94c-.68-3.55-4.32-3.65-8.13-1.45l-10.42,6c-3.81,2.2-7.45,6.5-8.13,10.84L97.4,196l30.67-17.71Z" style="fill:#fafafa"></path><path d="M139.71,146.47V132a2.64,2.64,0,0,1,1.19-2.07l53.67-31c.66-.38,1.19-.07,1.19.69l0,14.49a2.64,2.64,0,0,1-1.19,2.07l-53.64,31C140.24,147.54,139.71,147.23,139.71,146.47Z" style="fill:#455a64"></path><path d="M145.44,140.26a.12.12,0,0,1-.15,0,.27.27,0,0,1-.06-.19v-7.73a.65.65,0,0,1,.06-.26.35.35,0,0,1,.15-.18l1-.59a.12.12,0,0,1,.15,0,.27.27,0,0,1,.06.19v7.73a.65.65,0,0,1-.06.26.35.35,0,0,1-.15.18Z" style="fill:#3393E4"></path><path d="M151.28,136.88c-.09.05-.16.06-.21,0a.37.37,0,0,1-.11-.11l-1.77-3.06v4a.59.59,0,0,1-.07.26.39.39,0,0,1-.14.18l-1,.59a.12.12,0,0,1-.15,0,.25.25,0,0,1-.06-.19v-7.72a.58.58,0,0,1,.06-.26.42.42,0,0,1,.15-.19l.81-.46a.18.18,0,0,1,.21,0,.32.32,0,0,1,.1.11l1.78,3.06v-4a.58.58,0,0,1,.06-.26.47.47,0,0,1,.15-.18l1-.59a.12.12,0,0,1,.15,0,.25.25,0,0,1,.06.19V136a.66.66,0,0,1-.06.27.45.45,0,0,1-.15.18Z" style="fill:#3393E4"></path><path d="M155.4,126a2,2,0,0,1,.92-.31,1.35,1.35,0,0,1,.71.15,1.16,1.16,0,0,1,.48.5,1.61,1.61,0,0,1,.18.69.59.59,0,0,1-.05.22c0,.07-.07.12-.12.14l-1,.59a.29.29,0,0,1-.18.05.28.28,0,0,1-.13-.07l-.08-.07a.28.28,0,0,0-.14-.09.42.42,0,0,0-.23,0,.9.9,0,0,0-.35.13,2.31,2.31,0,0,0-.28.19,1.36,1.36,0,0,0-.24.24,1,1,0,0,0-.17.28,1,1,0,0,0-.07.34.34.34,0,0,0,.08.25.3.3,0,0,0,.25.08,1.9,1.9,0,0,0,.46-.07l.71-.18a2.42,2.42,0,0,1,.75-.1.86.86,0,0,1,.53.2,1.11,1.11,0,0,1,.32.53,3.35,3.35,0,0,1,.1.92,4,4,0,0,1-.18,1.19,5,5,0,0,1-1.26,2.07,4.87,4.87,0,0,1-1,.73,2.32,2.32,0,0,1-1,.34,1.3,1.3,0,0,1-.75-.14,1.18,1.18,0,0,1-.49-.5,1.8,1.8,0,0,1-.19-.79.54.54,0,0,1,0-.22c0-.07.07-.12.12-.14l1-.59a.38.38,0,0,1,.17-.06.38.38,0,0,1,.13.06l.09.1a.56.56,0,0,0,.43.17.93.93,0,0,0,.39-.14,2.76,2.76,0,0,0,.69-.54.94.94,0,0,0,.28-.65.27.27,0,0,0-.1-.24.54.54,0,0,0-.31,0,2.64,2.64,0,0,0-.51.1l-.75.19a1.11,1.11,0,0,1-1.16-.2,2.12,2.12,0,0,1-.37-1.43,4.06,4.06,0,0,1,.15-1.07,5.1,5.1,0,0,1,1.13-2.05A4,4,0,0,1,155.4,126Z" style="fill:#3393E4"></path><path d="M163.07,121.71a.11.11,0,0,1,.15,0,.25.25,0,0,1,.06.19v4.77a6.4,6.4,0,0,1-.17,1.55,5.67,5.67,0,0,1-.48,1.35,4.72,4.72,0,0,1-.75,1.08,3.87,3.87,0,0,1-1,.77,2.19,2.19,0,0,1-1,.34,1,1,0,0,1-.74-.22,1.57,1.57,0,0,1-.48-.79,4.31,4.31,0,0,1-.18-1.36v-4.77a.54.54,0,0,1,.07-.26.39.39,0,0,1,.14-.18l1-.59a.12.12,0,0,1,.15,0,.27.27,0,0,1,.06.19v4.73a1.61,1.61,0,0,0,.23,1q.22.27.69,0a1.61,1.61,0,0,0,.7-.8,3.26,3.26,0,0,0,.23-1.26v-4.72a.66.66,0,0,1,.06-.27.45.45,0,0,1,.15-.18Z" style="fill:#3393E4"></path><path d="M166.63,119.65a3.1,3.1,0,0,1,.92-.36,1,1,0,0,1,.69.11,1.09,1.09,0,0,1,.43.6,3.51,3.51,0,0,1,.15,1.13,5.15,5.15,0,0,1-.24,1.62,4.35,4.35,0,0,1-.68,1.3l1,2.29a.5.5,0,0,1,0,.12.41.41,0,0,1,0,.21.31.31,0,0,1-.12.15l-1.05.61c-.11.06-.18.07-.23,0a1.3,1.3,0,0,1-.1-.15l-.86-2.07-.72.42v2.56a.65.65,0,0,1-.06.26.39.39,0,0,1-.15.18l-1,.59a.12.12,0,0,1-.15,0,.24.24,0,0,1-.06-.19v-7.72a.62.62,0,0,1,.06-.26.35.35,0,0,1,.15-.18Zm-.88,4.13.88-.5a1.65,1.65,0,0,0,.54-.51,1.43,1.43,0,0,0,.21-.81q0-.51-.21-.57a.66.66,0,0,0-.54.12l-.88.5Z" style="fill:#3393E4"></path><path d="M172.55,116.24c.1-.06.18-.06.23,0a.41.41,0,0,1,.12.2l1.69,6.55a.67.67,0,0,1,0,.17.54.54,0,0,1-.05.21.31.31,0,0,1-.12.15l-1,.56c-.1.06-.18.07-.22,0a.28.28,0,0,1-.08-.15l-.22-.87-2.06,1.19-.22,1.12a1.17,1.17,0,0,1-.08.25.58.58,0,0,1-.22.22l-1,.57a.09.09,0,0,1-.12,0,.17.17,0,0,1-.05-.15,1,1,0,0,1,0-.2l1.69-8.51a1.82,1.82,0,0,1,.11-.33.64.64,0,0,1,.24-.27Zm-1.26,6,1.26-.73-.63-2.5Z" style="fill:#3393E4"></path><path d="M178.78,121a.18.18,0,0,1-.21,0,.29.29,0,0,1-.11-.11l-1.77-3.06v4a.68.68,0,0,1-.07.27.54.54,0,0,1-.14.18l-1,.58a.11.11,0,0,1-.15,0,.25.25,0,0,1-.06-.19V115a.62.62,0,0,1,.06-.26.35.35,0,0,1,.15-.18l.81-.47a.2.2,0,0,1,.21,0c.05.05.09.08.1.11l1.78,3.06v-4a.65.65,0,0,1,.06-.26.4.4,0,0,1,.15-.18l1-.59a.12.12,0,0,1,.15,0,.27.27,0,0,1,.06.19v7.73a.65.65,0,0,1-.06.26.35.35,0,0,1-.15.18Z" style="fill:#3393E4"></path><path d="M182.14,113.88c0,.11,0,.25,0,.44v1.14c0,.19,0,.33,0,.43a2.41,2.41,0,0,0,.07.49.68.68,0,0,0,.17.34.38.38,0,0,0,.29.13.8.8,0,0,0,.44-.14,1.76,1.76,0,0,0,.44-.34,2.43,2.43,0,0,0,.28-.4,1.67,1.67,0,0,0,.16-.4c0-.13.07-.26.09-.36a1.65,1.65,0,0,1,.09-.32.39.39,0,0,1,.18-.18l1-.59a.09.09,0,0,1,.12,0,.22.22,0,0,1,0,.16,4.71,4.71,0,0,1-.2,1.25,5.32,5.32,0,0,1-.51,1.23,5.9,5.9,0,0,1-.76,1.07,3.66,3.66,0,0,1-1,.78,1.87,1.87,0,0,1-1,.32,1.12,1.12,0,0,1-.75-.26,1.66,1.66,0,0,1-.48-.76,4.24,4.24,0,0,1-.19-1.14c0-.32,0-.67,0-1s0-.74,0-1.09a5.94,5.94,0,0,1,.19-1.36,6.59,6.59,0,0,1,.47-1.31,5.84,5.84,0,0,1,.75-1.13,3.92,3.92,0,0,1,1-.83,2.22,2.22,0,0,1,1-.32,1.29,1.29,0,0,1,.76.19,1.35,1.35,0,0,1,.51.63,2.71,2.71,0,0,1,.2,1,.54.54,0,0,1,0,.21.49.49,0,0,1-.12.15l-1,.59c-.09,0-.15.06-.18,0a.52.52,0,0,1-.09-.22,1.61,1.61,0,0,0-.09-.26.45.45,0,0,0-.16-.2.42.42,0,0,0-.28-.07,1,1,0,0,0-.44.15,1.58,1.58,0,0,0-.44.37,1.75,1.75,0,0,0-.29.47,2.25,2.25,0,0,0-.17.54A3.7,3.7,0,0,0,182.14,113.88Z" style="fill:#3393E4"></path><path d="M190.23,112.49a.1.1,0,0,1,.14,0,.26.26,0,0,1,.07.19V114a.68.68,0,0,1-.07.26.45.45,0,0,1-.14.18l-3.69,2.12a.1.1,0,0,1-.14,0,.25.25,0,0,1-.06-.19V108.6a.58.58,0,0,1,.06-.26.39.39,0,0,1,.14-.18l3.62-2.09a.11.11,0,0,1,.15,0,.25.25,0,0,1,.06.19v1.27a.65.65,0,0,1-.06.26.35.35,0,0,1-.15.18l-2.39,1.38v1.29l2.22-1.28a.12.12,0,0,1,.15,0,.25.25,0,0,1,.06.19v1.27a.62.62,0,0,1-.06.26.35.35,0,0,1-.15.18l-2.22,1.28v1.34Z" style="fill:#3393E4"></path><path d="M140.9,152.39l45.78-26.45c.66-.38,1.19-.07,1.19.69v1.55a2.62,2.62,0,0,1-1.19,2.07L140.9,156.7c-.66.38-1.19.07-1.19-.69v-1.55A2.64,2.64,0,0,1,140.9,152.39Z" style="fill:#3393E4"></path><path d="M140.9,161l40.85-23.6c.66-.38,1.19-.07,1.19.69v1.55a2.62,2.62,0,0,1-1.19,2.07L140.9,165.33c-.66.38-1.19.07-1.19-.69v-1.56A2.65,2.65,0,0,1,140.9,161Z" style="fill:#3393E4"></path><path d="M140.9,169.64l32.42-18.72c.66-.38,1.2-.07,1.2.69v1.56a2.66,2.66,0,0,1-1.2,2.07L140.9,174c-.66.38-1.19.08-1.19-.69v-1.55A2.64,2.64,0,0,1,140.9,169.64Z" style="fill:#3393E4"></path></g></g><g id="freepik--character-1--inject-49"><g id="freepik--Character--inject-49"><g id="freepik--Bottom--inject-49"><path d="M243.28,300.25a9.33,9.33,0,0,0-1,4.79c.07,1.45.94,3.32.55,6.59s-1.14,4.29-1.49,6.6a8.1,8.1,0,0,0,1.28,6.13c1.35,2.2,4.33,3.94,10.22,3.73,4.75-.17,6.67-2.61,6.77-5.41Z" style="fill:#263238"></path><path d="M244.66,293.48a12.76,12.76,0,0,0-.28,1.85c-.18,1.1-.51,2.15-.77,3.23-.07.29-.14.58-.2.86-.46,2.19,0,4.45,0,6.67a37.67,37.67,0,0,1-1.37,7.78c-1.07,4.62-1.24,7.71,2.8,10.92,2.13,1.68,4.47,1.74,7.17,1.82a11.36,11.36,0,0,0,6-1.45c1.73-1.27,1.71-2.34,1.72-2.75.16-4.92-1.61-10.63-2-15.53a24.06,24.06,0,0,1-.09-4c.17-1.62.73-3.23.91-4.88a2.74,2.74,0,0,0-.23-1.79,2.88,2.88,0,0,0-2.18-1q-3.23-.42-6.47-.65a1.94,1.94,0,0,0-1.47.29,2.71,2.71,0,0,0-.55,1.57c-.11.56-.52,1.18-1.07,1.08a.94.94,0,0,1-.66-.82c-.06-.36-.21-3.2-.2-3.58C245.68,293.13,244.92,293,244.66,293.48Z" style="fill:#263238"></path><path d="M316.15,309.77a3.63,3.63,0,0,1,0,2.71c-.34.8-4.37,3.29-9.94,3.14a23.13,23.13,0,0,1-11.65-3.55c-2.17-1.32-4.39-1.49-7.14-1.54s-6-1-6.92-2.29a6.5,6.5,0,0,1,0-3.71Z" style="fill:#263238"></path><path d="M296,293.33a9.08,9.08,0,0,1,.58,1.22,9.91,9.91,0,0,0,3.06,3.82,32.58,32.58,0,0,0,6.15,3.32c1.37.6,2.8.78,4.19,1.26a24,24,0,0,1,4.5,2c2.24,1.38,2.67,5.06.25,6.62-2.09,1.35-7.67,2.94-13.65,1.5-3.26-.78-7-4.08-11.22-4.24-2.7-.1-7.81-.65-9.62-2.62-.67-2.94.06-3.78.66-6.29a20.15,20.15,0,0,0,.51-4.31c0-.76-.51-2.95,1.09-3.22l.17,1.64s.3.56,2,.85c.54.1,1,.8,1.26,1.45s.46,1.14,1,1.12a1,1,0,0,0,.84-.65,9.41,9.41,0,0,0,.31-1.07,4.24,4.24,0,0,1,2.52-2.5,12.38,12.38,0,0,1,2.95-.61c.77-.12,1.4-.45,2.08.2A2.15,2.15,0,0,1,296,293.33Z" style="fill:#263238"></path><path d="M253.71,167.47c-2.05,20.11-2.87,29.66-5.51,69.77a115.62,115.62,0,0,0-4,23.06c-.57,9.74-2,39.09-2,39.09s7.85,6.45,16.94,3.46c0,0,8.22-43.12,11.09-56.58,2.75-12.91,5.53-29.15,5.53-29.15l1.3,20.12s-.37,8-.12,20c.14,6.41,3.22,41,3.22,41s11,5,18.45-1.42c0,0,.54-56.17.65-62,.13-6.61-1-73.08-1-73.08Z" style="fill:#37474f"></path><path d="M275.78,217.12l5-27.38s8.7-.76,13.51-5.61c0,0-.86,4.76-11.79,7.61L278,214.59l-.93,22.65Z" style="fill:#263238"></path><path d="M242.47,294.09a17.92,17.92,0,0,0,12.08,4.35s-7.5-1.11-12-6.07Z" style="fill:#263238"></path><path d="M279.82,294.18s7.67,2.67,14.15.63c0,0-5,3.36-14,.6Z" style="fill:#263238"></path></g><g id="freepik--Top--inject-49"><path d="M354.07,115.76a4.12,4.12,0,0,0,.31-1.18c0-.31-.22-.46-.31-.75-.21-.67.2-1.48-.26-2.09-.15-.2-.38-.34-.53-.54s-.22-.58-.4-.84a1.4,1.4,0,0,0-1.48-.43,5,5,0,0,0-2.09,1.3c-2.15,1.89-4.28,4.27-6.79,5.66a6.6,6.6,0,0,1-1.19.52c-.27.09-.93.36-1,0a4.38,4.38,0,0,1,.23-1.21,18.56,18.56,0,0,0,.23-2c.06-1.12.11-2.74-.79-3.57-1.51-1.41-1.12,1.82-3.47,4.88s-2.71,7.66-4.5,9.73v0l-12.37,11.28s-9.69-13.76-14.94-21.48c-5.59-8.21-8.57-7.68-15.44-8.82-2.72,9,6.43,26.49,6.43,26.49s13.07,14.34,17.1,18.07c3.39,3.13,7,3.55,10.24.48,2.16-2,10.93-12.56,13.38-15.61a24.48,24.48,0,0,1,6.18-5.9,54,54,0,0,0,5.55-3.5,25.25,25.25,0,0,0,3.85-3.45,15.63,15.63,0,0,0,1.63-2.07,11.6,11.6,0,0,0,.72-1.83,4.71,4.71,0,0,0,.41-1.68,1.78,1.78,0,0,0-.7-1.51Z" style="fill:#b16668"></path><path d="M325.32,130.94l4.8-3.88s2.19,5.83,6.3,8.68l-4.17,5.85Z" style="fill:#455a64"></path><path d="M287.59,105.83c3.57.32,9.22.73,12,3s5.35,5,10.41,12.49,9.79,14.1,9.79,14.1l8.15-7.49s1.09,7.29,6,12.41c0,0-8.66,10.33-11.08,12.35s-5.76,3.39-10.61-1S293.91,132,293.91,132Z" style="fill:#e6e6e6"></path><path d="M266.51,105.24c-1.74.42-9.26,2.55-13.75,4.13a12.51,12.51,0,0,0-5.67,4.34c-3.26,4.76,1.67,14.69,4.07,34.62-.19,12.86-.56,28.86-.56,28.86,5.92,4.31,34.56,6.68,47-2.41,0,0-.63-47.73-1.45-54-1.57-12-6.28-15.23-16-15.8Z" style="fill:#455a64"></path><path d="M295.31,67.11a8.52,8.52,0,0,0,.19-1.33,5.44,5.44,0,0,0-1.66-4.36,3.73,3.73,0,0,0-4.46-.43c0-2.63-2-5.34-4.61-5.47-1.8-.09-3.43.95-5,1.75A62.62,62.62,0,0,1,272,60.05a20.26,20.26,0,0,0-7.2,3.8,8.86,8.86,0,0,0-3.18,7.24c-2.14.92-3.31,3.35-3.41,5.68-.16,3.53,1.49,6.85,2.82,10,0,0,3.37,8.06,4.18,9.65.93,1.84,1.62,3.38,1.62,3.38L266.53,94a24.46,24.46,0,0,0,6.79-1.2,43.16,43.16,0,0,0,6.3-3,76,76,0,0,0,11.27-8.09c1.83-1.54,3.7-3.25,4.36-5.54A6.43,6.43,0,0,0,294,70.32,11.87,11.87,0,0,0,295.31,67.11Z" style="fill:#37474f"></path><path d="M271.43,71.34a11.32,11.32,0,0,1-3.9,8.15,20.89,20.89,0,0,1,.16,7.05,3.76,3.76,0,0,1-.53,1.42,1.69,1.69,0,0,1-1.24.78c-.68.05-1-.36-1.17-.89a17.12,17.12,0,0,0-1-2,4.1,4.1,0,0,0-.6-.76c-1-1-4.11-2.13-5.53,1.14s1.25,7.81,3.71,8.54c3.48,1,4.49-1.7,4.49-1.7l.82,15.2c2.31,2.42,11.78,5.73,14.3,8.59,1.13-2,4.37-6.73.1-9.45l-.1-4.89a35,35,0,0,0,6.88-.34c2.2-.43,4.24-2.34,4.77-5.78a59.89,59.89,0,0,0,0-19.5c-.81-4-3-6.62-4.16-7.22.05.86-.66,3-5,3.54A23.13,23.13,0,0,1,271.43,71.34Z" style="fill:#b16668"></path><path d="M280.9,102.53c-3.94-.36-6.75-.9-9-2.07a8.33,8.33,0,0,1-3.45-3.2,11,11,0,0,0,2,3.85c1.85,2.2,10.43,3.42,10.43,3.42Z" style="fill:#9a4a4d"></path><path d="M279.08,85.28a1.52,1.52,0,0,1-1.44,1.6,1.54,1.54,0,0,1-1.55-1.51,1.5,1.5,0,1,1,3-.09Z" style="fill:#263238"></path><path d="M277.93,79.7l-3.45,1.87a2.05,2.05,0,0,1,.82-2.73A1.92,1.92,0,0,1,277.93,79.7Z" style="fill:#263238"></path><path d="M292,81.3l-3.66-1.42a2.07,2.07,0,0,1,2.62-1.14A1.91,1.91,0,0,1,292,81.3Z" style="fill:#263238"></path><path d="M278.34,93.2l4.77,1.62A2.48,2.48,0,0,1,280,96.49,2.64,2.64,0,0,1,278.34,93.2Z" style="fill:#9a4a4d"></path><path d="M291,84.53A1.51,1.51,0,1,1,289.44,83,1.55,1.55,0,0,1,291,84.53Z" style="fill:#263238"></path><path d="M283.88,92.11l5-1a14.75,14.75,0,0,0-5.9-8.84Z" style="fill:#9a4a4d"></path><path d="M283.47,119.34c.88,3,6,24.13,5.31,31.57a45.87,45.87,0,0,1-3.07,11.1c-2.24,5.3-3.73.56-5-2.57a39.86,39.86,0,0,1-2.1-9c-.41-4,1.19-16.12.58-30.34A3.06,3.06,0,0,1,283.47,119.34Z" style="fill:#3393E4"></path><path d="M283.47,119.34c.88,3,6,24.13,5.31,31.57a45.87,45.87,0,0,1-3.07,11.1c-2.24,5.3-3.73.56-5-2.57a39.86,39.86,0,0,1-2.1-9c-.41-4,1.19-16.12.58-30.34A3.06,3.06,0,0,1,283.47,119.34Z" style="opacity:0.2"></path><path d="M283.66,112.56c2,1.75-.19,6.78-.19,6.78a5.79,5.79,0,0,0-4.26.73s-4.08-1.74-4.09-4.76c0-2.75,2.92-1.87,5-2.23S283.42,111.09,283.66,112.56Z" style="fill:#3393E4"></path><path d="M283.66,112.56c2,1.75-.19,6.78-.19,6.78a5.79,5.79,0,0,0-4.26.73s-4.08-1.74-4.09-4.76c0-2.75,2.92-1.87,5-2.23S283.42,111.09,283.66,112.56Z" style="opacity:0.2"></path><path d="M283.47,119.34c-.33-1.18-1.94-1.07-3.22-1.47a3.49,3.49,0,0,1-1.73-1.49c-.66-1.14,0-3,.93-3.22h0c-2,.14-4.33-.31-4.33,2.15,0,3,4.09,4.76,4.09,4.76A5.79,5.79,0,0,1,283.47,119.34Z" style="opacity:0.2"></path><path d="M280.43,113c-4-.84-13.22-4.65-14.13-9.23l-.11-2.51c-1.54,0-2.25,1.71-3,4.17-.32,6.48,6.51,12.39,13.37,14a12,12,0,0,1,1.51-4.25A4.87,4.87,0,0,1,280.43,113Z" style="fill:#37474f"></path><path d="M266.35,104.55s2.92,14.69,4.19,24.62,1,38,.34,55.76c-.49,13-2.42,36.91-2.42,36.91s-3.2.65-10.92-.63c-6.58-1.08-12.87-2.14-14.28-3,0,0,3.45-35.42,4.37-48.13a122.7,122.7,0,0,0,0-19.74l-4.36-25.94s-3.25-13.07,7.14-16.36A137.6,137.6,0,0,1,266.35,104.55Z" style="fill:#f5f5f5"></path><path d="M261.35,128.64c0-.62-.06-1.95-.16-3.63-.53-8.2.22-20.07,3-20.66l.25,1.13c-2,.43-2.34,15.47-2.09,19.46.11,1.71.19,3.07.17,3.75Z" style="fill:#3393E4"></path><path d="M266.14,99.77c-.82-.17-1.56.26-2.22,1.39s-2.47,4.52-2.47,4.52-.41,6.87.34,8.83c.65,1.7,5,9.72,5,9.72s-.28,7.8-.35,10.12,4.44,12,4.94,16.56c0,0,.23-18.34-.44-23.43-1.17-8.87-2.64-20-4.6-23.59Z" style="fill:#e6e6e6"></path><path d="M259.69,155.84h-.1l0-.81a5.29,5.29,0,0,0,2.66-1,10.08,10.08,0,0,1-2.21-2c-1.3-1.68-4.16-13.73-3.28-16.53.74-2.36,3-7.54,5.11-7.63H262c2.05,0,4.76,4.9,5.68,7.16,1.12,2.73-.7,15-1.86,16.76a9.75,9.75,0,0,1-2,2.18,5.09,5.09,0,0,0,2.73.76l.1.8a6.27,6.27,0,0,1-3.54-1A6.4,6.4,0,0,1,259.69,155.84ZM262,128.69h0c-1.21.05-3.38,3.9-4.37,7.06-.8,2.58,1.94,14.23,3.15,15.8a9.64,9.64,0,0,0,2.28,2,9.31,9.31,0,0,0,2.1-2.18c1.07-1.66,2.82-13.51,1.79-16C265.64,132.31,263.18,128.69,262,128.69Z" style="fill:#455a64"></path><path d="M267.71,155.09a1.19,1.19,0,1,1-1.24-1.14A1.19,1.19,0,0,1,267.71,155.09Z" style="fill:#263238"></path><path d="M260.8,155.38a1.2,1.2,0,0,1-1.14,1.24,1.19,1.19,0,1,1,1.14-1.24Z" style="fill:#263238"></path><path d="M267.84,140.35l-.69,0a.27.27,0,0,1-.24-.29,13.71,13.71,0,0,0-.21-4.59c-1.2-2.92-3.68-6.59-4.76-6.54s-3.24,3.91-4.18,6.92a13.55,13.55,0,0,0,.18,4.59.27.27,0,0,1-.22.31l-.68.1a.27.27,0,0,1-.3-.23,13.63,13.63,0,0,1-.14-5.14c.5-1.61,2.89-7.66,5.29-7.76s5.29,5.72,5.93,7.29a13.57,13.57,0,0,1,.3,5.13A.27.27,0,0,1,267.84,140.35Z" style="fill:#3393E4"></path><path d="M280.9,102.64c1.16.71,3.62,2.33,3.62,2.33,4.59,1.36,7.53,1.9,9.39,4.38,3.07,4.11,5.37,8.73,6.14,29.53s2.24,78.49,2.24,78.49-5.05,2.92-10.48,1.72c0,0,.19-65.38-.25-80.08s-2.67-21.88-5.85-26.72a16.39,16.39,0,0,0-4.78-8.28Z" style="fill:#f5f5f5"></path><path d="M285.85,112.67c3.19,4.85,5.13,11.44,5.57,26.14.05,1.75.24,5.38.28,8.33,0,0,.47-2.26.9-4.55s2.1-9.75,1.63-12.58-3.53-8.69-3.53-8.69a26.27,26.27,0,0,0-2.6-13.73,9.27,9.27,0,0,0-1.62-2.11,15,15,0,0,0-2-1.35c-1.92-1.17-2.53-1.4-3.6-1.49l0,1.37A17.86,17.86,0,0,1,285.85,112.67Z" style="fill:#e6e6e6"></path><path d="M280.93,104a10.13,10.13,0,0,1,3.43,2.63c4.15,6.12,1.29,11.4,1.29,11.4a9.68,9.68,0,0,0-2-3.45,5.26,5.26,0,0,0-3.18-1.57c1.26-1.35,1.25-3.52.57-5.6Z" style="fill:#37474f"></path><path d="M250.21,109.43a12.85,12.85,0,0,0-11.62,9.06c-1.69,4.92-3.87,16.83-6.39,24.6-4.41-2.14-15.1-7.31-17.23-9.18-2.6-2.18-4.36-5.09-5.37-6.33a24.4,24.4,0,0,1-2.56-3.91,19.86,19.86,0,0,1-1.88-4.74c-.57-1.64-3-.08-3,2.86a14.61,14.61,0,0,0,.56,4.39c-1.06-.09-3.77-.11-4.25-.14-1.67-.14-6.77-.05-6.26,2.65.12.61.53,1.17.47,1.78a4.25,4.25,0,0,1-.25.84,3.12,3.12,0,0,0,.74,3.08,2.39,2.39,0,0,1,.74,1.26,4,4,0,0,0,.48,1.48,6,6,0,0,0,1,.84,4.93,4.93,0,0,1,.94,1.36,5.85,5.85,0,0,0,.91,1.39c.91.94,2.37.69,3.56.68a50.46,50.46,0,0,1,5.29-.22c3.13.72,14.56,10.82,24.35,16.14,3.35,1.82,6.08,2.73,8.21,1.6h0c1.8-.71,2.68-2.67,3.82-5.48,2.6-6.57,9.31-24.1,9.31-24.1C254.31,122.05,252.12,113,250.21,109.43Z" style="fill:#b16668"></path><path d="M220.47,136.78l-5.5-2.87a13.53,13.53,0,0,1-4.81,9.58l5.45,4.51C219.08,145,221,141.36,220.47,136.78Z" style="fill:#455a64"></path><path d="M250.41,108.06c1.37,1.45,5.37,13.22,3.24,19.34s-10.22,26.9-11.5,29.62-3.43,4.7-9.54,2.4S212.87,147,212.87,147a26,26,0,0,0,5.27-11.93l13.48,6s3.7-16,5.41-21.68S242.29,109.09,250.41,108.06Z" style="fill:#e6e6e6"></path><path d="M201.86,127.4c1.58,0,2.29.79,2.94,2.86.38,1.23,1.5,3.36,3.12,3.82a3.29,3.29,0,0,1-2-.18c-.85-.43-1-.44-1.26,0a2.49,2.49,0,0,1-.74.83,1.66,1.66,0,0,1,.77,1.84c-.28,1.26-3.13,2.24-5.87,1.81,0,0,4.19-.09,4.67-1.59s-2-2.34-3.67-2.25c0,0,4-.35,4.11-1.74s-1.66-1.79-4-1.62c0,0,3.21-.46,3.39-1.66C203.56,128.09,202.4,127.68,201.86,127.4Z" style="fill:#9a4a4d"></path></g></g></g><g id="freepik--characters-2-and-3--inject-49"><g id="freepik--Characters--inject-49"><path d="M395.76,286.13c1.72,0,1.11,6.55,1.56,10.84.47,4.6,1.46,8.1,1.89,11.87a15.28,15.28,0,0,1-1.44,9.65c-1.2,2.75-7.24,6.52-9.53,2.59s-2.78-8.44-2.52-12.73a78.72,78.72,0,0,0-.12-10.8c-.2-3.36-1.46-10.2.77-10.62l.11,1.16c.8,1.6,8.45,2.7,9.35-.38Z" style="fill:#37474f"></path><path d="M361,292.69c.52,2.16,0,8.05,0,8.05s-.94,2-4.25,3.39l-1.49-8.2Z" style="fill:#263238"></path><polygon points="356.76 304.13 349.45 301.73 347.68 295.24 355.91 299.4 356.76 304.13"></polygon><path d="M349.16,285.18l0-1.53c-1,.48-3.18,8.49-6.14,14-2.7,5-8.05,7.8-9.79,10-2.33,2.91,2.19,6.68,9.44,5.12,3.6-.77,9.05-3.07,10.53-5.5s2-6.89,3.19-8.67,4.08-3.84,4.69-5.88a11.1,11.1,0,0,0,0-5.61c-.57-1.85-1.06-4.08-1.7-3.88l0,1.4c-.48,1-2.23,2.15-5.9,2.34C351.64,287,350,286.77,349.16,285.18Z" style="fill:#37474f"></path><path d="M347.93,160.38c-1.71,11.28-3.88,43.86-3.62,66.48.28,24.26,0,64.67,0,64.67a21.33,21.33,0,0,0,9,2.52,24.24,24.24,0,0,0,9.49-1.62s4.62-33.65,5.37-42.05a79.25,79.25,0,0,0-1.1-18.92l2.78-20.21s2.66,19.63,3.32,23.22,10.07,62.93,10.07,62.93,2.69,1.51,7.79,1.38a13.6,13.6,0,0,0,8.12-2.95S399,250.23,398,243s-2.67-13.39-3-18.14-1.41-32.37-1.76-42.68c-.39-11.41-.82-16.82-4.67-28.17C388.59,154,349.08,152.83,347.93,160.38Z" style="fill:#455a64"></path><path d="M369.83,211.25l-3.91-27.71s-8.19-3-11.29-7.11a16.61,16.61,0,0,0,8.94,9l5,26.37-.75,14.35Z" style="fill:#37474f"></path><path d="M352.23,154.59c5.4-29.53,8-37.67,8.75-44.2-9-.32-14.12,3.46-16.69,13.26-1.19,4.52-3.41,19.6-5.11,26.91-3.84,8.16-5,17.57-9.19,23.09a4.79,4.79,0,0,1-2.81,1.81c-2.55.88-3.32,2.29-5.41,3.66-1.63,1.07-2.83,1.16-2.76,1.64a2.22,2.22,0,0,0,2.55,1.62,11.11,11.11,0,0,0,3.05-.85,22.84,22.84,0,0,1-4.48,4.51c-4,3.12-3.82,6.25,2.49,7.76,3.95.95,7.64-1.49,13.6-8.84a63.35,63.35,0,0,0,6.26-10C347.44,165.5,350.65,160.61,352.23,154.59Z" style="fill:#ffa8a7"></path><g id="freepik--Chest--inject-49"><path d="M370.86,109.51l14.31,1.29a17.55,17.55,0,0,1,2.76,1.51c2.84,2.3,3.05,6.78,3.53,10.09.73,5-2.85,20.1-4.12,24.82,0,0,4.66,12,5.1,21.28-12.28,7.2-34.39,9.75-45.92.27.57-6.65,3-17,2.93-17.22-.23-5-.43-9.33-.43-9.33-6.28-6.15-4-12.88-1.84-17.3,4.4-8.82,12.11-13.77,13.8-14.53Z" style="fill:#3393E4"></path><path d="M360.47,142.88s3.71,3.7,10.5,1.85a12.62,12.62,0,0,0,8.69-8.09s.82,7.43-8.41,9.84C363.34,148.54,360.47,142.88,360.47,142.88Z" style="opacity:0.1"></path></g><g id="freepik--Arms--inject-49"><g id="freepik--Arm--inject-49"><path d="M426.93,183.59a13,13,0,0,0-9.95,4c-3.5,3.33-7.17,6.81-12.12,11.74l-10-17.12-8,6.29a148.66,148.66,0,0,0,8.7,18.31c1.56,2.61,4.31,8.57,9.08,7,4.5-1.52,17.24-12.14,17.24-12.14Z" style="fill:#f28f8f"></path><path d="M394.85,182.2l3.17,5.42a8.75,8.75,0,0,1-10.34,2.88l-.81-2Z" style="fill:#b16668"></path><path d="M429.09,183c-5.55-.18-8.47.78-12.51,4.47-4.64,4.22-10.53,10.13-10.53,10.13A26,26,0,0,0,412.94,209l14.58-10.92Z" style="fill:#455a64"></path></g><path d="M410.37,143.75c-11.45-24.72-14-29.63-18.7-31.67a22.18,22.18,0,0,0-6.5-1.28c-1.62,3-5.22,13.89,1.57,20.5,0,0,7.71,11.55,11.19,17.72-.71,6.38-1.8,15.82-3.85,20.24a5.33,5.33,0,0,1-2.46,2.3c-2.42,1.22-2.62,2.41-4.62,3.8-1.56,1.08-2.79,1.19-2.66,1.66a2.58,2.58,0,0,0,2.83,1.53,11.33,11.33,0,0,0,3.05-.9,19.55,19.55,0,0,1-4.09,4.5c-3.78,3.14-4.21,5.42,2.49,6.76,4.2.84,7.85-.92,12.05-8.88A66.15,66.15,0,0,0,404.8,171c1.93-5.85,4.87-13.24,6.33-19.93C412,147,411,145.21,410.37,143.75Z" style="fill:#ffa8a7"></path><path d="M392.64,175c3.66.92,4.77,4.77,1.77,6.83s-9.08,1-9.08,1L384,184.28c-.67-.57.2-3.57,1.51-5.47C387,176.63,389.37,174.17,392.64,175Z" style="fill:#f28f8f"></path></g><path d="M378.4,103.12c2.53-2.27,6.23-4.82,8.6-8.53,4.18-6.56,3.73-16-1.84-19.86,0-4.41-5-12.21-17-11.65a33.3,33.3,0,0,0-5.63.77,38.73,38.73,0,0,0-5.13,1.64,18.48,18.48,0,0,1-6.77.94c-1.13,0-2.39-.13-3.27.59a3.26,3.26,0,0,0-.94,2.82A6.84,6.84,0,0,0,350,75.32a3,3,0,0,0-1.13,2.07,6.16,6.16,0,0,0,.46,3.69,7.65,7.65,0,0,0,3.61,3.1c3.08,1.65,6.47,2.07,9.9,2.36,1.44.13,2.89.23,4.33.31a7.4,7.4,0,0,1,1.78.08Z" style="fill:#455a64"></path><path d="M384.56,86.77c-1.92-2.15-5.13-2-7.41.84-3,1.13-5.88-2.6-5-11.81-6.43,3.32-17,2.82-17.63-1.69-1.85,3.58-3.06,8.52-3,16.89,0,10.36,3.52,12.23,5.2,13s5,1,8.12.49l-.09,6.26s-6.58,5.47-.58,6.32c7.51,1.08,14-6.13,14-6.13l.45-14.68a4.54,4.54,0,0,0,5.11-.88C386.11,92.88,386.38,88.8,384.56,86.77Z" style="fill:#ffa8a7"></path><circle cx="380.86" cy="93.91" r="1.22" style="fill:#3393E4"></circle><circle cx="380.86" cy="93.91" r="1.22" style="opacity:0.4"></circle><path d="M357.76,81.7l-3.37,1.46a1.76,1.76,0,0,1,.88-2.41A1.93,1.93,0,0,1,357.76,81.7Z" style="fill:#263238"></path><path d="M370.1,83.71l-3.34-1.52a1.76,1.76,0,0,1,2.37-1A1.93,1.93,0,0,1,370.1,83.71Z" style="fill:#263238"></path><path d="M365.61,87.19a1.54,1.54,0,0,0,1.32,1.73,1.57,1.57,0,0,0,1.69-1.4,1.52,1.52,0,1,0-3-.33Z" style="fill:#263238"></path><path d="M354.77,86.41a1.41,1.41,0,1,0,1.57-1.3A1.44,1.44,0,0,0,354.77,86.41Z" style="fill:#263238"></path><polygon points="361.93 85.64 361.73 94.2 356.67 93.07 361.93 85.64" style="fill:#f28f8f"></polygon><path d="M366.67,95.64l-4.24,1.06A2.14,2.14,0,0,0,365,98.36,2.28,2.28,0,0,0,366.67,95.64Z" style="fill:#f28f8f"></path><path d="M364.81,104.47c3-.39,9.28-2.16,10.26-4.62a6.4,6.4,0,0,1-2.19,3.14c-1.88,1.59-8.05,3.39-8.05,3.39Z" style="fill:#f28f8f"></path><g id="freepik--character--inject-49"><path d="M458.14,323.19c-2.69,1.32-5.79,1.1-8.89-.32l-1.92-17.09,11.79-4.7Z" style="fill:#f28f8f"></path><path d="M438.09,339a4,4,0,0,0,0,2.65c.33.55,2.24,2.31,5.8,2.69,3.41.37,6.47,0,8.52-1.19a5.91,5.91,0,0,0,3.33-4.5c.25-1.94.1-3.82,1.09-5.29s2.32-2.86,2.64-3.59a7.54,7.54,0,0,0,.17-4Z" style="fill:#263238"></path><path d="M448.06,322.34a9.22,9.22,0,0,1-.5,2.14,19.5,19.5,0,0,1-2.24,4.2,17.74,17.74,0,0,1-1.49,2c-1.08,1.19-2.4,2.15-3.53,3.29a7,7,0,0,0-2.26,4.12c-.24,2.67,2.63,3.68,4.86,4.16a16.42,16.42,0,0,0,7.28-.11,6.65,6.65,0,0,0,5.08-5.16c.15-.73.13-1.5.25-2.24a10.47,10.47,0,0,1,2.25-4.61,14.31,14.31,0,0,0,1.68-2.49c.76-1.63.27-3.52-.12-5.18-.33-1.44-.32-2.69-1-2.67l0,.78c-.18.3-.47.3-.7.72s-.29.64-.48,1a2.88,2.88,0,0,1-1.23,1.26c0-1,0-2,0-3a1.41,1.41,0,0,0-.21-.9,1.39,1.39,0,0,0-.84-.4,19.09,19.09,0,0,0-5.71-.68,1.1,1.1,0,0,0-.78.31,1.12,1.12,0,0,0-.15.68A24.52,24.52,0,0,1,448.06,322.34Z" style="fill:#455a64"></path><path d="M444.94,329.23c1-.71,3.26-.64,4.47-.46a7.21,7.21,0,0,1,3.43,1.34.8.8,0,0,0,1-.05h0a.74.74,0,0,0,0-1.14,7.55,7.55,0,0,0-3.85-1.58c-3-.32-3.9.16-3.9.16S444.68,328.33,444.94,329.23Z" style="fill:#f5f5f5"></path><path d="M442.55,331.89c1.28-.69,3.73-.5,4.95-.32a7,7,0,0,1,3.33,1.4.79.79,0,0,0,1,0h0a.75.75,0,0,0,0-1.15,7.88,7.88,0,0,0-3.94-1.7c-3-.32-3.8.27-3.8.27A2.48,2.48,0,0,0,442.55,331.89Z" style="fill:#f5f5f5"></path><path d="M451.28,324.5a7.41,7.41,0,0,0-3.79.19c-.54.27-.92,1.1-.59,1.32a6.9,6.9,0,0,1,3.37-.34,10,10,0,0,1,3.21,1,8.32,8.32,0,0,1,.82.45.72.72,0,0,0,1-.27h0a.68.68,0,0,0-.23-.87A9.67,9.67,0,0,0,451.28,324.5Z" style="fill:#f5f5f5"></path><path d="M430.82,312.24c-1.38,2.54-7.6,3.12-9.38-.21l-.75-16.84,11.44.25Z" style="fill:#f28f8f"></path><path d="M402.32,322.65a3.18,3.18,0,0,0,.08,2.38c.32.71,3.92,2.84,8.84,2.61a20.38,20.38,0,0,0,10.23-3.33c1.9-1.2,3.86-1.39,6.29-1.47s5.18-1.24,5.74-2.37a5.38,5.38,0,0,0,0-3.1Z" style="fill:#263238"></path><path d="M422.39,308l-1.27-.49a1.08,1.08,0,0,0-.72-.1c-.32.11-.45.48-.54.8a13.64,13.64,0,0,1-.58,2.13,5.4,5.4,0,0,1-1.41,1.41,21.81,21.81,0,0,1-4,2.45c-1.62.83-3.21,1.47-4.88,2.18s-4,1.14-5.3,2c-2,1.26-2.28,4.52-.11,5.85,1.87,1.16,6.83,2.47,12.09,1.1,2.87-.75,6.09-3.72,9.84-3.93,2.38-.14,6.41-.72,8-2.49.59-.79-.11-3.34-.69-5.55-.62-2.41-.8-6.15-1.6-6-.07.8-.77,1.24-1.2,1.9a15.46,15.46,0,0,0-.9,1.88c-.29.63-.2,1.27-.79,1.62a1.6,1.6,0,0,1-1.93-.15c-.68-.74-.24-2-.73-2.88A3,3,0,0,0,424,308.6Z" style="fill:#455a64"></path><path d="M416.13,312.92a2.2,2.2,0,0,1,1.78-1.14c1.09-.18,3,.66,4.15,1.66a.9.9,0,0,1-.16,1.47h0a.88.88,0,0,1-1-.14A6.82,6.82,0,0,0,416.13,312.92Z" style="fill:#f5f5f5"></path><path d="M412.74,314.72c0-.29.7-1.1,2.1-1a7.92,7.92,0,0,1,4.54,1.81.87.87,0,0,1-.15,1.41h0a.86.86,0,0,1-1-.13A6.79,6.79,0,0,0,412.74,314.72Z" style="fill:#f5f5f5"></path><path d="M409,316.34a2.84,2.84,0,0,1,2.18-.93,7.61,7.61,0,0,1,4.34,1.83.86.86,0,0,1-.15,1.41h0a.85.85,0,0,1-1-.13A6.5,6.5,0,0,0,409,316.34Z" style="fill:#f5f5f5"></path><path d="M456.33,225.84s.75,10,1,15.85.81,26.72,1.51,29.14c2.82,9.75.91,24.86.56,43.71,0,0-6.49,2.76-12.07.23,0,0-6-36.4-7.16-42.68s-3.18-18-3.18-18-1.74,15.36-1.91,17.87c1.21,11.78-.42,16.52-2.8,31.11,0,0-2,1.38-6.94.8s-5.72-2.4-5.72-2.4-.93-31.92-1.27-38.2-.83-29.25,0-37.43Z" style="fill:#455a64"></path><path d="M437,254.09l-1-6.27s-8.35-.68-12-4.85c0,0,1.22,5.48,10,6.34l1.1,6.05,0,16.6Z" style="fill:#37474f"></path><path d="M452.22,184.63c.61,2.62,4.34,12.51,4.35,12.37l-.69,20.79,1.44,15.76c-5.19,6.14-27.5,8.64-39.73.47,0,0-.18-30.43.46-36.44,1.1-10.44,4.72-14,11-14.6l14.36.66Z" style="fill:#3393E4"></path><path d="M470.63,215.68c-7.53-26.67-12.12-28.75-17.38-30.32-1.06,2.69-3,5.66-1.76,13.42,1.4,3.75,6.79,14.81,8.66,21,.57,1.87,1.05,12.54.39,18.41a7.17,7.17,0,0,1-1.78,3.38c-1.49,1.75-1.42,3.33-2.55,5.12s-1.22,2.08-1,2.4,1.13.6,2.4-.12a6.59,6.59,0,0,0,2.47-2.5,37.4,37.4,0,0,1-1.76,6.06c-1.59,4,.31,6.85,5.08,4.1,3.4-2,5.55-3.81,6.74-11.81.47-3.16,1-7.26,1.11-10.21C471.9,222.83,472.08,220.81,470.63,215.68Z" style="fill:#f28f8f"></path><path d="M452.22,184.63s6,.11,8.8,4.47c3.48,5.49,8.05,19.29,8.05,19.29a15.28,15.28,0,0,1-5.43,3.67,16.29,16.29,0,0,1-6.55,1.3l-5.21-12.06A16.56,16.56,0,0,1,452.22,184.63Z" style="fill:#455a64"></path><path d="M418.91,157.48a5.4,5.4,0,1,0,5.39-5.4A5.39,5.39,0,0,0,418.91,157.48Z" style="fill:#263238"></path><path d="M449.71,165.86s-1.75,8.19-2.44,9.54a3.7,3.7,0,0,1-2.15,1.73l.55-6.65Z" style="fill:#263238"></path><path d="M447.42,153.46a3.5,3.5,0,0,1,3.48,1.42c1.29,1.59.6,6.48-1.19,11l-3.29.38Z" style="fill:#263238"></path><path d="M420.49,165.63a28.33,28.33,0,0,0-.19,4.09,10.7,10.7,0,0,0,2.93,7.7c2.16,2.23,5.18,2.94,8.17,2.92l.71,0-.25,4c-6.14,6.38,9.64,7.13,13.26.35l.55-14.15a3,3,0,0,0,3.61.78c1.61-.6,4-3.4,2.7-6.37a2.89,2.89,0,0,0-3.46-1.42c-1.44.39-2.27,2.31-4,2.07s1.12-3.55.62-4.61c-.85-1.84-2.8-9.89-20.08-8.07-2.11,1.44-2.38,1.55-3.53,6.38A43.43,43.43,0,0,0,420.49,165.63Z" style="fill:#f28f8f"></path><path d="M435.69,145.55a2.36,2.36,0,0,0-.91-1.68,4.34,4.34,0,0,0-6.4,1,4.38,4.38,0,0,0-5,.21,3.5,3.5,0,0,0-1.24,4c-1.68-.26-2.83,1.22-3.25,2.38a4.44,4.44,0,0,0,2.52,5.38c1.42.64,3.77,0,4.12-1a3.4,3.4,0,0,0,3.68,2.58,3.3,3.3,0,0,0,2.88-1.76c.91,2,3.71,1.75,4.37,1.61a4,4,0,0,0,3-2.35,6.63,6.63,0,0,0,.92,4.14,4.64,4.64,0,0,0,3.64,2,11.28,11.28,0,0,0-.46,4.08,1.78,1.78,0,0,0,.72,1.55c.65.33,1.26-.27,1.68-.86s.71-2.15,2.05-3.18c.9-.7.31-1.51.28-2.37a28.38,28.38,0,0,1,.49-4.85c.25-1.89.95-3,.25-5.27a4.33,4.33,0,0,0-2.25-2.71,4.94,4.94,0,0,0-3.47,0,4.42,4.42,0,0,0-5.42-4A4.51,4.51,0,0,0,435.69,145.55Z" style="fill:#263238"></path><path d="M432.11,180.32s5.24-.47,8.38-2.69a13.49,13.49,0,0,0,3.34-4,11.35,11.35,0,0,1-1.8,4.43c-2.85,3.36-10,4.13-10,4.13Z" style="fill:#b16668"></path><path d="M433.84,165.75a1.36,1.36,0,1,0,1.4-1.38A1.39,1.39,0,0,0,433.84,165.75Z" style="fill:#263238"></path><path d="M437.39,162.81l-2.72-1a1.46,1.46,0,1,1,2.72,1Z" style="fill:#263238"></path><path d="M425.24,161l-2.72,1.16a1.48,1.48,0,0,1,2.72-1.16Z" style="fill:#263238"></path><path d="M423.25,164.93a1.37,1.37,0,0,0,1.32,1.44A1.39,1.39,0,0,0,426,165a1.36,1.36,0,1,0-2.72-.06Z" style="fill:#263238"></path><polygon points="429.68 164.64 429.58 170.77 425.78 169.94 429.68 164.64" style="fill:#b16668"></polygon><path d="M434.31,172.1l-3.63,1.36a1.92,1.92,0,0,0,2.47,1.21A2,2,0,0,0,434.31,172.1Z" style="fill:#b16668"></path></g></g></g><g id="freepik--Medicine--inject-49"><g id="freepik--Capsule--inject-49"><path d="M274.28,438.61a3,3,0,0,1-1.27-2.8,9.58,9.58,0,0,1,4.33-7.51,3,3,0,0,1,3.07-.3l5.57,3.22a6.14,6.14,0,0,1-6.14,10.63Z" style="fill:#f5f5f5"></path><path d="M266.6,434.17a6.14,6.14,0,1,1,6.14-10.63l7.67,4.46a3,3,0,0,0-3.07.3,9.58,9.58,0,0,0-4.33,7.51,3,3,0,0,0,1.27,2.8Z" style="fill:#3393E4"></path><path d="M268,425.17a2.33,2.33,0,0,0,.86,3.2l9.27,5.39a8.84,8.84,0,0,0,1.27-4.28c0-.15,0-.29,0-.42l-8.18-4.75A2.34,2.34,0,0,0,268,425.17Z" style="fill:#fff;opacity:0.4"></path><path d="M274.28,438.61a3,3,0,0,1-1.27-2.8,9.58,9.58,0,0,1,4.33-7.51,3,3,0,0,1,3.07-.3l5.57,3.22a6.14,6.14,0,0,1-6.14,10.63Z" style="fill:#f5f5f5"></path><path d="M277.34,428.3a9.58,9.58,0,0,0-4.33,7.51,3,3,0,0,0,1.27,2.8l-.44-.25-.33-.19a3.06,3.06,0,0,1-1.27-2.81,9.58,9.58,0,0,1,4.33-7.5,3,3,0,0,1,3.07-.31l.77.45A3,3,0,0,0,277.34,428.3Z" style="opacity:0.1"></path><path d="M289,435.89h0a6.13,6.13,0,0,1-9.17,6l-5.56-3.24a3,3,0,0,1-1.27-2.8,7.36,7.36,0,0,1,.27-1.88l9.3,5.38C285.64,441.08,289,437.9,289,435.89Z" style="fill:#ebebeb"></path><path d="M286.89,436.12a2.34,2.34,0,0,1-3.21.86l-9.4-5.44a8.86,8.86,0,0,1,3.06-3.24l.38-.19,8.31,4.8A2.35,2.35,0,0,1,286.89,436.12Z" style="fill:#fff"></path><path d="M264.78,425.15l.22-.28.17-.19.2-.19.21-.21.11-.09a6.11,6.11,0,0,1,1.05-.72l0,0,.41-.2h0c-1.72,1-2.81,5.51.25,7.27,1.05.61,2.61,1.54,5.85,3.41a7.36,7.36,0,0,0-.27,1.88,3,3,0,0,0,1.27,2.8l-7.68-4.44a6.14,6.14,0,0,1-2.25-8.38,5.66,5.66,0,0,1,.31-.48Z" style="opacity:0.1"></path></g><g id="freepik--capsule--inject-49"><path d="M294.67,399a3.07,3.07,0,0,0,1.26-2.81,9.61,9.61,0,0,0-4.33-7.51,3,3,0,0,0-3.06-.3L283,391.57a6.14,6.14,0,1,0,6.13,10.63Z" style="fill:#f5f5f5"></path><path d="M302.34,394.51a6.14,6.14,0,0,0-6.13-10.63l-7.67,4.46a3,3,0,0,1,3.06.3,9.61,9.61,0,0,1,4.33,7.51,3.07,3.07,0,0,1-1.26,2.81Z" style="fill:#3393E4"></path><path d="M301,385.51a2.35,2.35,0,0,1-.86,3.21l-9.28,5.38a8.92,8.92,0,0,1-1.27-4.28c0-.14,0-.28,0-.42l8.18-4.75A2.35,2.35,0,0,1,301,385.51Z" style="fill:#fff;opacity:0.4"></path><path d="M294.67,399a3.07,3.07,0,0,0,1.26-2.81,9.61,9.61,0,0,0-4.33-7.51,3,3,0,0,0-3.06-.3L283,391.57a6.14,6.14,0,1,0,6.13,10.63Z" style="fill:#f5f5f5"></path><path d="M291.6,388.64a9.61,9.61,0,0,1,4.33,7.51,3.07,3.07,0,0,1-1.26,2.81l.43-.26.34-.19a3,3,0,0,0,1.26-2.8,9.58,9.58,0,0,0-4.33-7.51,3,3,0,0,0-3.06-.3l-.77.44A3,3,0,0,1,291.6,388.64Z" style="opacity:0.1"></path><path d="M279.94,396.23h0a6.13,6.13,0,0,0,9.16,6l5.57-3.24a3.07,3.07,0,0,0,1.26-2.81,7.4,7.4,0,0,0-.26-1.88l-9.31,5.39C283.3,401.42,280,398.24,279.94,396.23Z" style="fill:#ebebeb"></path><path d="M282.06,396.47a2.34,2.34,0,0,0,3.2.86l9.41-5.44a9,9,0,0,0-3.07-3.25l-.37-.19-8.31,4.81A2.34,2.34,0,0,0,282.06,396.47Z" style="fill:#fff"></path><path d="M304.16,385.49a2.88,2.88,0,0,0-.22-.27,1.54,1.54,0,0,0-.17-.19,1.8,1.8,0,0,0-.19-.2l-.21-.2a.52.52,0,0,1-.11-.1,6.38,6.38,0,0,0-1.06-.72l0,0-.41-.2h0c1.72,1,2.81,5.51-.25,7.28-1,.6-2.61,1.54-5.84,3.4a7.4,7.4,0,0,1,.26,1.88,3.07,3.07,0,0,1-1.26,2.81l7.67-4.45a6.12,6.12,0,0,0,2.25-8.38,3.94,3.94,0,0,0-.31-.48Z" style="opacity:0.1"></path></g><g id="freepik--Capsules--inject-49"><path d="M70.3,401.35l104,60.07a12.33,12.33,0,0,0,11.16,0l56.91-32.86c3.08-1.78,3.08-4.66,0-6.44l-104-60.07a12.33,12.33,0,0,0-11.16,0L70.3,394.91C67.21,396.69,67.22,399.57,70.3,401.35Z" style="fill:#e0e0e0"></path><path d="M70.3,398.33l104,60.06a12.35,12.35,0,0,0,11.17,0l56.91-32.85c3.08-1.78,3.08-4.67,0-6.45L138.37,359a12.33,12.33,0,0,0-11.16,0L70.3,391.88C67.21,393.66,67.21,396.55,70.3,398.33Z" style="fill:#fafafa"></path><path d="M185.5,458.39l51.32-29.63h0c-16.16,8.28-46.85,26-51.39,27.76s-7.23,2.54-15.67-2.33S76,401.64,76,401.64l98.3,56.75A12.35,12.35,0,0,0,185.5,458.39Z" style="fill:#fafafa"></path><path d="M210.93,438a1.52,1.52,0,0,1-1.39,0L105.83,378.05c-.39-.23-.41-.59,0-.8a1.55,1.55,0,0,1,1.39,0l103.71,59.88C211.28,437.38,211.3,437.74,210.93,438Z" style="fill:#e0e0e0"></path><path d="M127.35,382.89h0a7.5,7.5,0,0,0,1,.5c.08,0,.35.13.41.14a12.28,12.28,0,0,0,9.38-.84l9.78-5.64L148,377a7,7,0,0,0,.27-12.23,6,6,0,0,0-1-.48l-.41-.15a12.37,12.37,0,0,0-9.38.83l-9.78,5.64-.07.06a6.86,6.86,0,0,0-2.83,2.7,7,7,0,0,0,2.55,9.53Z" style="fill:#fafafa;opacity:0.7000000000000001;mix-blend-mode:hard-light"></path><path d="M148.3,370.8c-2.89-1.67-7.74-1.58-10.82.2l-9.78,5.65c-3.09,1.78-3.24,4.57-.35,6.24s7.74,1.58,10.82-.2l9.78-5.64C151,375.27,151.19,372.47,148.3,370.8Z" style="fill:#e0e0e0"></path><path d="M151,374a7,7,0,0,0-2.69-9.27,6,6,0,0,0-1-.48l-.41-.15a12.66,12.66,0,0,0-8.17.26c4.59-.47,7.41-.6,10.29,1.82A7,7,0,0,1,151,374Z" style="fill:#fff"></path><path d="M133.58,369.35a2.9,2.9,0,0,1,2.89.29,9,9,0,0,1,4.09,7.07,2.88,2.88,0,0,1-1.2,2.65l-5.26,3a5.79,5.79,0,0,1-5.78-10Z" style="fill:#f5f5f5"></path><path d="M140.83,365.18a5.78,5.78,0,0,1,5.78,10l-7.25,4.16a2.88,2.88,0,0,0,1.2-2.65,9,9,0,0,0-4.09-7.07,2.9,2.9,0,0,0-2.89-.29Z" style="fill:#3393E4"></path><path d="M147.53,370.55a2.21,2.21,0,0,0-3-.82l-8.77,5a8.34,8.34,0,0,0,2.89,3.05l.36.19,7.73-4.44A2.21,2.21,0,0,0,147.53,370.55Z" style="fill:#fff;opacity:0.4"></path><path d="M133.58,369.35a2.9,2.9,0,0,1,2.89.29,9,9,0,0,1,4.09,7.07,2.88,2.88,0,0,1-1.2,2.65l-5.26,3a5.79,5.79,0,0,1-5.78-10Z" style="fill:#f5f5f5"></path><path d="M140.56,376.71a9,9,0,0,0-4.09-7.07,2.9,2.9,0,0,0-2.89-.29l.41-.24.32-.18a2.9,2.9,0,0,1,2.89.29,9,9,0,0,1,4.08,7.08,2.89,2.89,0,0,1-1.19,2.64l-.73.42A2.88,2.88,0,0,0,140.56,376.71Z" style="opacity:0.1"></path><path d="M128.86,382.66h0a5.78,5.78,0,0,1-.54-10.3l5.26-3a2.9,2.9,0,0,1,2.89.29,6.57,6.57,0,0,1,1.41,1.1l-8.78,5.06C126.22,377.46,127.24,381.68,128.86,382.66Z" style="fill:#e0e0e0"></path><path d="M129.67,380.82a2.22,2.22,0,0,1,.81-3l8.88-5.11a8.37,8.37,0,0,1,1.2,4c0,.14,0,.27,0,.4l-7.84,4.52A2.22,2.22,0,0,1,129.67,380.82Z" style="fill:#fff"></path><path d="M149.05,368l.12.31c0,.07.05.15.08.22a2.33,2.33,0,0,0,.07.25l.06.27,0,.14a6.07,6.07,0,0,1,.09,1.2v0l0,.43h0c0-1.89-3.17-4.89-6.06-3.23-1,.57-2.48,1.41-5.53,3.17a6.57,6.57,0,0,0-1.41-1.1,2.9,2.9,0,0,0-2.89-.29l7.25-4.17a5.78,5.78,0,0,1,7.9,2.12c.09.15.17.31.25.47Z" style="opacity:0.1"></path><path d="M90.87,404.15h0a6.92,6.92,0,0,0,1,.49l.4.14a12.3,12.3,0,0,0,9.39-.83l9.78-5.65.07-.05a7,7,0,0,0,.28-12.24,7.35,7.35,0,0,0-1-.48l-.41-.14a12.32,12.32,0,0,0-9.38.82l-9.78,5.65-.08.05a7,7,0,0,0-.27,12.24Z" style="fill:#fafafa;opacity:0.7000000000000001;mix-blend-mode:hard-light"></path><path d="M111.81,392.05c-2.89-1.67-7.73-1.58-10.82.2l-9.78,5.65c-3.08,1.78-3.23,4.58-.34,6.25s7.73,1.58,10.82-.2l9.78-5.65C114.55,396.52,114.7,393.72,111.81,392.05Z" style="fill:#e0e0e0"></path><path d="M114.51,395.28a7,7,0,0,0-2.69-9.27,7.35,7.35,0,0,0-1-.48l-.41-.14a12.59,12.59,0,0,0-8.17.25c4.58-.47,7.41-.6,10.28,1.82A7.08,7.08,0,0,1,114.51,395.28Z" style="fill:#fff"></path><path d="M97.1,390.61a2.87,2.87,0,0,1,2.89.28,9,9,0,0,1,4.08,7.08,2.87,2.87,0,0,1-1.19,2.64l-5.26,3a5.79,5.79,0,1,1-5.79-10Z" style="fill:#f5f5f5"></path><path d="M104.34,386.43a5.79,5.79,0,1,1,5.79,10l-7.25,4.16a2.87,2.87,0,0,0,1.19-2.64,9,9,0,0,0-4.08-7.08,2.87,2.87,0,0,0-2.89-.28Z" style="fill:#3393E4"></path><path d="M111.05,391.8a2.22,2.22,0,0,0-3-.81l-8.76,5a8.45,8.45,0,0,0,2.89,3.06l.35.18,7.74-4.44A2.22,2.22,0,0,0,111.05,391.8Z" style="fill:#fff;opacity:0.4"></path><path d="M97.1,390.61a2.87,2.87,0,0,1,2.89.28,9,9,0,0,1,4.08,7.08,2.87,2.87,0,0,1-1.19,2.64l-5.26,3a5.79,5.79,0,1,1-5.79-10Z" style="fill:#f5f5f5"></path><path d="M104.07,398a9,9,0,0,0-4.08-7.08,2.87,2.87,0,0,0-2.89-.28l.41-.24.31-.18a2.87,2.87,0,0,1,2.89.28,9,9,0,0,1,4.09,7.08,2.86,2.86,0,0,1-1.2,2.64l-.72.42A2.87,2.87,0,0,0,104.07,398Z" style="opacity:0.1"></path><path d="M92.38,403.91h0a5.77,5.77,0,0,1-.55-10.29l5.27-3a2.87,2.87,0,0,1,2.89.28,7.18,7.18,0,0,1,1.4,1.11l-8.78,5.05C89.73,398.72,90.76,402.93,92.38,403.91Z" style="fill:#e0e0e0"></path><path d="M93.19,402.07a2.21,2.21,0,0,1,.81-3l8.87-5.12a8.4,8.4,0,0,1,1.2,4c0,.13,0,.27,0,.39l-7.84,4.52A2.21,2.21,0,0,1,93.19,402.07Z" style="fill:#fff"></path><path d="M112.57,389.2l.12.31.07.22a2.5,2.5,0,0,1,.07.26c0,.09,0,.17.07.26s0,.09,0,.14a5.4,5.4,0,0,1,.09,1.2v0a3,3,0,0,1,0,.43h0c0-1.89-3.17-4.89-6-3.22-1,.57-2.49,1.4-5.54,3.17a7.18,7.18,0,0,0-1.4-1.11,2.87,2.87,0,0,0-2.89-.28l7.24-4.18a5.79,5.79,0,0,1,7.91,2.12,3.58,3.58,0,0,1,.24.48C112.52,389.08,112.54,389.14,112.57,389.2Z" style="opacity:0.1"></path><path d="M153.53,398h0a7.43,7.43,0,0,0,1,.49l.41.15a12.32,12.32,0,0,0,9.38-.84l9.78-5.65.08-.05a6.92,6.92,0,0,0,2.83-2.7,7,7,0,0,0-2.55-9.54,8.83,8.83,0,0,0-1-.48l-.41-.14a12.34,12.34,0,0,0-9.37.82l-9.78,5.65-.08,0a7,7,0,0,0-.28,12.24Z" style="fill:#fafafa;opacity:0.7000000000000001;mix-blend-mode:hard-light"></path><path d="M174.48,385.92c-2.89-1.67-7.74-1.58-10.82.2l-9.78,5.64c-3.08,1.78-3.24,4.58-.35,6.25s7.74,1.58,10.82-.2l9.78-5.65C177.22,390.38,177.37,387.59,174.48,385.92Z" style="fill:#e0e0e0"></path><path d="M177.17,389.15a7,7,0,0,0-2.68-9.28,8.83,8.83,0,0,0-1-.48l-.41-.14a12.66,12.66,0,0,0-8.17.26c4.59-.47,7.41-.6,10.29,1.81A7.06,7.06,0,0,1,177.17,389.15Z" style="fill:#fff"></path><path d="M159.76,384.47a2.85,2.85,0,0,1,2.89.29,9,9,0,0,1,4.09,7.07,2.89,2.89,0,0,1-1.2,2.65l-5.26,3a5.78,5.78,0,1,1-5.78-10Z" style="fill:#f5f5f5"></path><path d="M167,380.29a5.79,5.79,0,0,1,5.79,10l-7.26,4.17a2.89,2.89,0,0,0,1.2-2.65,9,9,0,0,0-4.09-7.07,2.85,2.85,0,0,0-2.89-.29Z" style="fill:#3393E4"></path><path d="M173.71,385.66a2.21,2.21,0,0,0-3-.81l-8.77,5a8.32,8.32,0,0,0,2.9,3.06,2.31,2.31,0,0,0,.35.18l7.73-4.43A2.22,2.22,0,0,0,173.71,385.66Z" style="fill:#fff;opacity:0.4"></path><path d="M159.76,384.47a2.85,2.85,0,0,1,2.89.29,9,9,0,0,1,4.09,7.07,2.89,2.89,0,0,1-1.2,2.65l-5.26,3a5.78,5.78,0,1,1-5.78-10Z" style="fill:#f5f5f5"></path><path d="M166.74,391.83a9,9,0,0,0-4.09-7.07,2.85,2.85,0,0,0-2.89-.29l.42-.24.31-.18a2.85,2.85,0,0,1,2.89.29,9,9,0,0,1,4.08,7.07,2.88,2.88,0,0,1-1.19,2.65l-.73.42A2.89,2.89,0,0,0,166.74,391.83Z" style="opacity:0.1"></path><path d="M155.05,397.77h0a5.7,5.7,0,0,1-2.67-2.39,5.78,5.78,0,0,1,2.12-7.9l5.26-3a2.85,2.85,0,0,1,2.89.29,6.57,6.57,0,0,1,1.41,1.1l-8.78,5.06C152.4,392.58,153.42,396.8,155.05,397.77Z" style="fill:#e0e0e0"></path><path d="M155.85,395.94a2.22,2.22,0,0,1,.81-3l8.88-5.11a8.37,8.37,0,0,1,1.2,4c0,.14,0,.27,0,.4l-7.84,4.52A2.23,2.23,0,0,1,155.85,395.94Z" style="fill:#fff"></path><path d="M175.23,383.06a2.45,2.45,0,0,1,.12.31l.08.23.07.25a2.61,2.61,0,0,1,.06.27l0,.13a6.07,6.07,0,0,1,.09,1.2v0a3.22,3.22,0,0,1,0,.43h0c0-1.9-3.17-4.89-6.06-3.23-1,.57-2.48,1.41-5.53,3.17a6.57,6.57,0,0,0-1.41-1.1,2.85,2.85,0,0,0-2.89-.29l7.25-4.18a5.78,5.78,0,0,1,7.9,2.12c.09.16.17.32.25.48S175.21,383,175.23,383.06Z" style="opacity:0.1"></path><path d="M117.05,419.26h0a6.05,6.05,0,0,0,1,.49c.08,0,.35.13.4.15a12.3,12.3,0,0,0,9.39-.84l9.78-5.64.08-.06a7,7,0,0,0,.27-12.23,6,6,0,0,0-1-.48l-.41-.15a12.36,12.36,0,0,0-9.38.83L117.4,407l-.07.06a7,7,0,0,0-.28,12.23Z" style="fill:#fafafa;opacity:0.7000000000000001;mix-blend-mode:hard-light"></path><path d="M138,407.17c-2.89-1.67-7.73-1.58-10.81.2L117.39,413c-3.08,1.78-3.23,4.57-.34,6.24s7.73,1.58,10.82-.2l9.78-5.64C140.73,411.64,140.89,408.84,138,407.17Z" style="fill:#e0e0e0"></path><path d="M140.69,410.4a7,7,0,0,0-2.69-9.27,6,6,0,0,0-1-.48l-.41-.15a12.66,12.66,0,0,0-8.17.26c4.58-.47,7.41-.6,10.29,1.81A7.07,7.07,0,0,1,140.69,410.4Z" style="fill:#fff"></path><path d="M123.28,405.72a2.87,2.87,0,0,1,2.89.29,9,9,0,0,1,4.08,7.07,2.87,2.87,0,0,1-1.19,2.65l-5.26,3a5.79,5.79,0,0,1-5.79-10Z" style="fill:#f5f5f5"></path><path d="M130.53,401.55a5.78,5.78,0,1,1,5.78,10l-7.25,4.16a2.87,2.87,0,0,0,1.19-2.65,9,9,0,0,0-4.08-7.07,2.87,2.87,0,0,0-2.89-.29Z" style="fill:#3393E4"></path><path d="M137.23,406.91a2.23,2.23,0,0,0-3-.81l-8.76,5a8.34,8.34,0,0,0,2.89,3.05l.35.19,7.74-4.44A2.22,2.22,0,0,0,137.23,406.91Z" style="fill:#fff;opacity:0.4"></path><path d="M123.28,405.72a2.87,2.87,0,0,1,2.89.29,9,9,0,0,1,4.08,7.07,2.87,2.87,0,0,1-1.19,2.65l-5.26,3a5.79,5.79,0,0,1-5.79-10Z" style="fill:#f5f5f5"></path><path d="M130.25,413.08a9,9,0,0,0-4.08-7.07,2.87,2.87,0,0,0-2.89-.29l.41-.24.32-.18a2.88,2.88,0,0,1,2.88.29,9,9,0,0,1,4.09,7.07,2.88,2.88,0,0,1-1.2,2.65l-.72.42A2.87,2.87,0,0,0,130.25,413.08Z" style="opacity:0.1"></path><path d="M118.56,419h0a5.74,5.74,0,0,1-2.66-2.39,5.8,5.8,0,0,1,2.11-7.91l5.27-3a2.87,2.87,0,0,1,2.89.29,6.51,6.51,0,0,1,1.4,1.1l-8.77,5.06C115.91,413.83,116.94,418.05,118.56,419Z" style="fill:#e0e0e0"></path><path d="M119.37,417.19a2.22,2.22,0,0,1,.81-3l8.87-5.11a8.37,8.37,0,0,1,1.2,4c0,.14,0,.27,0,.4L122.39,418A2.21,2.21,0,0,1,119.37,417.19Z" style="fill:#fff"></path><path d="M138.75,404.32l.12.31c0,.07,0,.14.07.22a2.33,2.33,0,0,1,.07.25,2.68,2.68,0,0,1,.07.27c0,.05,0,.09,0,.14a5.36,5.36,0,0,1,.1,1.2v0l0,.43h0c0-1.9-3.18-4.89-6.06-3.23-1,.57-2.49,1.41-5.54,3.17a6.51,6.51,0,0,0-1.4-1.1,2.87,2.87,0,0,0-2.89-.29l7.25-4.17a5.79,5.79,0,0,1,7.9,2.11q.13.24.24.48Z" style="opacity:0.1"></path><path d="M179.72,413.13h0a6.92,6.92,0,0,0,1,.49l.4.14a12.27,12.27,0,0,0,9.38-.83l9.79-5.65s0,0,.07,0a7,7,0,0,0,.28-12.24,7.35,7.35,0,0,0-1-.48l-.41-.14a12.32,12.32,0,0,0-9.38.82l-9.78,5.65-.08.05a7,7,0,0,0-.27,12.24Z" style="fill:#fafafa;opacity:0.7000000000000001;mix-blend-mode:hard-light"></path><path d="M200.66,401c-2.89-1.67-7.73-1.58-10.82.2l-9.78,5.65c-3.08,1.78-3.24,4.58-.34,6.25s7.73,1.58,10.81-.2l9.79-5.65C203.4,405.5,203.55,402.7,200.66,401Z" style="fill:#e0e0e0"></path><path d="M203.36,404.26a7,7,0,0,0-2.69-9.27,7.35,7.35,0,0,0-1-.48l-.41-.14a12.59,12.59,0,0,0-8.17.25c4.58-.47,7.41-.6,10.28,1.82A7.08,7.08,0,0,1,203.36,404.26Z" style="fill:#fff"></path><path d="M186,399.59a2.87,2.87,0,0,1,2.89.28,9,9,0,0,1,4.08,7.08,2.86,2.86,0,0,1-1.2,2.64l-5.25,3a5.79,5.79,0,1,1-5.79-10Z" style="fill:#f5f5f5"></path><path d="M193.19,395.41a5.79,5.79,0,1,1,5.79,10l-7.26,4.16a2.86,2.86,0,0,0,1.2-2.64,9,9,0,0,0-4.08-7.08,2.87,2.87,0,0,0-2.89-.28Z" style="fill:#3393E4"></path><path d="M199.89,400.78a2.21,2.21,0,0,0-3-.81l-8.77,5a8.47,8.47,0,0,0,2.9,3.06l.35.18,7.73-4.44A2.2,2.2,0,0,0,199.89,400.78Z" style="fill:#fff;opacity:0.4"></path><path d="M186,399.59a2.87,2.87,0,0,1,2.89.28,9,9,0,0,1,4.08,7.08,2.86,2.86,0,0,1-1.2,2.64l-5.25,3a5.79,5.79,0,1,1-5.79-10Z" style="fill:#f5f5f5"></path><path d="M192.92,407a9,9,0,0,0-4.08-7.08,2.87,2.87,0,0,0-2.89-.28l.41-.24.31-.18a2.87,2.87,0,0,1,2.89.28,9,9,0,0,1,4.09,7.08,2.86,2.86,0,0,1-1.2,2.64l-.73.42A2.86,2.86,0,0,0,192.92,407Z" style="opacity:0.1"></path><path d="M181.23,412.89h0a5.77,5.77,0,0,1-.55-10.29l5.27-3a2.87,2.87,0,0,1,2.89.28,7.18,7.18,0,0,1,1.4,1.11l-8.78,5C178.58,407.7,179.61,411.91,181.23,412.89Z" style="fill:#e0e0e0"></path><path d="M182,411.05a2.2,2.2,0,0,1,.81-3l8.87-5.12a8.4,8.4,0,0,1,1.2,4c0,.13,0,.27,0,.39l-7.84,4.52A2.21,2.21,0,0,1,182,411.05Z" style="fill:#fff"></path><path d="M201.41,398.18c.05.1.09.21.13.31l.07.22a2.5,2.5,0,0,1,.07.26c0,.09,0,.17.07.26s0,.09,0,.14a6.07,6.07,0,0,1,.09,1.2v0a3,3,0,0,1,0,.43h0c0-1.89-3.17-4.89-6.05-3.22-1,.57-2.49,1.4-5.54,3.17a7.18,7.18,0,0,0-1.4-1.11,2.87,2.87,0,0,0-2.89-.28l7.24-4.18a5.79,5.79,0,0,1,7.91,2.12,3.58,3.58,0,0,1,.24.48A.87.87,0,0,1,201.41,398.18Z" style="opacity:0.1"></path><path d="M143.23,434.38h0a7.43,7.43,0,0,0,1,.49l.41.15a12.32,12.32,0,0,0,9.38-.84l9.78-5.65.08,0a7,7,0,0,0,.27-12.24,8,8,0,0,0-1-.48l-.41-.14a12.37,12.37,0,0,0-9.38.82l-9.78,5.65s0,0-.07.05a6.86,6.86,0,0,0-2.83,2.7,7,7,0,0,0,2.55,9.54Z" style="fill:#fafafa;opacity:0.7000000000000001;mix-blend-mode:hard-light"></path><path d="M164.18,422.29c-2.89-1.67-7.74-1.58-10.82.2l-9.78,5.64c-3.09,1.78-3.24,4.58-.35,6.25s7.74,1.58,10.82-.2l9.78-5.65C166.91,426.75,167.07,424,164.18,422.29Z" style="fill:#e0e0e0"></path><path d="M166.87,425.52a7,7,0,0,0-2.69-9.28,8,8,0,0,0-1-.48l-.41-.14a12.72,12.72,0,0,0-8.17.25c4.59-.46,7.41-.6,10.29,1.82A7.06,7.06,0,0,1,166.87,425.52Z" style="fill:#fff"></path><path d="M149.46,420.84a2.87,2.87,0,0,1,2.89.28,9,9,0,0,1,4.09,7.08,2.86,2.86,0,0,1-1.2,2.64l-5.26,3a5.78,5.78,0,1,1-5.78-10Z" style="fill:#f5f5f5"></path><path d="M156.71,416.66a5.78,5.78,0,0,1,5.78,10l-7.25,4.16a2.86,2.86,0,0,0,1.2-2.64,9,9,0,0,0-4.09-7.08,2.87,2.87,0,0,0-2.89-.28Z" style="fill:#3393E4"></path><path d="M163.41,422a2.21,2.21,0,0,0-3-.81l-8.77,5a8.29,8.29,0,0,0,2.89,3.06l.36.18,7.73-4.43A2.22,2.22,0,0,0,163.41,422Z" style="fill:#fff;opacity:0.4"></path><path d="M149.46,420.84a2.87,2.87,0,0,1,2.89.28,9,9,0,0,1,4.09,7.08,2.86,2.86,0,0,1-1.2,2.64l-5.26,3a5.78,5.78,0,1,1-5.78-10Z" style="fill:#f5f5f5"></path><path d="M156.44,428.2a9,9,0,0,0-4.09-7.08,2.87,2.87,0,0,0-2.89-.28l.41-.24.32-.18a2.87,2.87,0,0,1,2.89.28,9.07,9.07,0,0,1,4.08,7.08,2.9,2.9,0,0,1-1.19,2.65l-.73.41A2.86,2.86,0,0,0,156.44,428.2Z" style="opacity:0.1"></path><path d="M144.75,434.14h0a5.7,5.7,0,0,1-2.67-2.39,5.78,5.78,0,0,1,2.12-7.9l5.26-3a2.87,2.87,0,0,1,2.89.28,7,7,0,0,1,1.41,1.11L145,427.29C142.1,429,143.12,433.17,144.75,434.14Z" style="fill:#e0e0e0"></path><path d="M145.55,432.3a2.21,2.21,0,0,1,.81-3l8.88-5.11a8.34,8.34,0,0,1,1.2,4c0,.14,0,.27,0,.4l-7.84,4.51A2.21,2.21,0,0,1,145.55,432.3Z" style="fill:#fff"></path><path d="M164.93,419.43l.12.31.08.23c0,.08,0,.16.07.25l.06.27,0,.13a6.07,6.07,0,0,1,.09,1.2v0l0,.43h0c0-1.89-3.17-4.89-6.06-3.22-1,.57-2.48,1.41-5.53,3.17a7,7,0,0,0-1.41-1.11,2.87,2.87,0,0,0-2.89-.28l7.25-4.18a5.79,5.79,0,0,1,7.9,2.12c.09.16.17.32.25.48S164.91,419.37,164.93,419.43Z" style="opacity:0.1"></path><path d="M205.9,428.24h0a6.05,6.05,0,0,0,1,.49l.4.15a12.3,12.3,0,0,0,9.39-.84l9.78-5.64.08-.06a6.9,6.9,0,0,0,2.82-2.7,7,7,0,0,0-2.55-9.53,6.37,6.37,0,0,0-1-.48l-.41-.15a12.36,12.36,0,0,0-9.38.83L206.25,416l-.07.06a6.88,6.88,0,0,0-2.84,2.7,7,7,0,0,0,2.56,9.53Z" style="fill:#fafafa;opacity:0.7000000000000001;mix-blend-mode:hard-light"></path><path d="M226.84,416.15c-2.89-1.67-7.73-1.58-10.81.2L206.24,422c-3.08,1.78-3.23,4.57-.34,6.24s7.73,1.58,10.82-.2l9.78-5.64C229.58,420.62,229.74,417.82,226.84,416.15Z" style="fill:#e0e0e0"></path><path d="M229.54,419.38a7,7,0,0,0-2.69-9.27,6.37,6.37,0,0,0-1-.48l-.41-.15a12.66,12.66,0,0,0-8.17.26c4.58-.47,7.41-.6,10.28,1.81A7.09,7.09,0,0,1,229.54,419.38Z" style="fill:#fff"></path><path d="M212.13,414.7A2.87,2.87,0,0,1,215,415a9,9,0,0,1,4.08,7.07,2.87,2.87,0,0,1-1.19,2.65l-5.26,3a5.79,5.79,0,1,1-5.79-10Z" style="fill:#f5f5f5"></path><path d="M219.38,410.53a5.78,5.78,0,1,1,5.78,10l-7.25,4.16a2.87,2.87,0,0,0,1.19-2.65A9,9,0,0,0,215,415a2.87,2.87,0,0,0-2.89-.29Z" style="fill:#3393E4"></path><path d="M226.08,415.89a2.23,2.23,0,0,0-3-.81l-8.76,5a8.34,8.34,0,0,0,2.89,3.05l.35.19,7.74-4.44A2.22,2.22,0,0,0,226.08,415.89Z" style="fill:#fff;opacity:0.4"></path><path d="M212.13,414.7A2.87,2.87,0,0,1,215,415a9,9,0,0,1,4.08,7.07,2.87,2.87,0,0,1-1.19,2.65l-5.26,3a5.79,5.79,0,1,1-5.79-10Z" style="fill:#f5f5f5"></path><path d="M219.1,422.06A9,9,0,0,0,215,415a2.87,2.87,0,0,0-2.89-.29l.41-.24.31-.18a2.89,2.89,0,0,1,2.89.29,9,9,0,0,1,4.09,7.07,2.88,2.88,0,0,1-1.2,2.65l-.72.42A2.87,2.87,0,0,0,219.1,422.06Z" style="opacity:0.1"></path><path d="M207.41,428h0a5.78,5.78,0,0,1-.55-10.3l5.27-3A2.87,2.87,0,0,1,215,415a6.77,6.77,0,0,1,1.4,1.1l-8.77,5.06C204.76,422.81,205.79,427,207.41,428Z" style="fill:#e0e0e0"></path><path d="M208.22,426.17a2.22,2.22,0,0,1,.81-3L217.9,418a8.37,8.37,0,0,1,1.2,4c0,.14,0,.27,0,.4L211.24,427A2.21,2.21,0,0,1,208.22,426.17Z" style="fill:#fff"></path><path d="M227.6,413.3l.12.31c0,.07.05.14.07.22a2.33,2.33,0,0,1,.07.25,2.68,2.68,0,0,1,.07.27s0,.09,0,.14a6,6,0,0,1,.1,1.2v0a3.11,3.11,0,0,1,0,.43h0c0-1.9-3.17-4.89-6-3.23-1,.57-2.49,1.41-5.54,3.17A6.77,6.77,0,0,0,215,415a2.87,2.87,0,0,0-2.89-.29l7.25-4.17a5.79,5.79,0,0,1,7.9,2.11q.14.24.24.48Z" style="opacity:0.1"></path><path d="M169.41,449.5h0a8.78,8.78,0,0,0,1,.49l.41.14a12.32,12.32,0,0,0,9.38-.83l9.78-5.65.08-.06a7,7,0,0,0,.28-12.23,7.46,7.46,0,0,0-1-.48l-.41-.14a12.29,12.29,0,0,0-9.37.82l-9.79,5.65-.07.05a7,7,0,0,0-.28,12.24Z" style="fill:#fafafa;opacity:0.7000000000000001;mix-blend-mode:hard-light"></path><path d="M190.36,437.4c-2.89-1.67-7.74-1.58-10.82.2l-9.78,5.65c-3.08,1.78-3.24,4.58-.35,6.25s7.74,1.58,10.82-.2l9.78-5.65C193.1,441.87,193.25,439.07,190.36,437.4Z" style="fill:#e0e0e0"></path><path d="M193.05,440.63a7,7,0,0,0-2.68-9.27,7.46,7.46,0,0,0-1-.48l-.41-.14a12.59,12.59,0,0,0-8.17.25c4.59-.47,7.41-.6,10.29,1.82A7.05,7.05,0,0,1,193.05,440.63Z" style="fill:#fff"></path><path d="M175.64,436a2.9,2.9,0,0,1,2.89.29,9,9,0,0,1,4.09,7.08,2.87,2.87,0,0,1-1.2,2.64l-5.26,3a5.78,5.78,0,1,1-5.78-10Z" style="fill:#f5f5f5"></path><path d="M182.89,431.78a5.79,5.79,0,0,1,5.79,10L181.42,446a2.87,2.87,0,0,0,1.2-2.64,9,9,0,0,0-4.09-7.08,2.9,2.9,0,0,0-2.89-.29Z" style="fill:#3393E4"></path><path d="M189.59,437.15a2.21,2.21,0,0,0-3-.81l-8.77,5a8.47,8.47,0,0,0,2.9,3.06,3.84,3.84,0,0,0,.35.18l7.73-4.44A2.21,2.21,0,0,0,189.59,437.15Z" style="fill:#fff;opacity:0.4"></path><path d="M175.64,436a2.9,2.9,0,0,1,2.89.29,9,9,0,0,1,4.09,7.08,2.87,2.87,0,0,1-1.2,2.64l-5.26,3a5.78,5.78,0,1,1-5.78-10Z" style="fill:#f5f5f5"></path><path d="M182.62,443.32a9,9,0,0,0-4.09-7.08,2.9,2.9,0,0,0-2.89-.29l.42-.24.31-.18a2.9,2.9,0,0,1,2.89.29,9,9,0,0,1,4.08,7.08,2.86,2.86,0,0,1-1.19,2.64l-.73.42A2.87,2.87,0,0,0,182.62,443.32Z" style="opacity:0.1"></path><path d="M170.93,449.26h0a5.77,5.77,0,0,1-.55-10.29l5.26-3a2.9,2.9,0,0,1,2.89.29,6.9,6.9,0,0,1,1.41,1.1l-8.78,5.06C168.28,444.07,169.3,448.28,170.93,449.26Z" style="fill:#e0e0e0"></path><path d="M171.73,447.42a2.22,2.22,0,0,1,.81-3l8.88-5.12a8.4,8.4,0,0,1,1.2,4c0,.13,0,.26,0,.39l-7.84,4.52A2.22,2.22,0,0,1,171.73,447.42Z" style="fill:#fff"></path><path d="M191.11,434.55a1.66,1.66,0,0,1,.12.31c0,.07.05.15.08.22s.05.17.07.25a2.61,2.61,0,0,1,.06.27l0,.14a6.07,6.07,0,0,1,.09,1.2v0a3.11,3.11,0,0,1,0,.43h0c0-1.89-3.17-4.89-6.06-3.22-1,.57-2.48,1.4-5.53,3.16a6.9,6.9,0,0,0-1.41-1.1,2.9,2.9,0,0,0-2.89-.29l7.25-4.17a5.78,5.78,0,0,1,7.9,2.12,5.39,5.39,0,0,1,.25.48A.87.87,0,0,1,191.11,434.55Z" style="opacity:0.1"></path></g><g id="freepik--Pill--inject-49"><path d="M247.93,374a5.81,5.81,0,0,0-.36-.86,6.58,6.58,0,0,0-.4-.67,9.46,9.46,0,0,0-2.53-2.52v2.6l-2.24-1.3v-2.6c-6.24-2.95-15.46-2.74-21.28.62a9.11,9.11,0,0,0-4.35,4.73,4.14,4.14,0,0,0-.13.43,5.43,5.43,0,0,0-.17,1.32v5.19a6,6,0,0,0,1.16,3.45,10.92,10.92,0,0,0,3.49,3c6.2,3.58,16.26,3.58,22.45,0,3.11-1.79,4.66-4.14,4.66-6.48v-5.19A5.28,5.28,0,0,0,247.93,374Z" style="fill:#f0f0f0"></path><path d="M237.33,367c-5.52-1-11.82-.3-16.21,2.23a9.11,9.11,0,0,0-4.35,4.73,4.14,4.14,0,0,0-.13.43,5.43,5.43,0,0,0-.17,1.32v5.19a6,6,0,0,0,1.16,3.45,10.92,10.92,0,0,0,3.49,3c4.39,2.53,10.7,3.26,16.21,2.21Z" style="fill:#ebebeb"></path><path d="M221.12,369.26c-5.82,3.36-6.17,8.68-1.06,12.28l22.34-12.9C236.16,365.69,227,365.9,221.12,369.26Z" style="fill:#fafafa"></path><path d="M220.06,380.18s-6.18-4.73.68-10.69c-5.45,3.37-5.68,8.53-.68,12.05l22.34-12.9Z" style="fill:#fff"></path><path d="M244.64,369.94l-22.34,12.9c6.24,3,15.46,2.74,21.28-.62S249.75,373.54,244.64,369.94Z" style="fill:#fafafa"></path><path d="M222.3,382.84c6.24,3,15.46,2.74,21.28-.62a12.51,12.51,0,0,0,1.83-1.27c-11.42,5.72-20.61,1.69-20.61,1.69l19.84-12.7Z" style="fill:#fff"></path><polygon points="242.4 371.24 220.06 384.2 220.06 381.54 242.4 368.64 242.4 371.24" style="fill:#e0e0e0"></polygon><polygon points="222.3 382.84 222.31 385.49 220.06 384.2 222.3 382.84" style="opacity:0.2"></polygon></g><g id="freepik--pill--inject-49"><path d="M254.15,365.67a4.9,4.9,0,0,0-.36-.86,5.15,5.15,0,0,0-.4-.67,9.46,9.46,0,0,0-2.53-2.52v2.6l-2.24-1.3v-2.6c-6.24-2.95-15.46-2.74-21.28.62a9.11,9.11,0,0,0-4.35,4.73,4.14,4.14,0,0,0-.13.43,5.43,5.43,0,0,0-.17,1.32v5.19a6,6,0,0,0,1.17,3.45,10.77,10.77,0,0,0,3.48,3c6.2,3.58,16.26,3.58,22.46,0,3.1-1.79,4.65-4.14,4.65-6.48v-5.19A5.28,5.28,0,0,0,254.15,365.67Z" style="fill:#f0f0f0"></path><path d="M243.55,358.71c-5.51-1-11.82-.3-16.21,2.23a9.11,9.11,0,0,0-4.35,4.73,4.14,4.14,0,0,0-.13.43,5.43,5.43,0,0,0-.17,1.32v5.19a6,6,0,0,0,1.17,3.45,10.77,10.77,0,0,0,3.48,3c4.39,2.53,10.7,3.26,16.21,2.21Z" style="fill:#ebebeb"></path><path d="M227.34,360.94c-5.82,3.36-6.17,8.68-1.06,12.28l22.34-12.9C242.38,357.37,233.17,357.58,227.34,360.94Z" style="fill:#fafafa"></path><path d="M226.28,371.86s-6.18-4.73.68-10.69c-5.45,3.37-5.68,8.53-.68,12.05l22.34-12.9Z" style="fill:#fff"></path><path d="M250.86,361.62l-22.34,12.9c6.24,3,15.46,2.74,21.28-.62S256,365.22,250.86,361.62Z" style="fill:#fafafa"></path><path d="M228.52,374.52c6.24,3,15.46,2.74,21.28-.62a13.2,13.2,0,0,0,1.84-1.27c-11.43,5.72-20.62,1.69-20.62,1.69l19.84-12.7Z" style="fill:#fff"></path><polygon points="248.62 362.92 226.28 375.88 226.28 373.22 248.62 360.32 248.62 362.92" style="fill:#e0e0e0"></polygon><polygon points="228.52 374.52 228.53 377.17 226.28 375.88 228.52 374.52" style="opacity:0.2"></polygon></g></g></svg>