<svg width="462" height="462" viewBox="0 0 462 462" fill="none" xmlns="http://www.w3.org/2000/svg">
<rect width="462" height="462" fill="#1E1E1E"/>
<rect width="462" height="462" fill="white"/>
<path d="M59.362 337.5C57.122 337.5 55.422 336.82 54.262 335.46C53.102 334.1 52.522 332.2 52.522 329.76V318.84C52.522 317.56 52.282 316.6 51.802 315.96C51.322 315.28 50.642 314.94 49.762 314.94C49.002 314.94 48.382 314.68 47.902 314.16C47.422 313.6 47.182 312.86 47.182 311.94C47.182 311.02 47.422 310.3 47.902 309.78C48.382 309.22 49.002 308.94 49.762 308.94C50.642 308.94 51.322 308.6 51.802 307.92C52.282 307.24 52.522 306.26 52.522 304.98V294.06C52.522 291.62 53.102 289.74 54.262 288.42C55.422 287.06 57.122 286.38 59.362 286.38H66.142C66.142 288.34 65.842 289.84 65.242 290.88C64.682 291.92 63.722 292.44 62.362 292.44H61.462C60.942 292.44 60.522 292.62 60.202 292.98C59.922 293.3 59.782 293.74 59.782 294.3V304.68C59.782 306.4 59.522 307.86 59.002 309.06C58.482 310.22 57.602 311.18 56.362 311.94C57.602 312.66 58.482 313.62 59.002 314.82C59.522 315.98 59.782 317.44 59.782 319.2V329.52C59.782 330.12 59.922 330.58 60.202 330.9C60.522 331.26 60.942 331.44 61.462 331.44H62.362C63.722 331.44 64.682 331.96 65.242 333C65.842 334.04 66.142 335.54 66.142 337.5H59.362ZM74.7511 291.3C74.7511 290.38 75.0911 289.6 75.7711 288.96C76.4911 288.32 77.3711 288 78.4111 288H105.411C105.411 290.16 105.011 291.74 104.211 292.74C103.451 293.74 102.231 294.24 100.551 294.24H81.9511V305.4H98.2111C98.2111 307.56 97.8111 309.14 97.0111 310.14C96.2511 311.14 95.0311 311.64 93.3511 311.64H81.9511V325.2C81.9511 327.08 81.3711 328.44 80.2111 329.28C79.0911 330.12 77.2711 330.54 74.7511 330.54V291.3ZM126.459 330.54C123.179 330.54 120.179 329.88 117.459 328.56C114.779 327.24 112.659 325.46 111.099 323.22C109.539 320.98 108.759 318.52 108.759 315.84V302.1C108.759 299.42 109.519 296.96 111.039 294.72C112.599 292.48 114.719 290.72 117.399 289.44C120.119 288.12 123.139 287.46 126.459 287.46C129.779 287.46 132.779 288.12 135.459 289.44C138.179 290.72 140.299 292.48 141.819 294.72C143.379 296.96 144.159 299.42 144.159 302.1V315.84C144.159 318.52 143.379 320.98 141.819 323.22C140.259 325.46 138.119 327.24 135.399 328.56C132.719 329.88 129.739 330.54 126.459 330.54ZM126.459 324.24C129.659 324.24 132.199 323.46 134.079 321.9C135.999 320.34 136.959 318.28 136.959 315.72V302.22C136.959 299.66 135.999 297.62 134.079 296.1C132.199 294.54 129.659 293.76 126.459 293.76C123.259 293.76 120.699 294.54 118.779 296.1C116.899 297.62 115.959 299.66 115.959 302.22V315.72C115.959 318.28 116.899 320.34 118.779 321.9C120.699 323.46 123.259 324.24 126.459 324.24ZM152.735 291.3C152.735 290.38 153.075 289.6 153.755 288.96C154.475 288.32 155.355 288 156.395 288H172.535C176.695 288 179.955 289.14 182.315 291.42C184.715 293.7 185.915 296.84 185.915 300.84C185.915 303.2 185.415 305.2 184.415 306.84C183.415 308.44 181.915 309.72 179.915 310.68V310.92C181.675 311.68 183.015 312.82 183.935 314.34C184.855 315.82 185.315 317.66 185.315 319.86V325.02C185.315 326.82 184.695 328.2 183.455 329.16C182.255 330.08 180.475 330.54 178.115 330.54V320.16C178.115 315.84 176.275 313.68 172.595 313.68H159.875V325.02C159.875 326.82 159.255 328.2 158.015 329.16C156.815 330.08 155.055 330.54 152.735 330.54V291.3ZM172.235 307.5C174.235 307.5 175.795 306.92 176.915 305.76C178.075 304.56 178.655 302.9 178.655 300.78C178.655 296.38 176.515 294.18 172.235 294.18H159.875V307.5H172.235ZM193.833 337.5C193.833 335.54 194.113 334.04 194.673 333C195.273 331.96 196.253 331.44 197.613 331.44H198.513C199.033 331.44 199.433 331.26 199.713 330.9C200.033 330.58 200.193 330.12 200.193 329.52V319.2C200.193 317.44 200.453 315.98 200.973 314.82C201.493 313.62 202.373 312.66 203.613 311.94C202.373 311.18 201.493 310.22 200.973 309.06C200.453 307.86 200.193 306.4 200.193 304.68V294.3C200.193 293.74 200.033 293.3 199.713 292.98C199.433 292.62 199.033 292.44 198.513 292.44H197.613C196.253 292.44 195.273 291.92 194.673 290.88C194.113 289.84 193.833 288.34 193.833 286.38H200.613C202.813 286.38 204.493 287.06 205.653 288.42C206.813 289.74 207.393 291.62 207.393 294.06V304.98C207.393 306.26 207.633 307.24 208.113 307.92C208.593 308.6 209.293 308.94 210.213 308.94C210.973 308.94 211.593 309.22 212.073 309.78C212.553 310.3 212.793 311.02 212.793 311.94C212.793 312.86 212.553 313.6 212.073 314.16C211.593 314.68 210.973 314.94 210.213 314.94C209.293 314.94 208.593 315.28 208.113 315.96C207.633 316.6 207.393 317.56 207.393 318.84V329.76C207.393 332.24 206.813 334.14 205.653 335.46C204.533 336.82 202.853 337.5 200.613 337.5H193.833ZM237.362 330.54C233.842 330.54 230.782 330.08 228.182 329.16C225.582 328.24 223.582 326.98 222.182 325.38C220.822 323.78 220.142 321.94 220.142 319.86C220.142 316.62 222.182 315 226.262 315C226.342 318.16 227.342 320.56 229.262 322.2C231.222 323.84 233.962 324.66 237.482 324.66C240.562 324.66 242.942 324.14 244.622 323.1C246.302 322.06 247.142 320.56 247.142 318.6C247.142 317.36 246.822 316.36 246.182 315.6C245.542 314.8 244.462 314.1 242.942 313.5C241.422 312.86 239.222 312.22 236.342 311.58C232.502 310.74 229.462 309.76 227.222 308.64C225.022 307.52 223.422 306.18 222.422 304.62C221.422 303.06 220.922 301.12 220.922 298.8C220.922 296.56 221.582 294.58 222.902 292.86C224.222 291.14 226.082 289.82 228.482 288.9C230.882 287.94 233.662 287.46 236.822 287.46C239.822 287.46 242.522 287.88 244.922 288.72C247.322 289.52 249.202 290.66 250.562 292.14C251.922 293.62 252.602 295.32 252.602 297.24C252.602 300 250.662 301.44 246.782 301.56C246.462 298.68 245.502 296.58 243.902 295.26C242.342 293.94 239.982 293.28 236.822 293.28C234.022 293.28 231.862 293.76 230.342 294.72C228.822 295.68 228.062 297.04 228.062 298.8C228.062 300 228.342 301 228.902 301.8C229.502 302.56 230.482 303.24 231.842 303.84C233.202 304.4 235.162 304.96 237.722 305.52C241.802 306.44 245.042 307.48 247.442 308.64C249.842 309.76 251.562 311.12 252.602 312.72C253.682 314.28 254.222 316.24 254.222 318.6C254.222 321.04 253.522 323.16 252.122 324.96C250.762 326.76 248.802 328.14 246.242 329.1C243.722 330.06 240.762 330.54 237.362 330.54ZM262.825 291.3C262.825 290.38 263.165 289.6 263.845 288.96C264.565 288.32 265.445 288 266.485 288H293.185C293.185 290.16 292.785 291.74 291.985 292.74C291.225 293.74 289.985 294.24 288.265 294.24H270.025V305.7H286.285C286.285 307.86 285.885 309.44 285.085 310.44C284.325 311.44 283.105 311.94 281.425 311.94H270.025V323.76H289.525C291.205 323.76 292.425 324.26 293.185 325.26C293.985 326.26 294.385 327.84 294.385 330H266.485C265.445 330 264.565 329.68 263.845 329.04C263.165 328.4 262.825 327.6 262.825 326.64V291.3ZM318.546 330.54C316.786 330.54 315.606 329.74 315.006 328.14L299.646 288.18C300.006 287.98 300.486 287.82 301.086 287.7C301.686 287.54 302.246 287.46 302.766 287.46C304.166 287.46 305.326 287.78 306.246 288.42C307.206 289.02 307.906 289.9 308.346 291.06L318.126 318.48L316.866 322.08L317.466 322.32L328.686 291.06C329.606 288.66 331.486 287.46 334.326 287.46C334.806 287.46 335.326 287.54 335.886 287.7C336.486 287.82 336.986 287.98 337.386 288.18L322.086 328.14C321.806 328.9 321.346 329.5 320.706 329.94C320.106 330.34 319.386 330.54 318.546 330.54ZM345.965 291.3C345.965 290.38 346.305 289.6 346.985 288.96C347.705 288.32 348.585 288 349.625 288H376.325C376.325 290.16 375.925 291.74 375.125 292.74C374.365 293.74 373.125 294.24 371.405 294.24H353.165V305.7H369.425C369.425 307.86 369.025 309.44 368.225 310.44C367.465 311.44 366.245 311.94 364.565 311.94H353.165V323.76H372.665C374.345 323.76 375.565 324.26 376.325 325.26C377.125 326.26 377.525 327.84 377.525 330H349.625C348.585 330 347.705 329.68 346.985 329.04C346.305 328.4 345.965 327.6 345.965 326.64V291.3ZM386.1 293.34C386.1 291.5 386.68 290.06 387.84 289.02C389.04 287.98 390.68 287.46 392.76 287.46L414 320.4L414.54 319.92L412.32 316.26V287.46C414.68 287.46 416.46 287.92 417.66 288.84C418.86 289.76 419.46 291.14 419.46 292.98V325.38C419.46 326.78 418.9 328 417.78 329.04C416.66 330.04 415.3 330.54 413.7 330.54L391.56 296.22L391.02 296.64L393.24 300.36V325.02C393.24 326.82 392.62 328.2 391.38 329.16C390.18 330.08 388.42 330.54 386.1 330.54V293.34Z" fill="#963EB5"/>
<path d="M181.985 344C183.061 344 184.123 344.219 185.185 344.651L184.76 346.946L184.364 347.115C183.925 346.797 183.465 346.549 182.976 346.379C182.502 346.195 182.07 346.096 181.673 346.096C181.142 346.096 180.717 346.237 180.399 346.521C180.094 346.79 179.946 347.108 179.946 347.484C179.946 347.866 180.115 348.185 180.455 348.447C180.809 348.716 181.362 349.027 182.098 349.381C182.813 349.707 183.401 350.004 183.854 350.288C184.307 350.571 184.69 350.953 185.015 351.42C185.334 351.874 185.497 352.433 185.497 353.092C185.497 353.814 185.298 354.472 184.902 355.074C184.52 355.662 183.967 356.136 183.231 356.49C182.509 356.83 181.68 357 180.739 357C179.492 357 178.246 356.738 177 356.207L177.368 353.715L177.651 353.573C178.175 354.026 178.756 354.38 179.379 354.621C180.002 354.869 180.554 354.989 181.05 354.989C181.617 354.989 182.056 354.847 182.381 354.564C182.7 354.281 182.863 353.941 182.863 353.545C182.863 353.134 182.693 352.794 182.353 352.525C182.013 352.263 181.454 351.944 180.682 351.562C179.96 351.265 179.379 350.981 178.926 350.712C178.487 350.429 178.112 350.061 177.793 349.608C177.467 349.141 177.312 348.574 177.312 347.908C177.312 347.172 177.51 346.514 177.906 345.926C178.303 345.324 178.848 344.85 179.549 344.51C180.264 344.17 181.078 344 181.985 344Z" fill="#C64AAC"/>
<path d="M194.194 352.808L194.307 356.83H191.617L191.758 353.063L191.617 344.142H194.336L194.194 352.808Z" fill="#C64AAC"/>
<path d="M205.413 344C206.489 344 207.552 344.219 208.614 344.651L208.189 346.946L207.792 347.115C207.353 346.797 206.893 346.549 206.404 346.379C205.93 346.195 205.498 346.096 205.102 346.096C204.571 346.096 204.146 346.237 203.827 346.521C203.523 346.79 203.374 347.108 203.374 347.484C203.374 347.866 203.544 348.185 203.884 348.447C204.238 348.716 204.79 349.027 205.526 349.381C206.242 349.707 206.829 350.004 207.282 350.288C207.736 350.571 208.118 350.953 208.444 351.42C208.762 351.874 208.925 352.433 208.925 353.092C208.925 353.814 208.727 354.472 208.33 355.074C207.948 355.662 207.396 356.136 206.659 356.49C205.937 356.83 205.109 357 204.167 357C202.921 357 201.675 356.738 200.428 356.207L200.797 353.715L201.08 353.573C201.604 354.026 202.184 354.38 202.807 354.621C203.431 354.869 203.983 354.989 204.479 354.989C205.045 354.989 205.484 354.847 205.81 354.564C206.128 354.281 206.291 353.941 206.291 353.545C206.291 353.134 206.121 352.794 205.781 352.525C205.441 352.263 204.882 351.944 204.11 351.562C203.388 351.265 202.807 350.981 202.354 350.712C201.915 350.429 201.54 350.061 201.221 349.608C200.896 349.141 200.74 348.574 200.74 347.908C200.74 347.172 200.938 346.514 201.335 345.926C201.731 345.324 202.276 344.85 202.977 344.51C203.693 344.17 204.507 344 205.413 344Z" fill="#C64AAC"/>
<path d="M223.145 344.368L222.976 346.351L220.596 346.237H219.803L219.718 352.808L219.832 356.83H217.169L217.283 353.063L217.198 346.237H216.405L213.997 346.351L213.799 346.152L213.997 344.142H222.976L223.145 344.368Z" fill="#C64AAC"/>
<path d="M236.841 354.621L236.983 354.847L236.813 356.83H228.854L228.996 353.063L228.854 344.142H236.898L237.039 344.368L236.841 346.351L233.81 346.266H231.545L231.488 349.325L233.669 349.381L235.736 349.325L235.878 349.495L235.708 351.505L233.471 351.449H231.431V352.808L231.488 354.734H233.697L236.841 354.621Z" fill="#C64AAC"/>
<path d="M256.007 356.83H253.628L253.43 352.978L252.977 348.107H252.779L249.946 355.499H247.879L245.302 348.107H245.132L244.65 352.723L244.367 356.83H242.129L243.404 344.142H246.463L246.973 346.011L248.983 352.015H249.153L251.278 346.011L251.844 344.142H254.846L256.007 356.83Z" fill="#C64AAC"/>
<path d="M272.341 356.83H269.622L269.311 355.187L268.971 353.998L266.479 353.941L264.298 353.998L263.986 355.046L263.646 356.83H261.012L265.289 344.142H268.461L272.341 356.83ZM268.405 351.93L266.904 346.662H266.734L265.006 351.93L266.677 351.959L268.405 351.93Z" fill="#C64AAC"/>
<path d="M282.167 344C283.243 344 284.305 344.219 285.367 344.651L284.942 346.946L284.546 347.115C284.107 346.797 283.647 346.549 283.158 346.379C282.684 346.195 282.252 346.096 281.855 346.096C281.324 346.096 280.899 346.237 280.581 346.521C280.276 346.79 280.128 347.108 280.128 347.484C280.128 347.866 280.298 348.185 280.637 348.447C280.991 348.716 281.544 349.027 282.28 349.381C282.995 349.707 283.583 350.004 284.036 350.288C284.489 350.571 284.872 350.953 285.197 351.42C285.516 351.874 285.679 352.433 285.679 353.092C285.679 353.814 285.481 354.472 285.084 355.074C284.702 355.662 284.149 356.136 283.413 356.49C282.691 356.83 281.862 357 280.921 357C279.675 357 278.428 356.738 277.182 356.207L277.55 353.715L277.834 353.573C278.358 354.026 278.938 354.38 279.561 354.621C280.184 354.869 280.737 354.989 281.232 354.989C281.799 354.989 282.238 354.847 282.563 354.564C282.882 354.281 283.045 353.941 283.045 353.545C283.045 353.134 282.875 352.794 282.535 352.525C282.195 352.263 281.636 351.944 280.864 351.562C280.142 351.265 279.561 350.981 279.108 350.712C278.669 350.429 278.294 350.061 277.975 349.608C277.649 349.141 277.494 348.574 277.494 347.908C277.494 347.172 277.692 346.514 278.088 345.926C278.485 345.324 279.03 344.85 279.731 344.51C280.446 344.17 281.261 344 282.167 344Z" fill="#C64AAC"/>
<mask id="mask0_0_1" style="mask-type:luminance" maskUnits="userSpaceOnUse" x="128" y="112" width="205" height="156">
<path d="M128 112H333V267.064H128V112Z" fill="white"/>
</mask>
<g mask="url(#mask0_0_1)">
<path d="M309.264 242.651L305.794 238.434H313.603L317.422 242.651H309.264ZM299.271 242.651L296.226 238.434H304.035L307.43 242.651H299.271ZM289.279 242.651L286.657 238.434H294.467L297.437 242.651H289.279ZM279.286 242.651L277.089 238.434H284.898L287.444 242.651H279.286ZM208.277 242.651L209.077 238.434H275.33L277.452 242.651H208.277ZM197.223 260.322L201.692 246.189H260.875L266.077 260.322H197.223ZM197.675 238.434H207.065L206.175 242.651H196.361L197.675 238.434ZM186.628 237.599L188.449 233.383H197.333L195.943 237.599H186.628ZM194.266 242.651H184.452L186.265 238.434H195.663L194.266 242.651ZM182.665 242.698H171.797L172.864 240.775H183.535L182.665 242.698ZM170.489 240.118H159.901L161.236 238.195H171.612L170.489 240.118ZM168.977 242.698H158.108L159.443 240.775H170.106L168.977 242.698ZM155.288 242.698H144.419L146.021 240.775H156.678L155.288 242.698ZM152.201 233.383H176.122L173.727 237.599H148.704L152.201 233.383ZM156.958 227.668L158.354 225.985L160.462 223.445H171.817L168.908 227.668H163.378L159.696 232.548H152.899L156.958 227.668ZM164.473 218.627H178.278L175.54 222.843H160.962L164.473 218.627ZM174.562 216.074L173.159 218.004H165.431L167.033 216.074H174.562ZM164.09 120.418H300.284V206.369H164.09V120.418ZM299.511 222.843H291.654L288.252 218.627H295.699L299.511 222.843ZM303.871 227.668H291.921L288.697 223.445H300.058L303.871 227.668ZM308.285 232.548H289.525L286.596 228.325H304.473L308.285 232.548ZM285.658 233.383H294.549L297.69 237.599H288.375L285.658 233.383ZM274.851 233.383H283.749L286.384 237.599H277.069L274.851 233.383ZM272.948 233.383L275.077 237.599H265.769L264.051 233.383H272.948ZM257.419 232.548L256.002 228.325H264.4L266.234 232.548H257.419ZM262.141 233.383L263.777 237.599H254.462L253.25 233.383H262.141ZM246.721 232.548L245.804 228.325H254.202L255.53 232.548H246.721ZM251.341 233.383L252.463 237.599H243.155L242.45 233.383H251.341ZM236.016 232.548L235.606 228.325H244.004L244.832 232.548H236.016ZM240.541 233.383L241.157 237.599H231.848L231.65 233.383H240.541ZM225.312 232.548L225.408 228.325H233.806L234.127 232.548H225.312ZM220.85 233.383H229.74L229.857 237.599H220.542L220.85 233.383ZM214.614 232.548L215.21 228.325H223.608L223.423 232.548H214.614ZM210.049 233.383H218.94L218.55 237.599H209.242L210.049 233.383ZM203.917 232.548L205.019 228.325H213.41L212.725 232.548H203.917ZM199.242 233.383H208.14L207.25 237.599H197.935L199.242 233.383ZM194.821 228.325H203.219L202.021 232.548H193.205L194.821 228.325ZM190.906 227.668L192.72 223.445H200.638L199.235 227.668H190.906ZM182.508 232.548L184.623 228.325H193.021L191.323 232.548H182.508ZM186.539 233.383L184.636 237.599H175.321L177.648 233.383H186.539ZM174.418 228.325H182.823L180.619 232.548H171.803L174.418 228.325ZM172.981 228.325L170.298 232.548H161.482L164.59 228.325H172.981ZM181.748 223.445L179.36 227.668H171.023L173.829 223.445H181.748ZM191.926 218.004H184.198L185.314 216.074H192.843L191.926 218.004ZM191.022 223.445L189.113 227.668H180.783L183.103 223.445H191.022ZM196.285 218.627L194.554 222.843H186.69L188.839 218.627H196.285ZM201.309 218.004H193.582L194.451 216.074H201.98L201.309 218.004ZM205.327 218.627L204.095 222.843H196.231L197.873 218.627H205.327ZM210.686 218.004H202.965L203.595 216.074H211.117L210.686 218.004ZM210.255 223.445L209.358 227.668H201.015L202.336 223.445H210.255ZM214.361 218.627L213.636 222.843H205.772L206.915 218.627H214.361ZM220.076 218.004H212.349L212.732 216.074H220.261L220.076 218.004ZM219.864 223.445L219.474 227.668H211.138L211.952 223.445H219.864ZM223.396 218.627L223.177 222.843H215.319L215.956 218.627H223.396ZM221.732 218.004L221.876 216.074H229.405L229.453 218.004H221.732ZM229.59 227.668H221.26L221.561 223.445H229.48L229.59 227.668ZM232.437 218.627L232.718 222.843H224.86L224.99 218.627H232.437ZM231.116 218.004L231.013 216.074H238.549L238.843 218.004H231.116ZM239.706 227.668H231.376L231.178 223.445H239.09L239.706 227.668ZM241.471 218.627L242.258 222.843H234.408L234.032 218.627H241.471ZM240.493 218.004L240.157 216.074H247.679L248.227 218.004H240.493ZM249.828 227.668H241.492L240.787 223.445H248.706L249.828 227.668ZM250.513 218.627L251.806 222.843H243.942L243.066 218.627H250.513ZM249.876 218.004L249.301 216.074H256.823L257.603 218.004H249.876ZM259.944 227.668H251.615L250.403 223.445H258.322L259.944 227.668ZM259.547 218.627L261.34 222.843H253.49L252.101 218.627H259.547ZM259.26 218.004L258.438 216.074H265.974L266.994 218.004H259.26ZM268.588 218.627L270.888 222.843H263.031L261.142 218.627H268.588ZM268.643 218.004L267.582 216.074H275.111L276.37 218.004H268.643ZM277.623 218.627L280.436 222.843H272.572L270.183 218.627H277.623ZM278.027 218.004L276.719 216.074H284.248L285.754 218.004H278.027ZM281.969 227.668L279.245 223.445H287.164L290.305 227.668H281.969ZM276.398 228.325H284.796L287.636 232.548H278.821L276.398 228.325ZM274.598 228.325L276.932 232.548H268.123L266.2 228.325H274.598ZM269.629 223.445H277.548L280.183 227.668H271.853L269.629 223.445ZM270.067 227.668H261.73L260.019 223.445H267.938L270.067 227.668ZM285.857 216.074H293.385L295.137 218.004H287.41L285.857 216.074ZM286.664 218.627L289.97 222.843H282.113L279.218 218.627H286.664ZM174.815 218.004L176.17 216.074H183.699L182.542 218.004H174.815ZM187.566 218.627L185.341 222.843H177.484L180.119 218.627H187.566ZM312.85 237.599H299.49L296.274 233.383H309.031L312.85 237.599ZM332.172 254.293L296.287 214.794H301.735C305.308 214.794 308.21 211.899 308.21 208.326V118.468C308.21 114.895 305.308 112 301.735 112H162.632C159.066 112 156.164 114.895 156.164 118.468V208.326C156.164 211.899 159.066 214.794 162.632 214.794L128.452 256.517C128.157 257.126 128.055 257.701 128.13 258.221C127.89 261.507 129.417 266.763 134.577 266.763H328.531C332.733 266.763 333.13 255.408 332.172 254.293Z" fill="#963EB5"/>
</g>
<path d="M201.723 150.64C201.723 149.88 202.003 149.26 202.563 148.78C203.123 148.26 203.803 148 204.603 148H231.363C231.363 149.68 231.023 150.92 230.343 151.72C229.663 152.52 228.623 152.92 227.223 152.92H207.363V166.06H224.163C224.163 167.74 223.823 168.98 223.143 169.78C222.463 170.58 221.423 170.98 220.023 170.98H207.363V185.98C207.363 187.54 206.903 188.7 205.983 189.46C205.063 190.18 203.643 190.54 201.723 190.54V150.64ZM260.501 152.92H239.801C238.441 152.92 237.381 152.5 236.621 151.66C235.901 150.82 235.541 149.6 235.541 148H264.701C265.541 148 266.201 148.22 266.681 148.66C267.161 149.1 267.401 149.68 267.401 150.4C267.401 150.88 267.301 151.32 267.101 151.72L248.561 188.38C247.841 189.82 246.741 190.54 245.261 190.54C244.021 190.54 242.921 190.2 241.961 189.52L260.501 152.92Z" fill="url(#paint0_linear_0_1)"/>
<defs>
<linearGradient id="paint0_linear_0_1" x1="233.5" y1="191" x2="233.5" y2="135.516" gradientUnits="userSpaceOnUse">
<stop stop-color="#FF01C7"/>
<stop offset="0.0001" stop-color="#FE00CA"/>
<stop offset="0.9999" stop-color="#7C00D1"/>
<stop offset="1" stop-color="#4600D3"/>
</linearGradient>
</defs>
</svg>
